<svg width="59.99999999999999" height="59.99999999999999" xmlns="http://www.w3.org/2000/svg" fill="none">
 <defs>
  <clipPath id="clip0_161_93">
   <rect id="svg_1" fill="white" height="60" width="60"/>
  </clipPath>
 </defs>
 <g>
  <title>Layer 1</title>
  <path id="svg_3" fill="#F6F6F6" d="m46.7,35.91l2.32,-2.65c0.3747,-0.4288 0.8711,-0.7332 1.4232,-0.8725c0.5521,-0.1394 1.1335,-0.1071 1.6668,0.0925l0.83,-10.1c0.0305,-0.5904 0.2676,-1.1512 0.6697,-1.5844c0.4022,-0.4333 0.9439,-0.7113 1.5303,-0.7856c0.3197,-0.0307 0.6423,0.0026 0.949,0.098c0.3067,0.0955 0.5912,0.2511 0.837,0.4578c0.2458,0.2067 0.448,0.4603 0.5946,0.7461c0.1466,0.2857 0.2348,0.5978 0.2594,0.9181l1.21,15.19c0.08,1.0165 -0.2312,2.0252 -0.87,2.82l-10.24,12.66c-0.5697,0.7087 -0.8802,1.5907 -0.88,2.5l0,2.6c0,0.2652 -0.1054,0.5196 -0.2929,0.7071c-0.1875,0.1875 -0.4419,0.2929 -0.7071,0.2929l-8,0c-0.2652,0 -0.5196,-0.1054 -0.7071,-0.2929c-0.1875,-0.1875 -0.2929,-0.4419 -0.2929,-0.7071l0,-9.12c-0.0001,-1.2109 0.4407,-2.3804 1.24,-3.29l8.46,-9.68z"/>
  <path id="svg_4" fill="#D8DDE1" d="m57.78,22.23c-0.0246,-0.3203 -0.1128,-0.6324 -0.2594,-0.9181c-0.1466,-0.2858 -0.3488,-0.5394 -0.5946,-0.7461c-0.2458,-0.2067 -0.5303,-0.3623 -0.837,-0.4578c-0.3067,-0.0954 -0.6293,-0.1287 -0.949,-0.098c-0.4642,0.0452 -0.9035,0.2311 -1.259,0.533c0.042,0.034 0.089,0.06 0.129,0.1c0.4467,0.4149 0.7214,0.9823 0.77,1.59l1.21,15.19c0.08,1.0165 -0.2312,2.0252 -0.87,2.82l-10.24,12.657c-0.5697,0.7087 -0.8802,1.5907 -0.88,2.5l0,2.6c0,0.2652 -0.1054,0.5196 -0.2929,0.7071c-0.1875,0.1875 -0.4419,0.2929 -0.7071,0.2929l3,0c0.2652,0 0.5196,-0.1054 0.7071,-0.2929c0.1875,-0.1875 0.2929,-0.4419 0.2929,-0.7071l0,-2.6c-0.0002,-0.9093 0.3103,-1.7913 0.88,-2.5l10.24,-12.66c0.6388,-0.7948 0.95,-1.8035 0.87,-2.82l-1.21,-15.19z"/>
  <path id="svg_5" fill="#F6F6F6" d="m22.9999,48.88l0,9.12c0,0.2652 -0.1053,0.5196 -0.2929,0.7071c-0.1875,0.1875 -0.4419,0.2929 -0.7071,0.2929l-8,0c-0.2652,0 -0.5196,-0.1054 -0.7071,-0.2929c-0.1875,-0.1875 -0.2929,-0.4419 -0.2929,-0.7071l0,-2.6c0.0002,-0.9093 -0.3103,-1.7913 -0.88,-2.5l-10.23999,-12.66c-0.63884,-0.7948 -0.95004,-1.8035 -0.87,-2.82l1.21,-15.19c0.02458,-0.3203 0.11277,-0.6324 0.2594,-0.9181c0.14663,-0.2858 0.34876,-0.5394 0.59457,-0.7461c0.24582,-0.2067 0.53038,-0.3623 0.83704,-0.4578c0.30667,-0.0954 0.62929,-0.1287 0.94899,-0.098c0.58613,0.075 1.12736,0.3533 1.52938,0.7864c0.40202,0.4331 0.63935,0.9935 0.67062,1.5836l0.83,10.1c0.53327,-0.1996 1.11471,-0.2319 1.66679,-0.0925c0.5521,0.1393 1.0486,0.4437 1.4232,0.8725l10.78,12.33c0.7994,0.9096 1.2401,2.0791 1.24,3.29z"/>
  <path id="svg_6" fill="#FFAC00" d="m36,12c-0.0039,0.5292 -0.2159,1.0357 -0.5901,1.4099c-0.3742,0.3742 -0.8807,0.5862 -1.4099,0.5901l-8,0c-0.5299,-0.0016 -1.0377,-0.2128 -1.4125,-0.5875c-0.3747,-0.3748 -0.5859,-0.8826 -0.5875,-1.4125c0.0039,-0.5292 0.2159,-1.0357 0.5901,-1.4099c0.3742,-0.3742 0.8807,-0.5862 1.4099,-0.5901l8,0c0.5299,0.0016 1.0377,0.2128 1.4125,0.5875c0.3747,0.3748 0.5859,0.8826 0.5875,1.4125z"/>
  <path id="svg_7" fill="#824f0c" d="m35.76,6.67998c-0.6022,1.18126 -1.3297,2.29433 -2.17,3.32l-7.18,0c-0.8402,-1.02567 -1.5678,-2.13874 -2.17,-3.32c-0.1599,-0.33391 -0.242,-0.69977 -0.24,-1.07c-0.0133,-0.66213 0.2302,-1.30371 0.6795,-1.79028c0.4493,-0.48656 1.0694,-0.78032 1.7305,-0.81972c0.3491,-0.63787 0.8713,-1.16407 1.5065,-1.51794c0.6352,-0.35387 1.3575,-0.52098 2.0835,-0.48206c1.0259,-0.03072 2.0257,0.32635 2.8,1c0.3236,0.28097 0.5916,0.62017 0.79,1c0.4193,0.02961 0.8251,0.16067 1.1825,0.38189c0.3574,0.22123 0.6557,0.52599 0.8692,0.88806c0.2135,0.36207 0.3359,0.77061 0.3565,1.19043c0.0206,0.41983 -0.0611,0.83838 -0.2382,1.21962z"/>
  <path id="svg_8" fill="#FFAC00" d="m33.59,3c-0.1985,-0.37982 -0.4664,-0.71903 -0.79,-1c-0.7743,-0.67365 -1.7741,-1.03071 -2.8,-1c-0.5109,-0.00157 -1.0183,0.08469 -1.5,0.255c0.4773,0.16211 0.9188,0.4151 1.3,0.745c0.3236,0.28097 0.5915,0.62018 0.79,1c0.4193,0.02961 0.8251,0.16067 1.1825,0.38189c0.3574,0.22123 0.6557,0.52599 0.8692,0.88807c0.2135,0.36207 0.3358,0.7706 0.3564,1.19043c0.0206,0.41982 -0.0611,0.83837 -0.2381,1.21961c-0.6022,1.18127 -1.3297,2.29433 -2.17,3.32l3,0c0.8403,-1.02567 1.5678,-2.13873 2.17,-3.32c0.177,-0.38124 0.2587,-0.79979 0.2381,-1.21961c-0.0206,-0.41983 -0.1429,-0.82836 -0.3564,-1.19043c-0.2135,-0.36208 -0.5118,-0.66684 -0.8692,-0.88807c-0.3574,-0.22122 -0.7632,-0.35228 -1.1825,-0.38189z"/>
  <path id="svg_9" fill="#824f0c" d="m47.0001,33c0.0091,0.9782 -0.0915,1.9543 -0.3,2.91l-5.66,6.47c-2.89,1.21 -6.69,1.62 -11.04,1.62c-4.35,0 -8.15,-0.41 -11.04,-1.62l-5.66,-6.47c-0.2085,-0.9557 -0.3092,-1.9318 -0.3,-2.91c0,-6.65 6,-16 13,-19l8,0c6,2 13,12.35 13,19z"/>
  <path id="svg_10" fill="#FFAC00" d="m34,14l-3,0c6,2 13,12.35 13,19c0.0092,0.9782 -0.0915,1.9543 -0.3,2.91l-5.66,6.47c-3.0574,1.1046 -6.2895,1.6467 -9.54,1.6c0.493,0.012 0.992,0.019 1.5,0.019c4.35,0 8.15,-0.41 11.04,-1.62l5.66,-6.47c0.2085,-0.9554 0.3091,-1.9312 0.3,-2.909c0,-6.65 -7,-17 -13,-19z"/>
  <path id="svg_11" fill="#1F1F1F" d="m57.6851,19.9c-0.4823,-0.4419 -1.0811,-0.7364 -1.7254,-0.8489c-0.6444,-0.1124 -1.3075,-0.038 -1.911,0.2144c-0.6034,0.2524 -1.122,0.6722 -1.4944,1.21c-0.3725,0.5377 -0.5832,1.1708 -0.6072,1.8245l-0.744,9c-0.5549,-0.0134 -1.1058,0.0962 -1.6133,0.3209c-0.5075,0.2248 -0.9588,0.5591 -1.3217,0.9791l-0.268,0.316c-0.05,-6.467 -5.922,-15.633 -11.739,-18.96c0.3024,-0.3419 0.5217,-0.749 0.641,-1.1896c0.1192,-0.4406 0.135,-0.9028 0.0463,-1.3506c-0.0888,-0.4477 -0.2797,-0.8689 -0.558,-1.2307c-0.2783,-0.3618 -0.6364,-0.65445 -1.0463,-0.85512c0.5006,-0.70609 0.9427,-1.45191 1.3219,-2.23c0.2561,-0.55376 0.3677,-1.16339 0.3244,-1.77195c-0.0434,-0.60857 -0.2403,-1.19621 -0.5724,-1.70805c-0.2461,-0.39969 -0.5714,-0.74474 -0.956,-1.01389c-0.3846,-0.26916 -0.8202,-0.45671 -1.28,-0.55111c-0.473,-0.66139 -1.1025,-1.19525 -1.8323,-1.55385c-0.7298,-0.35861 -1.5371,-0.53079 -2.3497,-0.50116c-0.8127,-0.02941 -1.6201,0.14308 -2.3499,0.50204c-0.7298,0.35897 -1.3592,0.89322 -1.832,1.55496c-0.4598,0.09441 -0.8954,0.28196 -1.28,0.55112c-0.3846,0.26915 -0.7099,0.6142 -0.9561,1.01389c-0.3322,0.51177 -0.5292,1.09943 -0.5725,1.70803c-0.0434,0.6086 0.0683,1.21826 0.3245,1.77197c0.3809,0.77757 0.8248,1.52272 1.327,2.228c-0.4158,0.20421 -0.778,0.50285 -1.0578,0.87202c-0.2798,0.3692 -0.4693,0.7988 -0.5535,1.2543c-0.0841,0.4555 -0.0605,0.9244 0.0689,1.3692c0.1294,0.4448 0.361,0.8532 0.6764,1.1925c-6.345,3.727 -11.746,12.17 -11.79,18.9l-0.273,-0.311c-0.3614,-0.4217 -0.8125,-0.7573 -1.3203,-0.9822c-0.50783,-0.2249 -1.05949,-0.3335 -1.61465,-0.3178l-0.743,-8.993c-0.0468,-0.8276 -0.38389,-1.6121 -0.95198,-2.2157c-0.5681,-0.6036 -1.33082,-0.9875 -2.15402,-1.0843c-0.47805,-0.0398 -0.95918,0.0189 -1.41362,0.1725c-0.45444,0.1536 -0.87252,0.3988 -1.22838,0.7205c-0.6304,0.5855 -1.01798,1.3863 -1.086,2.244l-1.204,15.192c-0.1021,1.2694 0.2858,2.5297 1.084,3.522l10.24295,12.664c0.4239,0.5316 0.6554,1.191 0.657,1.871l0,2.6c0,0.5304 0.2108,1.0391 0.5858,1.4142c0.3751,0.3751 0.8838,0.5858 1.4142,0.5858l8,0c0.5305,0 1.0392,-0.2107 1.4143,-0.5858c0.375,-0.3751 0.5857,-0.8838 0.5857,-1.4142l0,-9.121c-0.0001,-1.4534 -0.5278,-2.8573 -1.485,-3.951l-0.524,-0.6c2.6404,0.492 5.3236,0.7172 8.009,0.672c2.6855,0.0452 5.3687,-0.18 8.009,-0.672l-0.5239,0.6c-0.9572,1.0937 -1.4849,2.4976 -1.4851,3.951l0,9.121c0,0.5304 0.2108,1.0391 0.5858,1.4142c0.3751,0.3751 0.8838,0.5858 1.4142,0.5858l8,0c0.5305,0 1.0392,-0.2107 1.4143,-0.5858c0.375,-0.3751 0.5858,-0.8838 0.5858,-1.4142l0,-2.6c0.0006,-0.6793 0.2311,-1.3384 0.654,-1.87l10.246,-12.669c0.7961,-0.9917 1.1825,-2.2505 1.08,-3.518l-1.2,-15.192c-0.0693,-0.8613 -0.4602,-1.6649 -1.095,-2.251zm-31.6851,-6.9c-0.2652,0 -0.5195,-0.1054 -0.7071,-0.2929c-0.1875,-0.1876 -0.2929,-0.4419 -0.2929,-0.7071c0,-0.2652 0.1054,-0.5196 0.2929,-0.7071c0.1876,-0.1876 0.4419,-0.2929 0.7071,-0.2929l8,0c0.2653,0 0.5196,0.1053 0.7072,0.2929c0.1875,0.1875 0.2928,0.4419 0.2928,0.7071c0,0.2652 -0.1053,0.5195 -0.2928,0.7071c-0.1876,0.1875 -0.4419,0.2929 -0.7072,0.2929l-8,0zm-0.7299,-8.30002c0.1161,-0.20371 0.2819,-0.37472 0.4819,-0.49711c0.2001,-0.12239 0.4278,-0.19219 0.662,-0.20289c0.1901,-0.00262 0.3757,-0.05819 0.5359,-0.16047c0.1602,-0.10228 0.2888,-0.24722 0.3711,-0.41853c0.2702,-0.46259 0.6641,-0.84064 1.1374,-1.09167c0.4732,-0.25103 1.0071,-0.36508 1.5416,-0.32934c0.5325,-0.03539 1.0643,0.07756 1.5363,0.3263c0.4721,0.24875 0.8659,0.62354 1.1377,1.08271c0.0789,0.17594 0.207,0.32534 0.3688,0.43019c0.1618,0.10486 0.3504,0.1607 0.5432,0.16081c0.2343,0.0108 0.462,0.08063 0.662,0.20301c0.2,0.12239 0.3658,0.29334 0.482,0.49699c0.1508,0.2278 0.2413,0.4901 0.2632,0.76239c0.0218,0.27228 -0.0257,0.54567 -0.1382,0.79461c-0.4927,0.97016 -1.0806,1.889 -1.755,2.743l-6.2,0c-0.6742,-0.85562 -1.2618,-1.77615 -1.754,-2.748c-0.1117,-0.24821 -0.1589,-0.52061 -0.1372,-0.79192c0.0217,-0.27132 0.1116,-0.53277 0.2613,-0.76008zm-3.2701,53.30002l-8,0l0,-2.6c-0.002,-1.1371 -0.3898,-2.2399 -1.1,-3.128l-10.24295,-12.661c-0.47773,-0.595 -0.70928,-1.3505 -0.647,-2.111l1.2,-15.191c0.02693,-0.3589 0.18959,-0.694 0.45488,-0.9372c0.26528,-0.2432 0.61326,-0.3761 0.97312,-0.3718c0.044,0 0.089,0 0.133,0.006c0.35211,0.0528 0.67436,0.228 0.9101,0.4948c0.23574,0.2669 0.3699,0.6082 0.3789,0.9642l0.778,9.422c-0.47057,0.293 -0.87134,0.6854 -1.17421,1.1496c-0.30286,0.4643 -0.50048,0.9892 -0.57899,1.538c-0.07851,0.5487 -0.03602,1.108 0.12449,1.6386c0.16052,0.5305 0.43518,1.0196 0.80471,1.4328l6.23895,7.018c0.1777,0.1926 0.4238,0.3078 0.6854,0.3208c0.2617,0.013 0.518,-0.0771 0.7139,-0.2511c0.1958,-0.174 0.3156,-0.4179 0.3335,-0.6793c0.0179,-0.2614 -0.0674,-0.5193 -0.2378,-0.7184l-6.23895,-7.019c-0.19473,-0.2205 -0.3329,-0.4851 -0.4026,-0.7709c-0.0697,-0.2859 -0.06883,-0.5844 0.00252,-0.8698c0.07135,-0.2854 0.21105,-0.5492 0.40706,-0.7686c0.196,-0.2193 0.44242,-0.3878 0.71802,-0.4907c0.34422,-0.1292 0.71973,-0.1498 1.07603,-0.0592c0.3563,0.0907 0.6763,0.2882 0.91692,0.5662l10.783,12.32c0.6379,0.7296 0.9897,1.6658 0.99,2.635l0,9.121zm8,-15c-4.572,0 -7.991,-0.484 -10.458,-1.47l-5.3,-6.061c-0.1642,-0.8127 -0.2453,-1.6399 -0.242,-2.469c0,-6.506 5.919,-15.189 12.2281,-18l7.5799,0c5.502,1.947 12.192,11.79 12.192,18c0.0044,0.829 -0.0757,1.6562 -0.2389,2.469l-5.3001,6.061c-2.47,0.986 -5.889,1.47 -10.461,1.47zm27.3461,-3.393l-10.2461,12.672c-0.7089,0.886 -1.0966,1.9862 -1.1,3.121l0,2.6l-8,0l0,-9.121c0.0004,-0.9692 0.3522,-1.9054 0.9901,-2.635l10.783,-12.324c0.1688,-0.1948 0.3775,-0.3511 0.612,-0.4582c0.2344,-0.1071 0.4892,-0.1627 0.747,-0.1628c0.3497,-0.0004 0.6921,0.1003 0.986,0.29c0.2938,0.1897 0.5266,0.4602 0.6702,0.7792c0.1436,0.3189 0.1919,0.6725 0.1392,1.0183c-0.0527,0.3457 -0.2043,0.6689 -0.4364,0.9305l-6.2391,7.019c-0.09,0.0977 -0.1598,0.2123 -0.205,0.3373c-0.0453,0.1249 -0.0652,0.2576 -0.0586,0.3904c0.0066,0.1327 0.0396,0.2628 0.0971,0.3826c0.0574,0.1198 0.1382,0.227 0.2376,0.3152c0.0993,0.0883 0.2153,0.1559 0.341,0.1988c0.1258,0.0429 0.2588,0.0604 0.3914,0.0513c0.1326,-0.0091 0.262,-0.0445 0.3808,-0.1042c0.1187,-0.0597 0.2244,-0.1424 0.3108,-0.2434l6.239,-7.018c0.3695,-0.4132 0.6441,-0.9023 0.8047,-1.4328c0.1605,-0.5306 0.203,-1.0899 0.1244,-1.6386c-0.0785,-0.5488 -0.2761,-1.0737 -0.5789,-1.538c-0.3029,-0.4642 -0.7037,-0.8566 -1.1742,-1.1496l0.779,-9.433c0.0107,-0.3541 0.1456,-0.6932 0.381,-0.9579c0.2355,-0.2647 0.5565,-0.4382 0.907,-0.4901c0.188,-0.0194 0.378,-0.0009 0.5588,0.0543c0.1808,0.0552 0.3487,0.1461 0.4938,0.2673c0.1452,0.1211 0.2645,0.2701 0.3512,0.4382c0.0866,0.168 0.1387,0.3517 0.1532,0.5402l1.204,15.194c0.0624,0.7588 -0.168,1.5127 -0.644,2.107z"/>
  <path id="svg_12" fill="white" d="m30,25c0.5304,0 1.0391,0.2107 1.4142,0.5858c0.3751,0.3751 0.5858,0.8838 0.5858,1.4142c0,0.2652 0.1054,0.5196 0.2929,0.7071c0.1875,0.1875 0.4419,0.2929 0.7071,0.2929c0.2652,0 0.5196,-0.1054 0.7071,-0.2929c0.1875,-0.1875 0.2929,-0.4419 0.2929,-0.7071c-0.0033,-0.8842 -0.2995,-1.7424 -0.8423,-2.4404c-0.5428,-0.6981 -1.3016,-1.1966 -2.1577,-1.4176l0,-1.142c0,-0.2652 -0.1054,-0.5196 -0.2929,-0.7071c-0.1875,-0.1875 -0.4419,-0.2929 -0.7071,-0.2929c-0.2652,0 -0.5196,0.1054 -0.7071,0.2929c-0.1875,0.1875 -0.2929,0.4419 -0.2929,0.7071l0,1.142c-0.9416,0.2424 -1.7624,0.82 -2.3084,1.6246c-0.5459,0.8046 -0.7794,1.7808 -0.6566,2.7454c0.1227,0.9645 0.5933,1.8511 1.3233,2.4933c0.73,0.6422 1.6694,0.9959 2.6417,0.9947c0.3956,0 0.7822,0.1173 1.1111,0.3371c0.3289,0.2197 0.5853,0.5321 0.7367,0.8975c0.1513,0.3655 0.1909,0.7676 0.1138,1.1556c-0.0772,0.3879 -0.2677,0.7443 -0.5474,1.024c-0.2797,0.2797 -0.6361,0.4702 -1.024,0.5474c-0.388,0.0771 -0.7901,0.0375 -1.1556,-0.1138c-0.3654,-0.1514 -0.6778,-0.4078 -0.8975,-0.7367c-0.2198,-0.3289 -0.3371,-0.7155 -0.3371,-1.1111c0,-0.2652 -0.1054,-0.5196 -0.2929,-0.7071c-0.1875,-0.1875 -0.4419,-0.2929 -0.7071,-0.2929c-0.2652,0 -0.5196,0.1054 -0.7071,0.2929c-0.1875,0.1875 -0.2929,0.4419 -0.2929,0.7071c0.0033,0.8842 0.2995,1.7424 0.8423,2.4404c0.5428,0.6981 1.3016,1.1966 2.1577,1.4176l0,1.142c0,0.2652 0.1054,0.5196 0.2929,0.7071c0.1875,0.1875 0.4419,0.2929 0.7071,0.2929c0.2652,0 0.5196,-0.1054 0.7071,-0.2929c0.1875,-0.1875 0.2929,-0.4419 0.2929,-0.7071l0,-1.142c0.9416,-0.2424 1.7624,-0.82 2.3084,-1.6246c0.5459,-0.8046 0.7794,-1.7808 0.6566,-2.7454c-0.1227,-0.9645 -0.5933,-1.8511 -1.3233,-2.4933c-0.73,-0.6422 -1.6694,-0.9959 -2.6417,-0.9947c-0.5304,0 -1.0391,-0.2107 -1.4142,-0.5858c-0.3751,-0.3751 -0.5858,-0.8838 -0.5858,-1.4142c0,-0.5304 0.2107,-1.0391 0.5858,-1.4142c0.3751,-0.3751 0.8838,-0.5858 1.4142,-0.5858z"/>
 </g>
</svg>