<?xml version="1.0" encoding="utf-8"?>
<!-- Generator: Adobe Illustrator 27.4.0, SVG Export Plug-In . SVG Version: 6.00 Build 0)  -->
<svg version="1.1" id="Layer_1" xmlns="http://www.w3.org/2000/svg" xmlns:xlink="http://www.w3.org/1999/xlink" x="0px" y="0px"
	 viewBox="0 0 40 40" style="enable-background:new 0 0 40 40;" xml:space="preserve">
<style type="text/css">
	.st0{fill:#3f4891;}
</style>
<g id="archery" transform="translate(0.277 0.002)">
	<path id="Path_11593" class="st0" d="M27.1,5.7l0.4,0.7c0,0.1,0,0.2,0.1,0.2l0.3,0.7L28,7.7l0.3,0.8l0.1,0.4l0.2,0.8l0.1,0.4l0.1,1
		c0,0.1,0,0.2,0.1,0.3c0,0.6,0,0.6,0.7,0.6h1.2c0.1,0.1,0.2,0.1,0.3,0.2l0.6,0.4c-0.4,0.3-1,0.5-1.5,0.5h-0.4c-1-0.1-1-0.1-1,0.9
		v0.1l-0.1,0.4c-0.1,0.4-0.1,0.8-0.2,1.3c-0.1,0.2-0.1,0.3-0.1,0.5l-0.5,1.5c-0.1,0.2-0.2,0.4-0.2,0.6c-0.4,0.7-0.7,1.5-1.1,2.2
		l-0.6,1l-1.8,2c-0.1,0.1-0.1,0.1-0.2,0.2c-0.2,0.4-0.4,0.7-0.9,0.6h-0.4c0-0.5,0.2-0.9,0.5-1.3c0.1-0.1,0.2-0.2,0-0.4L23,22.5
		l-0.4-0.6c0-0.1-0.1-0.2-0.2-0.2c-0.1-0.2-0.3-0.4-0.4-0.6c0-0.1-0.1-0.2-0.2-0.3c-0.1-0.2-0.3-0.4-0.4-0.6c0-0.1-0.1-0.2-0.2-0.3
		c-0.1-0.2-0.2-0.4-0.4-0.5c0-0.1-0.1-0.2-0.2-0.3l-0.5-0.6L20,18.4l-0.9-1.2v6.5c0,0.1,0,0.3,0,0.4c0,0.3,0,0.7,0,1v1.4
		c0,0.1,0,0.3,0,0.5c0,0.3,0,0.7,0,1v1.4c0,0.2,0.1,0.3,0.2,0.4v2.4c0,0.1,0,0.3,0,0.5v2.5c0,0.1,0,0.3,0,0.4v2.5l-0.2,0.4
		c-0.4,0.3-1,0.4-1.5,0.2c-0.4,0-0.5-0.4-0.5-0.8v-0.4l-0.1-1v-0.4c0-0.3,0-0.7-0.1-1v-0.4l-0.1-1v-0.4c0-0.3,0-0.7-0.1-1v-0.4
		l-0.1-1c-0.1-1.6-0.2-3.1-0.5-4.7l-0.4,5.4l0,1.4v0.5c-0.1,0.4-0.1,0.8-0.1,1.1V35c-0.1,0.4-0.1,0.8-0.1,1.2c0,0.1-0.1,0.3,0,0.4
		c-0.1,0.4-0.1,0.8-0.1,1.2l-0.1,0.4c-0.1,0.4-0.5,0.6-0.9,0.5h-0.3c-0.8-0.1-1-0.2-1-1.1c0-0.1,0-0.3,0-0.5c0-0.4,0-0.7,0-1.1v-1.5
		c0-0.1,0-0.3,0-0.4v-1.5v-1.1v-1.9c0-0.4,0.1-0.8,0-1.1v-1.6c0-0.1,0-0.2,0-0.4c0.1-0.4,0.1-0.8,0-1.2V24c0-0.1,0-0.2,0-0.4
		c0.1-0.4,0.1-0.8,0-1.2v-5.6c0-0.1-0.1-0.3-0.2-0.3c-0.1-0.1-0.2-0.2-0.3-0.2c-0.1-0.2-0.3-0.3-0.5-0.4c-0.1-0.1-0.2-0.2-0.3-0.2
		c-0.2-0.2-0.4-0.3-0.6-0.4c-0.1-0.1-0.1-0.1-0.2-0.2c-0.2-0.2-0.5-0.4-0.7-0.5l-0.2-0.2l-0.7-0.5l-0.2-0.1
		c-0.2-0.2-0.4-0.3-0.6-0.5c-0.1-0.1-0.2-0.2-0.3-0.2l-0.5-0.4l-0.1-0.2c-0.2-0.3-0.2-0.6-0.2-0.9L7.9,11l0.3-0.3l0.6-0.2l1,0.1h0.4
		l1,0.1h0.4c0.3,0.1,0.6,0.1,1,0.1c0.7,0.1,0.7,0.1,0.8-0.6c0-0.1,0-0.1,0-0.2c0.4-1.1,1.3-1.9,2.4-2h0.4c0.3,0,0.7,0,1,0.1l0.3,0.1
		l0.7,0.4c0.2,0,0.2,0.4,0.4,0.2c0.6-0.7,1.1-1.5,1.7-2.2l3-3.9c0.1-0.1,0.1-0.2,0-0.3L23.2,2c-0.1-0.2-0.2-0.5-0.3-0.7
		C22.8,1.1,22.8,1,23.1,1c0.5,0,0.9,0.1,1.1,0.6c0.1,0.1,0.2,0.2,0.3,0.3c0.1,0.1,0.1,0.2,0.2,0.3c0.1,0.2,0.3,0.4,0.5,0.5l0.2,0.2
		l0.5,0.6c0,0.1,0.1,0.2,0.2,0.2l0.4,0.6l0.3,0.3l0.4,0.7C27.1,5.6,27.1,5.6,27.1,5.7L27.1,5.7L27.1,5.7z M27.8,11.1
		c0-0.1,0-0.3-0.1-0.4c0-0.3-0.1-0.6-0.2-0.9c0-0.1,0-0.2-0.1-0.3c0-0.3-0.1-0.6-0.2-0.9l-0.1-0.3C27,8,26.9,7.7,26.8,7.5
		c0-0.1,0-0.2-0.1-0.2c-0.1-0.3-0.2-0.6-0.4-0.8c0-0.1-0.1-0.2-0.2-0.3C26.2,6,26,5.7,25.9,5.5c0-0.1-0.1-0.2-0.1-0.2
		c-0.1-0.2-0.3-0.5-0.4-0.7c0-0.1-0.1-0.2-0.2-0.3C25,4.1,24.8,4,24.7,3.8c0,0,0-0.1-0.1-0.1c-0.5-0.6-0.5-0.6-1,0l-3,3.8
		c-0.4,0.6-0.9,1.1-1.3,1.6c-0.3,0.2-0.3,0.6-0.1,1v0.4c0,0.4-0.1,0.8-0.2,1.2c-0.1,0.2,0.1,0.1,0.2,0.1H27C28,12.1,28,12,27.8,11.1
		L27.8,11.1z M20.8,17.6c0,0.1,0.1,0.1,0.1,0.2c0.1,0.3,0.3,0.5,0.5,0.7c0,0.1,0.1,0.2,0.2,0.2c0.1,0.2,0.3,0.4,0.4,0.6
		c0,0.1,0.1,0.2,0.2,0.3c0.1,0.2,0.2,0.4,0.4,0.5l0.2,0.2l0.5,0.7c0,0.1,0.1,0.1,0.1,0.2l0.5,0.7c0.1,0.1,0.1,0.5,0.4,0.2
		c0.5-0.5,1-1.1,1.3-1.7c0.5-0.7,0.9-1.5,1.2-2.3l0.2-0.7c0.3-1,0.4-0.8-0.6-0.8l0,0c-0.1,0-0.2,0-0.3,0c-0.4,0-0.8,0-1.2,0
		c-0.1,0-0.2,0-0.3,0c-0.4,0-0.8,0-1.2,0c-0.1,0-0.2,0-0.3,0c-0.4,0-0.8,0-1.2,0c-0.1,0-0.2,0-0.3,0H20L20.8,17.6z M18.4,12.9
		c-0.4-0.1-0.5,0.3-0.8,0.4l0.3,0.4c0.2,0.2,0.2,0.6,0.6,0.5h7.8c0.2,0,0.4,0,0.6,0c0.3-0.1,0.8,0.2,1-0.1C28,13.8,28,13.4,28,13
		l0,0c0,0,0-0.1-0.1-0.1L18.4,12.9L18.4,12.9z M16.9,14.2c-0.2-0.3-0.5-0.6-0.9-0.6c-0.6-0.1-1.2,0.1-1.8,0c-0.2,0-0.5-0.1-0.7-0.1
		c0.3,0.3,0.6,0.7,1,0.7C15.3,14.2,16.1,14.2,16.9,14.2L16.9,14.2z"/>
	<path id="Path_11594" class="st0" d="M27.9,13L27.9,13C27.9,12.9,27.9,12.9,27.9,13z"/>
</g>
</svg>
