<?xml version="1.0" encoding="utf-8"?>
<!-- Generator: Adobe Illustrator 27.4.0, SVG Export Plug-In . SVG Version: 6.00 Build 0)  -->
<svg version="1.1" id="Layer_1" xmlns="http://www.w3.org/2000/svg" xmlns:xlink="http://www.w3.org/1999/xlink" x="0px" y="0px"
	 viewBox="0 0 40 40" style="enable-background:new 0 0 40 40;" xml:space="preserve">
<style type="text/css">
	.st0{fill:#3f4891;}
</style>
<g id="Athletics" transform="translate(-0.004 0.009)">
	<path id="Path_11593" class="st0" d="M24.1,12.8l8.3,10.4c1.1,1.4,2.2,2.8,3.4,4.2c0.1,0.1,0.2,0.3,0.2,0.5h-2.2
		c-0.2,0-0.3-0.2-0.4-0.3l-9-12.6c-0.2-0.2-0.3-0.5-0.2-0.8C24.1,13.8,24.1,13.3,24.1,12.8L24.1,12.8z"/>
	<path id="Path_11594" class="st0" d="M24.1,15l3.5,4.9c1.8,2.5,3.5,5,5.3,7.4c0.1,0.1,0.3,0.3,0.2,0.4c-0.1,0.2-0.3,0.1-0.5,0.1
		c-0.6,0.1-1.2,0.1-1.8-0.1c-0.5-0.3-0.7-1-1.1-1.5c-2-3.1-4-6.2-6-9.4c-0.3-0.3-0.3-0.7-0.1-1C23.8,15.6,24,15.3,24.1,15z"/>
	<path id="Path_11595" class="st0" d="M23.3,16.7l6.9,11.1L27.9,28c-0.2,0-0.3-0.2-0.4-0.3c-1.7-3.1-3.4-6.3-5.1-9.4
		c-0.1-0.2-0.1-0.4,0.1-0.6C22.8,17.4,23,17.1,23.3,16.7z"/>
	<path id="Path_11596" class="st0" d="M27.3,28c-0.8,0-1.5,0-2.2,0c-0.2,0-0.4-0.1-0.4-0.3c-1.2-2.7-2.5-5.4-3.7-8.1
		c-0.1-0.2-0.2-0.3,0-0.5c0.4-0.3,0.7-0.6,1.1-0.9C23.8,21.4,25.5,24.6,27.3,28z"/>
	<path id="Path_11597" class="st0" d="M24.3,28c-0.8,0-1.6,0-2.3,0c-0.3,0-0.3-0.2-0.3-0.3c-0.9-2.3-1.7-4.6-2.6-7
		c-0.1-0.1-0.1-0.3,0-0.4c0.4-0.3,0.8-0.6,1.2-0.8c0.3-0.1,0.3,0.2,0.3,0.3c0.8,1.8,1.6,3.6,2.4,5.4C23.5,26.1,23.9,27,24.3,28z"/>
	<path id="Path_11598" class="st0" d="M20.1,28.1c-1.3,0-1.3,0-1.6-1.2c-0.5-1.6-0.9-3.3-1.4-4.9c-0.1-0.3,0-0.5,0.3-0.6
		c0.2-0.1,0.3-0.1,0.5-0.2c0.9-0.4,0.9-0.4,1.2,0.4c0.7,2,1.4,4,2.1,6c0.2,0.5,0.1,0.6-0.4,0.5C20.6,28,20.4,28,20.1,28.1L20.1,28.1
		z"/>
	<path id="Path_11599" class="st0" d="M17.1,28.1c-1.2,0.1-1.2,0.1-1.4-1.1c-0.3-1.4-0.5-2.8-0.8-4.2c-0.1-0.3,0-0.4,0.3-0.5
		c0.4-0.1,0.8-0.3,1.2-0.5c0.3-0.2,0.4,0,0.4,0.2c0.5,1.9,1,3.7,1.5,5.6c0.1,0.3,0,0.5-0.4,0.4C17.7,28.1,17.4,28.1,17.1,28.1z"/>
	<path id="Path_11600" class="st0" d="M0.8,23.8c0-0.8,0-0.8,0.8-0.8c2.4,0,4.8-0.3,7.2-0.7c0.2,0,0.6-0.4,0.7,0.1
		c0.2,0.9,0.1,1.2-0.5,1.4c-2.2,0.4-4.5,0.7-6.8,0.8c-0.2,0-0.4,0-0.6,0C0.8,24.7,0.8,24.7,0.8,23.8z"/>
	<path id="Path_11601" class="st0" d="M14.2,28.2c-1.3,0-1.3,0-1.4-1.2c-0.1-1.1-0.2-2.1-0.3-3.2c-0.1-0.4,0-0.8,0.5-0.8l0,0
		c0.5-0.1,1-0.6,1.3-0.3c0.3,0.2,0.2,0.9,0.3,1.4c0.2,1.2,0.4,2.3,0.6,3.5c0.1,0.6,0.1,0.7-0.5,0.7L14.2,28.2z"/>
	<path id="Path_11602" class="st0" d="M1.6,22.8L1.6,22.8c-0.3,0-0.7,0.1-0.8-0.1c-0.1-0.4-0.1-0.7-0.1-1.1c0-0.2,0.2-0.2,0.3-0.2
		c2.7,0,5.4-0.3,8-0.9c0.3-0.1,0.3,0,0.3,0.3c0.1,1,0.1,1-0.9,1.2C6.3,22.5,4,22.7,1.6,22.8z"/>
	<path id="Path_11603" class="st0" d="M11.2,28.2c-1.2,0-1.2,0-1.2-1.2c0-0.9,0-1.8-0.1-2.7c0-0.3,0.1-0.4,0.3-0.4
		c0.5-0.1,0.9-0.2,1.4-0.4c0.3-0.1,0.4,0,0.4,0.3c0.1,1,0.2,2.1,0.3,3.1c0,0.1,0,0.1,0,0.2c0,0.4,0.3,0.9,0,1.2
		C12.1,28.3,11.6,28.2,11.2,28.2z"/>
	<path id="Path_11604" class="st0" d="M0.8,20.6C0.7,20.1,0.9,20,1.4,20C4,20,6.5,19.8,9,19.2c0.4-0.1,0.5,0,0.5,0.4
		c0.1,0.6-0.2,0.8-0.8,0.9c-2.4,0.4-4.8,0.7-7.3,0.8C1,21.2,0.6,21.2,0.8,20.6z"/>
	<path id="Path_11605" class="st0" d="M2,19.8H1.5c-0.7,0-0.9-0.2-0.7-0.9c0.1-0.3,0.3-0.2,0.4-0.2c1.8,0,3.6-0.1,5.4-0.3
		c0.8-0.1,1.5-0.3,2.3-0.4c0.2,0,0.5-0.3,0.5,0.2c0,0.3,0.2,0.8-0.4,0.9c-1.1,0.2-2.3,0.4-3.4,0.6C4.4,19.7,3.2,19.7,2,19.8L2,19.8z
		"/>
	<path id="Path_11606" class="st0" d="M10,30.5v-0.7c0-1.1,0-1.1,1.1-1.1c0.4-0.1,0.9-0.1,1.3,0.1c0.4,0.2,0.2,0.8,0.2,1.2
		c0.1,0.7,0.1,1.3,0.2,2c0,0.3-0.1,0.4-0.4,0.4c-0.7,0-1.3,0-2,0c-0.3,0-0.4-0.1-0.4-0.4C10,31.5,10,31,10,30.5L10,30.5z M11.1,30.4
		L11.1,30.4v0.4c0,0.2,0.1,0.4,0.4,0.4c0.3,0,0.3-0.2,0.3-0.4s-0.1-0.5-0.1-0.8c0-0.2,0-0.4-0.2-0.4s-0.3,0.2-0.4,0.4
		C11.1,30.1,11.1,30.3,11.1,30.4L11.1,30.4z"/>
	<path id="Path_11607" class="st0" d="M27.9,28.3h2.3c0.1,0,0.3,0.1,0.3,0.2l2.2,3.6H30c-0.1,0-0.2-0.1-0.3-0.2L27.9,28.3z
		 M29.9,29.2c-0.1,0-0.3,0-0.4,0s-0.3,0-0.3,0.1s0.1,0.2,0.2,0.3h0.1c0.6-0.1,0.7,0.2,0.6,0.7c0,0.1,0,0.2,0,0.2
		c0,0.3,0.2,0.3,0.4,0.3c0.3,0,0.2-0.2,0.2-0.4c0-0.2-0.1-0.3-0.1-0.5C30.7,29.2,30.7,29.2,29.9,29.2L29.9,29.2z"/>
	<path id="Path_11608" class="st0" d="M18,32.2c-1.4,0-1.4,0-1.6-1.3c-0.1-0.7-0.2-1.3-0.4-2c-0.1-0.3,0-0.4,0.3-0.4
		c0.6,0,1.2,0,1.8,0c0.2,0,0.4,0,0.4,0.3c0.3,1,0.6,2.1,0.8,3.1c0.1,0.3,0,0.4-0.3,0.4C18.8,32.2,18.4,32.2,18,32.2z M17.9,30.6
		c-0.2,0.2-0.4,0.1-0.6,0.1c-0.1,0-0.1,0-0.2,0.1c0,0.1,0,0.1,0,0.2c0.3,0.2,0.8,0.3,1.2,0.1c0.3-0.2,0.2-0.5,0-0.7c0,0,0-0.1,0-0.2
		c0-0.4-0.3-0.7-0.7-0.7c-0.1,0-0.2,0-0.2,0c-0.2,0-0.4,0.1-0.4,0.3c0,0.3,0.3,0.2,0.4,0.1c0.2,0,0.4,0.1,0.3,0.1
		C17.2,30.3,17.7,30.4,17.9,30.6L17.9,30.6z"/>
	<path id="Path_11609" class="st0" d="M14.3,28.6c1.3,0,1.3,0,1.5,1.2c0.1,0.7,0.2,1.4,0.4,2c0.1,0.3,0.1,0.4-0.3,0.4
		c-0.7,0-1.4,0-2.1,0.1c-0.2,0-0.4-0.1-0.4-0.3c-0.1-1-0.2-2-0.3-3.1c0-0.3,0.1-0.4,0.4-0.4S14,28.6,14.3,28.6z M14.6,30.7
		c0.2-0.1,0.3-0.2,0.4-0.3c0.4-0.3,0.3-0.7-0.2-0.8c-0.3-0.1-0.6-0.1-0.8,0c-0.1,0-0.2,0.1-0.2,0.2s0.1,0.1,0.2,0.1
		c0.2,0,0.4-0.3,0.5,0s-0.3,0.3-0.4,0.4c-0.1,0.1-0.1,0.1-0.2,0.2c-0.1,0.1-0.1,0.2-0.1,0.4c0.1,0.2,0.2,0.1,0.3,0.1
		c0.3,0,0.6,0,0.9,0c0.1,0,0.3,0,0.3-0.2s-0.2-0.2-0.3-0.2L14.6,30.7L14.6,30.7z"/>
	<path id="Path_11610" class="st0" d="M22.8,32.2c-0.9,0-1.7,0-2.6,0c-0.2,0-0.3-0.1-0.3-0.3l0,0c-0.3-1.1-0.6-2.2-0.9-3.2
		c-0.1-0.3,0-0.3,0.2-0.3s0.4,0,0.6,0c0.5,0,1.2-0.2,1.6,0.1c0.4,0.3,0.4,1,0.6,1.5C22.3,30.7,22.5,31.4,22.8,32.2z M21.7,30.6
		c0-0.3-0.4-0.4-0.4-0.7c0-0.4-0.2-0.7-0.7-0.5c-0.3,0.3-0.5,0.7-0.6,1.1c0.1,0.2,0.2,0.2,0.4,0.2c0.2,0,0.5-0.1,0.6,0.2
		c0.1,0.2,0.3,0.1,0.4,0.1C21.7,31,21.6,30.8,21.7,30.6L21.7,30.6z"/>
	<path id="Path_11611" class="st0" d="M2.8,18.5c-0.6,0-1.1,0-1.6,0c-0.3,0-0.4,0-0.4-0.3s-0.2-0.7,0.4-0.7c0.9,0,1.9,0,2.8-0.1
		c1.7-0.1,3.4-0.3,5-0.7c0.2,0,0.4-0.2,0.5,0.1c0,0.3,0.3,0.7-0.3,0.8c-1.3,0.3-2.6,0.5-3.9,0.7C4.4,18.4,3.6,18.4,2.8,18.5z"/>
	<path id="Path_11612" class="st0" d="M24.7,32.1c-1.3,0-1.3,0-1.8-1.2c-0.3-0.7-0.5-1.4-0.8-2.1c-0.1-0.3-0.1-0.4,0.3-0.4
		c0.6,0,1.2,0,1.8,0c0.2,0,0.4,0.1,0.5,0.3c0.4,1,0.9,2,1.3,3c0.2,0.3,0.1,0.5-0.3,0.4C25.3,32.1,25,32.1,24.7,32.1z M23.7,29.9
		c0.1-0.1,0.2-0.1,0.3-0.1c0.2,0,0.4,0,0.4-0.3s-0.2-0.2-0.4-0.2c-0.2,0-0.4,0-0.7,0c-0.2,0-0.3,0.1-0.2,0.3
		c0.1,0.4,0.3,0.8,0.8,0.6c0.1-0.1,0.3,0,0.3,0.1c0,0,0,0,0,0.1c0,0.2-0.1,0.1-0.2,0.2c-0.2,0-0.5-0.2-0.5,0.1
		c0,0.3,0.3,0.2,0.5,0.3c0.1,0,0.3,0,0.4,0c0.4-0.1,0.5-0.4,0.3-0.7C24.5,29.9,24.1,29.8,23.7,29.9L23.7,29.9z"/>
	<path id="Path_11613" class="st0" d="M33.9,28.2c0.8,0,1.6,0,2.3,0c0.2,0,0.4,0.1,0.5,0.3c0.8,1,1.6,2,2.5,3.1
		c0.1,0.1,0.2,0.2,0.1,0.3c0,0.2-0.2,0.1-0.3,0.1s-0.3,0-0.4,0c-1.3,0.3-2.6-0.3-3-1.6C35,29.6,34.5,28.9,33.9,28.2z M36.4,30.4
		c0,0-0.2-0.1-0.2,0.1s0.1,0.2,0.3,0.2c0.3,0.1,0.5,0.1,0.8,0.1s0.4-0.2,0.3-0.5c-0.2-0.5-0.6-0.8-1.1-1c-0.3-0.2-0.7-0.2-1,0
		c-0.1,0.1-0.1,0.2-0.1,0.3c0.2,0.3,0.5,0.5,0.8,0.6c0.1,0,0.1,0,0.2,0c0.1,0,0.4-0.2,0.4,0.1C36.9,30.5,36.7,30.3,36.4,30.4
		L36.4,30.4z"/>
	<path id="Path_11614" class="st0" d="M29.5,32.1c-0.9,0-1.7,0-2.5,0c-0.2,0-0.5-0.1-0.5-0.4c-0.4-1-0.9-1.9-1.3-2.9
		c-0.2-0.3-0.1-0.5,0.3-0.5c0.3,0,0.6,0,0.8,0c1-0.2,1.5,0.2,1.9,1.1S29,31.1,29.5,32.1z M26.9,29.3c-0.4,0-0.7,0-0.7,0.5
		c0.1,0.7,0.7,1.2,1.4,1.2c0.2,0,0.4,0,0.5-0.3c0.1-0.2,0-0.5-0.2-0.6c-0.1-0.1-0.4-0.2-0.4-0.3C27.6,29.2,27.1,29.4,26.9,29.3
		L26.9,29.3z"/>
	<path id="Path_11615" class="st0" d="M31,28.3c0.7-0.1,1.5-0.1,2.3-0.1c0.1,0,0.3,0,0.3,0.2c0.8,1.2,1.6,2.3,2.5,3.6h-2.6
		c-0.2,0-0.3-0.1-0.4-0.2C32.4,30.6,31.7,29.5,31,28.3z M33.9,30.9c0.2-0.1,0.5,0,0.6-0.3c0.1-0.2-0.1-0.4-0.3-0.5
		c-0.1,0-0.2-0.1-0.2-0.2c-0.1-0.6-0.6-0.7-1.1-0.7c-0.2,0-0.4-0.1-0.6,0.2c-0.1,0.2,0.1,0.4,0.2,0.5c0.1,0.1,0.1,0.1,0.2,0.2
		C32.8,30.8,33.4,30.8,33.9,30.9L33.9,30.9z"/>
	<path id="Path_11616" class="st0" d="M2.9,16.4c2,0,4.1-0.3,6-0.8c0.2,0,0.5-0.3,0.5,0.1c0,0.3,0.1,0.7-0.4,0.8c-1,0.2-2,0.4-3,0.6
		c-1.6,0.2-3.2,0.3-4.9,0.2c-0.4,0-0.5-0.1-0.5-0.5s0.2-0.5,0.5-0.4C1.8,16.4,2.4,16.4,2.9,16.4z"/>
	<path id="Path_11617" class="st0" d="M22.7,12.9c0.1-0.1,0-0.2-0.1-0.3c-1-1.4-2.1-2.8-3.1-4.3c-0.1-0.1-0.1-0.2-0.2-0.1l0,0
		c0.1-0.2-0.2-0.3-0.2-0.5c0.5-0.2,1,0,1.3,0.5c0.7,1,1.6,2,2.4,3c0.7,0.9,1.1,2,1,3.1c-0.3-0.4-0.5-0.7-0.7-1
		C23,13.1,23,12.8,22.7,12.9L22.7,12.9z"/>
	<path id="Path_11618" class="st0" d="M9.4,14.5c0.1,0.8,0.1,0.8-0.7,1c-2.5,0.6-5,0.9-7.5,0.8c-0.3,0-0.4-0.1-0.4-0.4
		c0-0.3,0-0.4,0.4-0.4c2,0.1,4-0.1,6-0.4C7.9,14.9,8.6,14.7,9.4,14.5z"/>
	<path id="Path_11619" class="st0" d="M19.3,8.2c0.6,0.9,1.2,1.8,1.9,2.7c0.7,0.9,1,2.1,0.8,3.2c-1.4-2.2-2.7-4.3-4.1-6.4
		C18.4,7.5,19,7.7,19.3,8.2L19.3,8.2z"/>
	<path id="Path_11620" class="st0" d="M20.1,14l-3.4-6.2c0.8-0.2,0.9-0.2,1.3,0.4c0.6,1,1.2,2,1.9,3C20.4,12,20.5,13.1,20.1,14z"/>
	<path id="Path_11621" class="st0" d="M18.3,13.9c-1-2.1-1.9-4.2-2.8-6.2c0.5-0.2,1.1,0,1.3,0.5c0,0.1,0,0.1,0.1,0.2
		c0.4,0.9,1,1.9,1.5,2.8C18.8,12,18.8,13,18.3,13.9z"/>
	<path id="Path_11622" class="st0" d="M16.5,13.7c-0.7-2-1.5-4-2.2-6c0.9-0.1,0.9-0.1,1.3,0.6c0.4,0.9,0.8,1.8,1.2,2.7
		C17.2,11.9,17.1,12.9,16.5,13.7z"/>
	<path id="Path_11623" class="st0" d="M14.8,13.5c-0.5-1.9-1.1-3.7-1.6-5.6c0-0.1-0.1-0.3,0.1-0.3c0.3,0,0.7-0.2,0.8,0.2
		c0.5,1.3,1,2.6,1.3,3.9C15.5,12.4,15.3,13.1,14.8,13.5z"/>
	<path id="Path_11624" class="st0" d="M9.4,13.4c0.2,0.6-0.1,0.9-0.7,1.1C7,15,5.3,15.3,3.6,15.3c-0.8,0-1.6,0-2.4,0
		c-0.3,0-0.4,0-0.4-0.4s0.2-0.3,0.4-0.3c0.8,0,1.6,0,2.4,0c1.9,0,3.7-0.3,5.4-1C9.1,13.5,9.2,13.4,9.4,13.4z"/>
	<path id="Path_11625" class="st0" d="M13.1,13.4c-0.3-1-0.5-1.9-0.6-2.9c-0.2-0.8-0.3-1.5-0.4-2.3c0-0.2-0.2-0.5,0.1-0.5
		s0.7-0.2,0.8,0.2c0.3,1.1,0.6,2.3,0.9,3.5c0.1,0.6-0.1,1.2-0.4,1.7l0,0c-0.1,0-0.2,0.1-0.1,0.2l0,0C13.2,13.2,13.2,13.3,13.1,13.4
		L13.1,13.4z"/>
	<path id="Path_11626" class="st0" d="M9.4,12.1c0.1,1.1,0.1,1.1-0.9,1.5c-1.6,0.6-3.3,0.9-5,0.9c-0.8,0-1.6,0-2.4,0
		c-0.3,0-0.4-0.1-0.4-0.3c0-0.3,0.1-0.3,0.4-0.3c1.5,0,3.1,0,4.6-0.2C7.1,13.5,8.3,12.9,9.4,12.1L9.4,12.1z"/>
	<path id="Path_11627" class="st0" d="M11.4,13.2c-0.2-1.8-0.4-3.4-0.5-5.1c0-0.2-0.2-0.4,0.2-0.4c0.3,0,0.7-0.2,0.8,0.2
		c0.2,1.2,0.5,2.4,0.6,3.6C12.5,12.2,12,12.7,11.4,13.2z"/>
	<path id="Path_11628" class="st0" d="M10.7,12.4c-0.4,0-0.5,0.5-0.9,0.5c-0.1-0.6-0.1-1.2-0.1-1.7c0-1,0-2.1,0-3.1
		c0-0.3,0.1-0.4,0.3-0.4s0.6-0.2,0.7,0.3c0.1,1.2,0.2,2.3,0.3,3.5C11,11.8,10.6,12,10.7,12.4L10.7,12.4z"/>
	<path id="Path_11629" class="st0" d="M15.7,14.8c-0.2-0.1-0.3,0.2-0.5,0.2c0-0.1-0.1-0.2-0.1-0.3c-0.3-0.5-0.2-1.1,0.2-1.5
		c0.2-0.3,0.4-0.6,0.5-0.9c0.2,0.6,0.4,1.2,0.5,1.8c0,0.2,0.3,0.5,0.4,0.8c0.2,0.3,0.1,0.8-0.2,1c-0.1,0-0.1,0.1-0.2,0.1
		c-0.2,0.1-0.5,0.5-0.7,0.4c-0.3-0.2-0.3-0.6-0.4-1C15.2,15.1,15.7,15.1,15.7,14.8z"/>
	<path id="Path_11630" class="st0" d="M9.9,22.6c-0.2-0.5,0.1-0.7,0.6-0.7c0.1,0,0.2-0.1,0.3-0.1c1-0.2,1-0.2,1.1,0.8
		c0.1,0.4,0,0.5-0.4,0.6s-0.8,0.2-1.1,0.3c-0.4,0.1-0.6,0-0.5-0.5C9.9,22.9,9.9,22.8,9.9,22.6z"/>
	<path id="Path_11631" class="st0" d="M14.1,20.8c0.4,1.5,0.4,1.5-1,1.9l-0.7,0.2v-0.1c-0.2-1.4-0.2-1.4,1.1-1.8
		C13.7,21,13.9,20.9,14.1,20.8z"/>
	<path id="Path_11632" class="st0" d="M14.8,22.1c-0.4-1.5-0.3-1.6,1.2-2.1c0.2-0.1,0.3,0,0.4,0.2c0.4,1.1,0.4,1.2-0.7,1.6
		C15.3,21.9,15.1,22,14.8,22.1z"/>
	<path id="Path_11633" class="st0" d="M22.7,12.9c0.1,0.4,0.4,0.8,0.7,1.1c0.4,0.4,0.5,1,0.2,1.5c-0.1,0.2-0.2,0.4-0.3,0.7
		c-0.4-0.6-0.7-1-1-1.5c-0.1-0.1-0.1-0.3,0-0.4c0.1-0.6,0.1-1.1,0-1.7C22.5,12.6,22.5,12.9,22.7,12.9L22.7,12.9z"/>
	<path id="Path_11634" class="st0" d="M16.6,20c0-0.1,0-0.2,0.1-0.3c0.4-0.2,0.8-0.4,1.2-0.7c0,0,0.1,0,0.2,0
		c0.2,0.4,0.4,0.8,0.5,1.2c0.1,0.3-0.1,0.3-0.3,0.4c-0.1,0.1-0.2,0.1-0.3,0.2C16.9,21.3,16.6,21.1,16.6,20z"/>
	<path id="Path_11635" class="st0" d="M21.2,15.9c-0.3-0.5-0.5-0.9-0.7-1.3c-0.1-0.1-0.1-0.3,0-0.4c0.2-0.5,0.3-1.1,0.3-1.7
		c0.5,0.6,0.8,1.3,1.2,2C22,14.9,21.5,15.4,21.2,15.9z"/>
	<path id="Path_11636" class="st0" d="M19.7,17.8c0.1,0,0.2,0.1,0.2,0.2c0.6,1,0.6,1.2-0.4,1.9c-0.4,0.3-0.6,0.3-0.8-0.2
		c-0.3-0.9-0.3-0.9,0.4-1.4C19.3,18.1,19.5,18,19.7,17.8z"/>
	<path id="Path_11637" class="st0" d="M9.9,21c-0.1-0.4,0.1-0.6,0.6-0.7c0.3,0,0.5-0.1,0.8-0.2c0.4-0.2,0.5,0,0.5,0.4
		c0,1,0.2,0.8-0.7,1c-0.1,0-0.3,0.1-0.4,0.1C9.9,21.8,9.9,21.8,9.9,21z"/>
	<path id="Path_11638" class="st0" d="M22.1,14.8c0.3,0.5,0.6,0.9,0.9,1.4c0.2,0.4-0.1,0.6-0.2,0.8c-0.6,0.8-0.5,0.8-1-0.1
		c-0.3-0.5-0.4-0.9,0-1.4C21.9,15.3,22,15.1,22.1,14.8z"/>
	<path id="Path_11639" class="st0" d="M21.9,17.8c0,0.3-0.2,0.4-0.4,0.5c-0.8,0.7-0.8,0.7-1.2-0.2c-0.1-0.2-0.3-0.4-0.1-0.6
		c0.3-0.3,0.6-0.6,1-0.9c0,0,0.1,0,0.1,0.1C21.4,17,21.7,17.4,21.9,17.8z"/>
	<path id="Path_11640" class="st0" d="M14,20.2c0,0.1,0,0.2,0,0.3c-0.5,0.4-1.1,0.6-1.8,0.6c-0.2-0.3-0.1-0.7-0.1-1s0.2-0.3,0.4-0.3
		c0.2-0.1,0.4-0.1,0.5-0.2C13.9,19.2,14.1,19.4,14,20.2z"/>
	<path id="Path_11641" class="st0" d="M19,12.4c0.3,0.6,0.6,1.1,0.9,1.7c0.1,0.2,0,0.3-0.1,0.5c-0.2,0.3-0.4,0.7-0.7,1
		c-0.6-0.5-0.7-1.4-0.4-2.1C18.9,13.1,18.9,12.8,19,12.4z"/>
	<path id="Path_11642" class="st0" d="M16.1,19.5c0,0.1,0,0.2-0.1,0.2c-0.5,0.2-1,0.4-1.4,0.6c-0.1,0.1-0.2-0.1-0.2-0.2
		c-0.3-0.9-0.3-1,0.6-1.4c0.9-0.4,1-0.4,1.1,0.6C16.1,19.4,16.1,19.5,16.1,19.5z"/>
	<path id="Path_11643" class="st0" d="M16.2,18.4c0-0.1,0-0.3,0.1-0.3l0,0c0.2-0.1,0.3-0.2,0.4-0.3c0.3-0.1,0.6-0.6,0.8-0.4
		c0.2,0.2,0.3,0.7,0.4,1c0.1,0.2,0,0.2-0.2,0.3c-0.1,0.1-0.3,0.2-0.5,0.3C16.5,19.6,16.2,19.4,16.2,18.4z"/>
	<path id="Path_11644" class="st0" d="M20.2,14.6c0.2,0.4,0.4,0.8,0.7,1.2c0.2,0.4-0.1,0.5-0.3,0.8c-0.6,0.8-0.6,0.7-1.1-0.1
		c-0.3-0.3-0.2-0.8,0.1-1.1C19.8,15.2,20,14.9,20.2,14.6z"/>
	<path id="Path_11645" class="st0" d="M19,16.2c0,0.1,0.1,0.2,0.1,0.2c0.5,1.2,0.5,1.3-0.6,1.9c-0.2,0.1-0.3,0.1-0.4-0.1
		c0,0,0,0,0-0.1C17.7,17.1,17.8,17,19,16.2z"/>
	<path id="Path_11646" class="st0" d="M17.3,12.3c0.3,0.6,0.5,1.1,0.7,1.6c0.1,0.2,0.1,0.4-0.1,0.6c-0.2,0.3-0.5,0.6-0.8,0.9
		c-0.1-0.4-0.3-0.8-0.4-1.1c-0.1-0.1,0-0.3,0.1-0.4C17.1,13.3,17.3,12.8,17.3,12.3z"/>
	<path id="Path_11647" class="st0" d="M13.5,17.8c0.4,1.2,0.4,1.2-0.7,1.5c-0.2,0.1-0.3,0.1-0.5,0.2c-0.1,0-0.2,0-0.3,0
		c-0.2-0.2-0.1-1.1,0.2-1.3L13.5,17.8z"/>
	<path id="Path_11648" class="st0" d="M9.8,19.5c-0.1-0.4,0.1-0.6,0.5-0.6c0.2,0,0.4-0.2,0.5-0.1c0.2,0,0.5-0.5,0.7,0.1
		c0.2,0.7,0.1,0.9-0.4,1.1c-0.2,0.1-0.5,0.1-0.7,0.2C9.8,20.2,9.8,20.2,9.8,19.5z"/>
	<path id="Path_11649" class="st0" d="M18.3,14.5c0.8,1.5,0.9,1.2-0.5,2.3C17.1,15.8,17.2,15.5,18.3,14.5z"/>
	<path id="Path_11650" class="st0" d="M16.9,15.9H17c0.3,0.1,0.4,1.2,0.1,1.4c-0.1,0.1-0.2,0.1-0.3,0.2c-0.9,0.5-0.7,0.6-1-0.4
		c-0.1-0.2,0-0.5,0.2-0.6l0,0C16.3,16.3,16.6,16.1,16.9,15.9z"/>
	<path id="Path_11651" class="st0" d="M13.9,17.8c0-0.1,0-0.3,0.2-0.3c0.2-0.1,0.3-0.2,0.5-0.2c0.9-0.4,0.9-0.4,1.1,0.5
		c0.1,0.2,0,0.3-0.2,0.4s-0.4,0.2-0.6,0.3C14.1,18.9,13.9,18.7,13.9,17.8z"/>
	<path id="Path_11652" class="st0" d="M9.8,18.2c-0.1-0.5,0.1-0.6,0.5-0.7c0.2-0.1,0.3-0.1,0.5-0.1s0.5-0.4,0.6,0
		c0.2,0.6,0.1,0.9-0.4,1c-0.3,0.1-0.5,0.1-0.8,0.2C9.9,18.8,9.7,18.7,9.8,18.2z"/>
	<path id="Path_11653" class="st0" d="M13.5,13c0.4,0,0.4-0.5,0.7-0.7c0.2,0.5,0.4,1.1,0.3,1.7l0,0c-0.3,0-0.5,0.2-0.7,0.4l0,0
		c-0.4,0.3-0.6,0.2-0.6-0.3c0-0.3,0-0.5-0.1-0.8l0,0c0.2,0.1,0.2,0,0.2-0.1l0,0C13.5,13.2,13.6,13.2,13.5,13L13.5,13z"/>
	<path id="Path_11654" class="st0" d="M13.3,16.4c0.3,1.4,0.3,1.1-0.8,1.5c-0.2,0.1-0.4,0.4-0.6,0c-0.2-0.5-0.1-0.9,0.3-1L13.3,16.4
		z"/>
	<path id="Path_11655" class="st0" d="M13.7,16.5c-0.1-0.2,0.1-0.3,0.2-0.4c0.2-0.1,0.3-0.2,0.4-0.2c0.8-0.4,0.8-0.4,0.9,0.5
		c0,0.2,0,0.3-0.2,0.4s-0.4,0.2-0.5,0.3C13.8,17.5,13.7,17.4,13.7,16.5z"/>
	<path id="Path_11656" class="st0" d="M14.5,14.1c0.4,0.3,0.5,0.8,0.3,1.2c-0.1,0.1-0.2,0.2-0.3,0.3c0,0-0.1,0-0.1,0.1
		c-0.3,0.1-0.4,0.5-0.7,0.2c-0.1-0.1-0.1-0.4-0.2-0.7c-0.1-0.3,0.2-0.3,0.4-0.5c0.1-0.1,0.2-0.1,0.1-0.2l0,0
		C14.2,14.6,14.3,14.3,14.5,14.1L14.5,14.1z"/>
	<path id="Path_11657" class="st0" d="M11.3,16c0,0.2,0.1,0.4,0.1,0.6c0.1,0.3,0,0.5-0.3,0.6c-0.2,0-0.4,0.2-0.6,0.2
		c-0.2,0-0.5,0.3-0.6,0s-0.2-0.8,0.4-0.9C10.6,16.3,10.9,16.1,11.3,16z"/>
	<path id="Path_11658" class="st0" d="M13.1,15.2c0,0.4,0.3,0.8,0.1,1.1c-0.4,0.3-0.8,0.5-1.2,0.6c-0.2,0.1-0.2-0.1-0.2-0.2
		c-0.2-0.3-0.1-0.8,0.3-1c0,0,0.1,0,0.1-0.1L13.1,15.2z"/>
	<path id="Path_11659" class="st0" d="M12.5,12.2c0.1,0.2,0.1,0.4,0.1,0.5c0.2,1,0.1,1.2-0.9,1.7c-0.3,0.1-0.3,0.1-0.3-0.2
		c0-0.4,0-0.8,0.4-1.1C12.1,12.8,12.4,12.5,12.5,12.2z"/>
	<path id="Path_11660" class="st0" d="M12.8,13.9C12.9,13.9,12.9,13.9,12.8,13.9c0.3,1,0,1.5-1,1.7c-0.2,0-0.2,0-0.3-0.2
		c0-0.4-0.1-0.8,0.4-1C12.3,14.2,12.6,14.1,12.8,13.9z"/>
	<path id="Path_11661" class="st0" d="M9.8,16.3c0-0.4-0.2-0.8,0.1-0.9c0.4-0.2,0.8-0.4,1.2-0.5c0.2-0.1,0.2,0.1,0.2,0.3
		c0,0.3,0.2,0.6-0.1,0.7C10.7,16,10.3,16.1,9.8,16.3z"/>
	<path id="Path_11662" class="st0" d="M10.7,12.4l0.3-0.2c0.1,0.1,0.1,0.2,0.1,0.3c0.2,0.6-0.1,1.3-0.8,1.5c-0.1,0-0.2,0-0.3,0.1
		c-0.1,0-0.2,0.1-0.2-0.1c0-0.3-0.2-0.6,0.2-0.9C10.2,12.9,10.5,12.7,10.7,12.4L10.7,12.4z"/>
	<path id="Path_11663" class="st0" d="M9.8,15.1c-0.4-1.2,0.8-1.1,1.2-1.5C11.4,14.7,11.4,14.6,9.8,15.1z"/>
	<path id="Path_11664" class="st0" d="M24,12.9c-0.1-0.1-0.1-0.1,0-0.2V12.9L24,12.9z"/>
	<path id="Path_11665" class="st0" d="M27.3,29.8c-0.2,0.1-0.3,0.2-0.5,0.1v-0.1C27,29.6,27.1,29.7,27.3,29.8z"/>
</g>
</svg>
