<?xml version="1.0" encoding="utf-8"?>
<!-- Generator: Adobe Illustrator 27.4.0, SVG Export Plug-In . SVG Version: 6.00 Build 0)  -->
<svg version="1.1" id="Layer_1" xmlns="http://www.w3.org/2000/svg" xmlns:xlink="http://www.w3.org/1999/xlink" x="0px" y="0px"
	 viewBox="0 0 40 40" style="enable-background:new 0 0 40 40;" xml:space="preserve">
<style type="text/css">
	.st0{fill:#3f4891;}
</style>
<g id="Badminton" transform="translate(-0.002 0.019)">
	<path id="Path_11593" class="st0" d="M28,20.6c-0.4-0.1-0.8-0.7-1.2-0.1c-0.1,0.2-0.5,0.4-0.1,0.6c0.4,0.3,0.5,0.9,1.1,0.6
		c0.2-0.2,0.5-0.3,0.7-0.5c-0.5,0.6-1,1.1-0.1,1.7c0.3,0.2,0.5,0.2,0.9-0.1c-0.4,0.5-0.2,0.8,0.1,1.1c0.4,0.4,0.4,0.9,0,1.3l0,0
		c-0.4,0.3-0.2,0.5,0,0.8c0.7,0.8,0.7,0.8,0,1.5c-0.2,0.2-0.2,0.3-0.1,0.4s0.4,0.3,0.3,0.7c-0.2-0.5-0.7-0.7-1.2-0.5
		c-0.1,0-0.2,0.1-0.2,0.1c0.1-0.2,0.5-0.4,0.4-0.6c-0.2-0.4-0.5-0.7-0.9-0.9c-0.2-0.1-0.9,0.5-0.8,0.7c0,0.5,1,1,1.4,0.8
		c-0.4,0.5,0.1,0.8,0.4,1.1c0.3,0.3,0.6,0.6,0,0.9l0,0c0.2-0.2,0.2-0.3,0-0.5s-0.4-0.4-0.6-0.6c-0.4-0.4-0.7,0-0.9,0.2
		c-0.3,0.2-0.2,0.5,0,0.7s0.4,0.6,0.9,0.6c0.2,0,0.1,0.1,0.1,0.3c-0.1,0.3-0.3,0.3-0.6,0.4c0.2-0.7-0.4-0.9-0.8-1.3
		c-0.4-0.3-0.6,0.4-0.9,0.4c0-0.3,0.2-0.4,0.4-0.5c0.2-0.2,0.1-0.2,0-0.4c-0.5-0.7-0.8-0.8-1.6-0.4c0-0.1,0-0.2,0.1-0.3
		c0.4-0.3,0.3-0.5,0-0.8c-0.1-0.1-0.3-0.3-0.4-0.4c-0.2-0.2-0.4-0.1-0.6,0.1s-0.5,0.3-0.5,0.6c0.3,0.5,0.8,0.8,1.4,0.8
		c-0.2,0.6,0.4,1.3,1.2,1.3c-0.2,0.7,0.5,0.8,0.8,1.2c0.1,0.2,0.4,0,0.4,0.4c0,0.3-0.3,0.2-0.5,0.3c-0.1,0-0.2,0.1-0.3,0.2l0,0
		c0-0.2,0.3-0.4,0-0.7c-0.4-0.4-0.7-0.9-1.4-0.6l0,0c0-0.2,0.4-0.2,0.2-0.5c-0.3-0.4-0.5-0.9-1-0.8s-0.8,0.5-0.8,0.9l-0.1,0.1
		c-0.4-0.1-1.1,0.3-1,0.7c0.1,0.4,0.5,0.6,0.8,0.9c0.3,0.2,0.4-0.1,0.6-0.2c0.1-0.1,0.2-0.1,0.3-0.2l0,0c0,0.1,0,0.1-0.1,0.2
		c-0.5,0.6-0.5,0.6,0,1.3c-0.3-0.4-0.9-0.5-1.3-0.2c-0.1,0.1-0.2,0.2-0.3,0.3c0.1-0.4,0.5-0.4,0.5-0.8c0-0.3-0.4-0.5-0.5-0.7
		c-0.4-0.5-0.7-0.2-1,0.1s-0.3,0.2,0.6,1.3c-0.4,0-0.5-0.2-0.6-0.4c-0.4-0.4-0.7-0.5-1,0c-0.1,0.1-0.2,0.2-0.4,0.2
		c-0.1-0.5,0.9-0.5,0.4-1.1c-0.3-0.3-0.6-0.6-0.8-1c-0.2,0.1-0.1,0.2-0.2,0.3c-0.6,0.9-0.6,0.9,0.2,1.6c-0.6,0.1-0.9-1-1.6-0.5
		c0.4-0.4,0-0.6-0.2-0.9c-0.6-0.8-1-0.2-1.7,0.2c0.2-0.6,0.7-0.7,0.7-1c0-0.4-0.4-0.5-0.6-0.8c-0.4-0.4-0.6,0-0.9,0.2
		c-0.7,0.5,0.3,0.6,0.1,1c-0.7-0.3-1-1.1-1.7-1.4c-0.6-0.4-0.8-1.2-1.5-1.5s-0.8-1-1.4-1.4c-0.6-0.4-1.1-1-1.5-1.7
		c0.5,0,0.9-0.2,1.1-0.7c0.2-0.3-0.8-1.1-1.1-1C9,23.8,8.9,23.9,8.7,24c-0.1,0.1-0.2,0.3-0.5,0.1c0.6-0.4,0.9-0.8,0.2-1.4
		c-0.4-0.3-0.7-0.2-1.1,0.1c0.6-0.9-0.1-1.2-0.6-1.6c-0.2-0.2-0.2-0.4-0.5-0.7c0.6,0.2,0.9-0.1,1.2-0.4c0.2-0.2,0-0.4-0.2-0.5
		c-0.4-0.3-0.5-0.9-1.2-0.4c1-0.8,0.1-1,0-1.5c0.3-0.1,0.4,0.2,0.5,0.3c0.2,0.1,0.4,0.5,0.6,0.2c0.2-0.2,0.8-0.3,0.4-0.8
		C7,16.7,6.7,16.6,6.1,17c0.1,0,0,0,0,0l0,0c0-0.1,0-0.2,0.1-0.2c0.4-0.3,0.4-0.6,0-0.9c-0.1,0-0.1-0.1-0.1-0.3
		c0.4,0,0.4,0.5,0.8,0.4c0.3-0.1,0.5-0.3,0.7-0.5s0.2-0.3,0-0.4c-0.4-0.2-0.5-0.7-1-0.7c-0.2,0-0.1-0.2-0.1-0.3
		c0-0.1,0.2-0.1,0.4-0.3c0.3-0.3,0.8-0.5,0.5-1.2c0.5,0.7,0.8,0,1.1-0.1s0.1-0.5-0.1-0.8c0.4,0.2,0.7,0.4,1,0.8
		c0.6,0.7,1.3,1.2,1.9,1.9c0.4,0.4,0.6-0.3,0.9-0.1c-0.3,0.3-0.5,0.6,0,0.9c0.1,0.1,0.3,0.3,0.4,0.4c0.2,0.2,0.3,0.2,0.5,0
		s0.6-0.3,0.5-0.7c-0.2-0.6-0.8-0.9-1.4-0.7l0,0c0.2-0.5,0-1.2-0.6-1.4c-0.1-0.1-0.3-0.1-0.5-0.1l0,0c0-0.6-0.5-0.9-0.9-1.3
		c-0.3-0.2-0.4,0.2-0.7,0.2l0,0c0.1-0.2,0.2-0.3,0.3-0.4c0.3-0.3,0.4-0.6,0.7,0c0.2,0.6,0.9,0.9,1.5,0.7l0,0
		c-0.2,0.2-0.5,0.4-0.2,0.7c0.2,0.3,0.5,0.8,0.9,0.7c0.3,0,0.8-0.3,0.7-0.7s-0.5-0.6-0.8-0.9c-0.2-0.2-0.4,0.1-0.6,0.2
		c0.5-0.5-0.1-0.8-0.3-1.3c0.5,0.6,1.1,0.8,1.6,0c-0.6,0.9-0.5,0.9,0.1,1.6c0.4,0.4,0.6,0,0.8-0.1c0.8-0.5-0.2-0.8-0.2-1.3
		c0.5,0.3,0.9,1,1.5,0.3c0.1,0.4-0.6,0.4-0.2,0.8c0.3,0.3,0.5,0.9,1.1,0.7c0.3-0.1,0.8-0.4,0.7-0.9c0.4,0,0.5,0.4,0.8,0.6
		c0.4,0.4,0.7,1.1,1.4,0.3c0,0.4-0.6,0.5-0.2,1c0.6,0.6,0.6,0.7,1.8,0.1c0,0.5-1,0.5-0.5,1.1c0.4,0.5,0.7,1.1,1.5,0.4
		c0,0.4-0.5,0.5-0.3,0.7c0.2,0.3,0.5,0.6,0.8,0.8c0.3,0.2,0.5-0.1,0.7-0.3c0.4-0.5,0.8-0.4,1.2,0.1c0.2,0.3,0.4,0.6,0.9,0.6
		c0.1,0,0.1,0,0.1,0.1c0,0.4,0.3,0.7,0.6,0.8c0.6,0.3,0.8,0.9,1.3,1.3C27.3,19.6,27.7,20,28,20.6L28,20.6z M14.1,24.1
		c0,0.2-0.1,0.3-0.3,0.4c-0.3,0.2-0.4,0.5,0,0.7s0.5,0.9,1.1,0.4c0.2-0.2,0.7-0.4,0.3-0.8C14.9,24.5,14.6,24.1,14.1,24.1
		c0-0.4-0.3-0.6-0.5-0.9c-0.4-0.5-0.7-0.2-1,0.1c-0.4,0.4-0.1,0.6,0.1,0.8c0.4,0.5,0.7,0.6,1.2,0.1C13.9,24.1,14,24,14.1,24.1
		L14.1,24.1z M20.9,19.8c-0.3,0.1-0.4-0.2-0.6-0.4c-0.2-0.1-0.3-0.3-0.5-0.1c-0.2,0.2-0.7,0.4-0.5,0.8c0.1,0.3,0.8,0.8,1,0.7
		C20.8,20.8,21,20.3,20.9,19.8L20.9,19.8c0.2,0,0.4,0.4,0.7,0.1c0.6-0.5,0.6-0.6,0-1.2c-0.4-0.5-0.7-0.2-1,0.1
		c-0.4,0.4-0.1,0.5,0.1,0.8C20.8,19.6,20.8,19.7,20.9,19.8L20.9,19.8z M17.9,29.3c0.2,0,0.4,0.4,0.7,0.1c0.7-0.5,0.7-0.7,0-1.3
		c-0.4-0.4-0.7-0.2-1,0.1c-0.4,0.4-0.1,0.5,0.1,0.8C17.7,29.1,17.9,29.2,17.9,29.3c-0.3,0.1-0.4-0.2-0.6-0.3
		c-0.2-0.1-0.3-0.3-0.5-0.1c-0.2,0.2-0.6,0.3-0.6,0.7c0,0.3,0.8,0.9,1,0.8C17.7,30.3,18,29.8,17.9,29.3L17.9,29.3z M18.9,26.3
		c0.5,0,1.2-0.4,1.2-0.7c-0.2-0.4-0.6-0.7-1-0.9c-0.5,0.1-0.8,0.6-0.7,1.1c-0.4-0.2-1.2,0.2-1.2,0.6c0.2,0.4,0.6,0.7,1,0.9
		C18.5,27.2,18.9,26.7,18.9,26.3L18.9,26.3z M10,16c0-0.7-0.6-1.2-1.3-1.2l0,0c0-0.6-0.4-1.1-0.9-1.3c-0.4-0.1-0.5,0.2-0.7,0.4
		C7,14,6.9,14.2,7,14.3l0,0c0.3,0.5,0.9,0.8,1.4,0.7c-0.6,0.4,0.1,0.6,0.1,0.9c-0.2,0.1-0.3-0.1-0.4-0.2c-0.5-0.3-0.7,0.2-1,0.4
		c-0.4,0.3,0,0.4,0.1,0.6c0.4,0.6,0.9,0.6,1.5,0.3c-0.6,0.6-0.6,0.6,0,1.2c0.4,0.5,0.7,0.3,1.1-0.1c0.5-0.4,0-0.6-0.2-0.8
		c-0.1-0.1-0.3-0.2-0.2-0.4c0.3,0.1,0.4,0.3,0.6,0.5c0.4,0.3,0.5-0.1,0.7-0.2s0.5-0.3,0.3-0.5C10.9,16.5,10.7,15.9,10,16L10,16z
		 M21.3,29.6c0.2-0.5,0-1.2-0.5-1.4h-0.1c-0.4-0.1-0.5,0.2-0.7,0.4c-0.2,0.1-0.2,0.2-0.2,0.4c0,0,0,0.1,0.1,0.1
		c0.4,0.4,0.6,0.8,1.2,0.8v0.6c-0.4-0.1-1.1,0.2-1.2,0.5c0,0.2,0.8,1.1,0.9,1c0.4-0.1,0.7-0.4,0.8-0.8c0-0.3,0-0.3,0.3-0.3
		c0.4,0.1,0.9-0.5,0.8-0.8C22.5,29.7,21.9,29.4,21.3,29.6L21.3,29.6z M16.5,24.1c-0.3-0.4-0.5-0.8-1.1-0.9c-0.1,0-0.3,0.1-0.3-0.2
		c0.1-0.6-0.4-0.8-0.8-1.1c-0.3-0.2-0.5,0.2-0.8,0.4c-0.1,0.1-0.2,0.2-0.1,0.4c0,0.1,0.1,0.1,0.1,0.1c0.7,0.5,1.2,1.1,1.8,1.8l0,0
		c0.1,0.1,0.4,0.1,0.5,0C16.2,24.5,16.3,24.3,16.5,24.1L16.5,24.1z M9.9,13.5c-0.2-0.4-0.5-0.8-0.9-1.1c-0.4,0.1-0.7,0.4-0.9,0.7
		c0,0.2,0.8,1.1,1,1C9.5,14.1,9.7,13.9,9.9,13.5z M10.2,13.7c-0.3,0.1-0.6,0.4-0.8,0.7c-0.1,0.2,0.8,1.1,1,1
		c0.4-0.1,0.6-0.4,0.8-0.7C11.2,14.6,10.4,13.8,10.2,13.7L10.2,13.7z M24.5,17.4c0-0.2-0.8-1-0.9-0.9c-0.4,0.1-0.7,0.4-0.9,0.7
		c-0.1,0.1,0.8,0.9,0.9,0.9C23.8,18.1,24.5,17.5,24.5,17.4z M21.2,22.4c-0.2-0.4-0.6-0.7-0.9-0.9c-0.2,0-0.9,0.5-0.8,0.7
		c0.2,0.4,0.5,0.7,0.9,0.9C20.5,23.3,21.1,22.6,21.2,22.4L21.2,22.4z M21.3,17.8c0.3-0.1,0.6-0.4,0.7-0.7c0.1-0.1-0.7-0.9-0.9-0.9
		s-0.8,0.5-0.8,0.7C20.5,17.3,20.9,17.6,21.3,17.8L21.3,17.8z M25.7,18.7c0-0.3-0.8-1.1-1-1c-0.4,0.1-0.7,0.4-0.8,0.8
		c0,0.1,0.9,0.9,1,0.8C25.2,19.2,25.5,19,25.7,18.7L25.7,18.7z M15.7,27.5c-0.2,0-0.8,0.7-0.8,0.8c0.2,0.4,0.5,0.7,0.9,0.9
		c0.2,0.1,0.8-0.5,0.8-0.7C16.4,28.1,16.1,27.8,15.7,27.5L15.7,27.5z M16.4,22c-0.2-0.4-0.6-0.8-1.1-1c-0.4,0.1-0.6,0.4-0.8,0.7
		c0.3,0.4,0.6,0.7,1,1C15.8,22.5,16.1,22.2,16.4,22L16.4,22z M21.4,26.9c0-0.3-0.8-1-0.9-1c-0.4,0.1-0.7,0.4-0.8,0.7
		c0,0.1,0.8,1,0.9,0.9C20.9,27.5,21.2,27.2,21.4,26.9L21.4,26.9z M17.6,23.2c-0.2-0.4-0.6-0.7-1-0.9c-0.3,0-0.9,0.5-0.8,0.7
		c0.3,0.4,0.6,0.7,1,0.9C17.1,23.7,17.4,23.5,17.6,23.2L17.6,23.2z M18.9,24.4c0-0.3-0.9-1.1-1.1-1c-0.4,0.1-0.6,0.4-0.8,0.7
		c0,0.1,0.9,1,1,0.9C18.4,24.9,18.6,24.7,18.9,24.4L18.9,24.4z M25.4,28.1c0.2,0,0.9-0.6,0.8-0.7c0-0.2-0.9-0.9-1.1-0.9
		c-0.4,0.1-0.7,0.4-0.8,0.7C24.3,27.4,25.3,28.1,25.4,28.1L25.4,28.1z M19.2,31.1c0-0.2-0.9-1.1-1-1c-0.3,0.1-0.6,0.4-0.8,0.7
		c-0.1,0.2,0.7,1,1,0.9C18.8,31.6,19,31.4,19.2,31.1L19.2,31.1z M29.7,26.8c-0.2-0.4-0.5-0.8-0.9-1c-0.2,0-0.8,0.6-0.8,0.7
		c0,0.2,0.8,1,1,0.9C29.3,27.4,29.6,27.1,29.7,26.8L29.7,26.8z M22.6,28.2c-0.2-0.4-0.5-0.8-1-1c-0.3,0-0.8,0.5-0.8,0.8
		s0.8,0.9,1,0.8C22.2,28.7,22.4,28.5,22.6,28.2L22.6,28.2z M24.9,26.2c0-0.2-0.8-1-0.9-0.9c-0.4,0.1-0.7,0.3-0.9,0.7
		c-0.1,0.1,0.8,0.9,0.9,0.9C24.4,26.8,24.8,26.5,24.9,26.2L24.9,26.2z M26.5,27.2c0.3-0.1,0.6-0.4,0.8-0.7c0-0.2-0.8-1-1-1
		c-0.4,0.1-0.7,0.4-0.8,0.7C25.5,26.4,26.3,27.2,26.5,27.2L26.5,27.2z M23.8,27.2c0-0.2-0.9-1.1-1-1c-0.3,0.2-0.6,0.4-0.8,0.7
		c-0.1,0.1,0.9,1,1,0.9C23.3,27.7,23.6,27.5,23.8,27.2L23.8,27.2z M21.6,24.4c0.2,0,0.9-0.5,0.9-0.7s-0.8-0.9-1-0.9
		c-0.4,0.1-0.7,0.3-0.8,0.7C20.6,23.6,21.4,24.4,21.6,24.4L21.6,24.4z M20.7,15.9c0-0.2-0.9-1.1-1-1.1c-0.3,0.2-0.6,0.4-0.8,0.7
		c-0.1,0.1,0.8,0.9,1,0.9C20.3,16.5,20.5,16.2,20.7,15.9L20.7,15.9z M18.8,18.1c-0.3,0.1-0.6,0.4-0.8,0.7c0,0.2,0.7,0.9,0.9,0.9
		c0.2,0,0.8-0.5,0.8-0.7C19.5,18.6,19.2,18.3,18.8,18.1L18.8,18.1z M15.6,29.5c0-0.2-0.7-1-0.9-1c-0.4,0.1-0.7,0.3-0.8,0.6
		c-0.1,0.2,0.8,1.1,0.9,1C15.1,30.1,15.4,29.8,15.6,29.5L15.6,29.5z M12.6,18.2c0-0.2-0.9-1-1.1-0.9c-0.3,0.1-0.7,0.3-0.7,0.7
		c0,0.2,0.9,1,1.1,0.9C12.1,18.7,12.4,18.5,12.6,18.2L12.6,18.2z M23.9,29.4c0-0.3-0.8-1.1-1-1c-0.4,0.1-0.6,0.4-0.7,0.7
		c0,0.1,0.8,1,0.9,0.9C23.4,30,23.7,29.7,23.9,29.4L23.9,29.4z M21.3,20.5c-0.3,0.1-0.6,0.4-0.7,0.7c-0.1,0.2,0.7,1,0.9,0.9
		c0.4,0,0.7-0.3,0.8-0.7C22.3,21.3,21.5,20.6,21.3,20.5L21.3,20.5z M17,26c0.2-0.2,0.7-0.4,0.7-0.7c-0.1-0.4-0.5-0.7-0.9-1
		c-0.1-0.1-0.8,0.6-0.8,0.8C16.2,25.5,16.6,25.9,17,26L17,26z M22.5,26c0-0.3-0.9-1.1-1.1-1c-0.3,0.2-0.8,0.4-0.7,0.7
		c0.1,0.5,0.5,0.8,1,0.9C22.1,26.6,22.3,26.2,22.5,26L22.5,26z M12,26.1c-0.3,0.1-0.6,0.4-0.7,0.7c0,0.2,0.7,0.9,0.9,1
		s0.8-0.6,0.8-0.7C12.8,26.6,12.5,26.3,12,26.1L12,26.1z M20.4,30.1c0-0.3-0.7-1-0.9-0.9c-0.4,0-0.6,0.3-0.8,0.6
		c-0.1,0.2,0.7,1.1,0.9,1C19.9,30.7,20.2,30.4,20.4,30.1L20.4,30.1z M17.3,12.4c-0.3,0.2-0.6,0.4-0.8,0.8c0,0.2,0.8,0.9,1,0.9
		c0.4-0.1,0.7-0.3,0.8-0.6C18.3,13.3,17.4,12.4,17.3,12.4L17.3,12.4z M14.7,14.1c0-0.2-0.8-1.1-0.9-1.1c-0.4,0.1-0.6,0.4-0.8,0.7
		c-0.1,0.2,0.7,1,1,0.9C14.3,14.6,14.5,14.4,14.7,14.1L14.7,14.1z M15.1,20.7c0-0.2-0.9-0.9-1.1-0.9c-0.4,0.1-0.8,0.4-0.7,0.7
		c0.2,0.4,0.5,0.8,0.9,0.9C14.4,21.5,15.1,20.8,15.1,20.7L15.1,20.7z M12.4,16c-0.2-0.4-0.5-0.7-0.9-1c-0.4,0.2-0.7,0.4-0.9,0.7
		c0,0.2,0.8,1,1,0.9C12,16.6,12.3,16.3,12.4,16L12.4,16z M19.6,16.9c0-0.2-0.7-1.1-0.9-1c-0.4,0.1-0.7,0.3-0.8,0.7
		c-0.1,0.2,0.7,1.1,0.9,1C19.1,17.4,19.4,17.2,19.6,16.9L19.6,16.9z M23.3,18.4c0-0.3-0.8-1.1-1-1c-0.3,0.2-0.7,0.3-0.7,0.7
		c0,0.2,0.9,0.9,1,0.9C22.8,18.9,23.1,18.7,23.3,18.4L23.3,18.4z M11.4,19.2c-0.2-0.4-0.6-0.8-1-1.1c-0.2,0-0.9,0.6-0.9,0.7
		c0.2,0.4,0.6,0.7,1,0.9C11,19.8,11.2,19.5,11.4,19.2L11.4,19.2z M13.8,19.4c0-0.2-0.7-0.9-0.9-0.9S12,19,12,19.2
		c0.2,0.4,0.6,0.7,0.9,1C13.1,20.2,13.8,19.6,13.8,19.4L13.8,19.4z M12.7,20.5c-0.2-0.4-0.5-0.8-0.9-1.1c-0.4,0.1-0.7,0.4-0.9,0.7
		c0,0.2,0.8,0.9,0.9,0.9C12.2,21,12.5,20.8,12.7,20.5L12.7,20.5z M17.5,21c0-0.2-0.9-1.1-1-1c-0.3,0.2-0.6,0.4-0.8,0.7
		c-0.1,0.2,0.8,1,1,0.9C17,21.5,17.3,21.3,17.5,21L17.5,21z M19.1,22c0.3-0.1,0.6-0.4,0.8-0.7c0.1-0.2-0.7-0.9-0.9-0.9
		c-0.4,0.1-0.7,0.3-0.8,0.7C18.1,21.2,18.9,22,19.1,22z M23.5,22.8c0-0.2-0.8-1.1-1-1c-0.3,0.2-0.7,0.4-0.7,0.7c0,0.2,0.7,1,0.9,0.9
		C23.1,23.3,23.4,23.1,23.5,22.8L23.5,22.8z M21.3,24.7c0-0.2-0.9-1.1-1-1c-0.3,0.1-0.6,0.4-0.8,0.7c-0.1,0.1,0.9,1,1,0.9
		C20.8,25.2,21.1,25,21.3,24.7L21.3,24.7z M23.7,23.1c-0.2,0.2-0.6,0.3-0.7,0.7c0,0.2,0.8,0.9,1,0.9c0.4-0.1,0.7-0.4,0.8-0.7
		C24.8,23.8,24,23,23.7,23.1L23.7,23.1z M23.4,20.6c0-0.3-0.7-1-0.9-0.9c-0.4,0.1-0.7,0.3-0.8,0.7c0,0.2,0.8,0.9,0.9,0.9
		C23,21.1,23.2,20.9,23.4,20.6L23.4,20.6z M27.5,28.7c0-0.2-0.8-1-1-0.9c-0.4,0.1-0.7,0.4-0.8,0.7c-0.1,0.1,0.9,0.9,1.1,0.9
		C27,29.3,27.3,29,27.5,28.7L27.5,28.7z M15.9,13.1c0-0.3-0.8-1-1.1-0.9c-0.4,0.1-0.6,0.4-0.7,0.8c0,0.2,0.9,0.9,1,0.9
		C15.4,13.7,15.7,13.4,15.9,13.1L15.9,13.1z M15,18.4c-0.3-0.4-0.6-0.7-1-1c-0.3,0.2-0.6,0.4-0.9,0.8c0.2,0.4,0.5,0.7,0.9,0.9
		C14.5,19,14.8,18.7,15,18.4L15,18.4z M27.3,22.4c-0.2,0.2-0.6,0.3-0.7,0.7c0,0.2,0.7,0.9,0.9,0.9c0.2,0,0.8-0.6,0.8-0.8
		C28.1,22.9,27.7,22.6,27.3,22.4L27.3,22.4z M11.6,23.6c0-0.2-0.8-1.1-0.9-1c-0.4,0.1-0.6,0.4-0.8,0.7c0,0.2,0.8,1,0.9,0.9
		C11.2,24.1,11.5,23.9,11.6,23.6L11.6,23.6z M17.3,18.7c0-0.2-0.8-0.9-0.9-0.9c-0.4,0.1-0.7,0.3-0.8,0.7c0,0.1,0.7,1,0.9,1
		S17.3,18.9,17.3,18.7L17.3,18.7z M17.8,20.7c0.2,0,0.8-0.6,0.8-0.8s-0.8-0.9-1-0.8c-0.3,0.1-0.6,0.3-0.8,0.6
		C16.8,19.9,17.6,20.7,17.8,20.7L17.8,20.7z M8,17.9c-0.3,0.2-0.6,0.4-0.7,0.7c0,0.1,0.9,1,1,1c0.3-0.1,0.6-0.4,0.8-0.7
		C9.1,18.7,8.3,17.9,8,17.9L8,17.9z M28.5,25.6c0-0.2-0.7-1-0.9-1c-0.4,0.1-0.7,0.3-0.8,0.6c-0.1,0.2,0.7,1,0.9,1
		C28,26.1,28.3,25.9,28.5,25.6L28.5,25.6z M26.2,23.3c-0.2,0.2-0.6,0.3-0.7,0.7c0,0.2,0.8,1,0.9,0.9c0.4-0.1,0.7-0.4,0.8-0.7
		C27.2,24.1,26.4,23.3,26.2,23.3L26.2,23.3z M26,18.9c-0.2,0-0.8,0.6-0.8,0.8c0,0.2,0.8,0.9,1,0.9c0.4-0.1,0.7-0.3,0.8-0.7
		C27,19.7,26.2,18.9,26,18.9L26,18.9z M18.5,13.6c-0.2,0.2-0.6,0.4-0.7,0.7c-0.1,0.2,0.8,1,1,0.9c0.3-0.1,0.6-0.4,0.8-0.7
		C19.6,14.5,18.7,13.7,18.5,13.6L18.5,13.6z M16.3,15c0.2,0,0.8-0.6,0.8-0.8s-0.8-0.9-1-0.9c-0.4,0.1-0.7,0.4-0.8,0.7
		C15.3,14.3,16.1,15.1,16.3,15L16.3,15z M11.9,23.8c-0.3,0.2-0.6,0.4-0.7,0.7c-0.1,0.2,0.7,0.9,0.9,0.9c0.4-0.1,0.7-0.3,0.8-0.7
		C12.9,24.6,12.1,23.8,11.9,23.8L11.9,23.8z M23.7,25c0-0.2-0.8-1-0.9-0.9c-0.4,0.1-0.7,0.4-0.9,0.7c-0.1,0.1,0.8,1,1,1
		C23.2,25.5,23.5,25.3,23.7,25L23.7,25z M14,21.7c0-0.3-0.9-1.1-1-1c-0.3,0.1-0.6,0.4-0.8,0.7c0,0.1,0.8,0.9,1,0.9
		C13.5,22.2,13.8,22,14,21.7L14,21.7z M25.3,26c0.3-0.2,0.6-0.4,0.7-0.7c0.1-0.2-0.9-1-1-0.9c-0.3,0.1-0.6,0.4-0.7,0.7
		C24.2,25.2,25.1,26,25.3,26L25.3,26z M23.7,20.8c-0.3,0.2-0.6,0.3-0.7,0.7c0,0.2,0.8,1,0.9,0.9c0.4-0.1,0.6-0.4,0.8-0.7
		C24.7,21.6,23.9,20.8,23.7,20.8L23.7,20.8z M18.8,22.2c0-0.2-0.9-1.1-1-1c-0.3,0.2-0.6,0.4-0.8,0.7c-0.1,0.2,0.8,1,1,0.9
		C18.3,22.7,18.6,22.5,18.8,22.2L18.8,22.2z M11.8,25.8c0-0.2-0.7-1-0.9-0.9c-0.4,0.1-0.7,0.3-0.8,0.7c-0.1,0.2,0.7,1,0.9,0.9
		C11.3,26.3,11.6,26.1,11.8,25.8L11.8,25.8z M13.2,25.1c-0.2,0.2-0.6,0.4-0.7,0.7c0,0.2,0.7,0.9,0.9,0.9s0.8-0.6,0.8-0.8
		C13.9,25.6,13.6,25.3,13.2,25.1L13.2,25.1z M12.7,16.2c-0.2,0-0.8,0.6-0.8,0.8c0,0.2,0.8,0.9,1,0.9c0.4-0.1,0.7-0.3,0.8-0.7
		C13.7,17,12.9,16.2,12.7,16.2L12.7,16.2z M17.5,16.8c-0.2,0.2-0.6,0.4-0.7,0.7c0,0.2,0.7,1,0.9,0.9c0.4-0.1,0.6-0.4,0.7-0.7
		C18.5,17.6,17.7,16.8,17.5,16.8L17.5,16.8z M20.9,18.1c0-0.3-0.7-1.1-0.9-1c-0.4,0.1-0.7,0.3-0.8,0.7c-0.1,0.2,0.7,1,0.9,0.9
		C20.4,18.7,20.7,18.4,20.9,18.1L20.9,18.1z M16.6,26.4c0-0.3-0.8-1-1-0.9c-0.4,0.1-0.7,0.3-0.7,0.7c0,0.2,0.8,1,0.9,0.9
		C16.1,26.9,16.4,26.7,16.6,26.4L16.6,26.4z M16.3,15.6c-0.3,0.1-0.6,0.4-0.8,0.7c0,0.2,0.7,1,0.9,0.9c0.4-0.1,0.7-0.3,0.8-0.7
		C17.3,16.4,16.5,15.6,16.3,15.6L16.3,15.6z M9.3,19.2c-0.3,0.1-0.6,0.4-0.7,0.7c-0.1,0.2,0.8,1.1,0.9,1c0.3-0.1,0.6-0.4,0.8-0.7
		C10.3,19.9,9.6,19.2,9.3,19.2L9.3,19.2z M14.5,19.5c0,0.2,0.7,0.9,0.9,0.9c0.4-0.1,0.7-0.3,0.8-0.7c0.1-0.1-0.7-0.9-0.9-1
		C15,18.9,14.7,19.1,14.5,19.5z M16,15.4c0-0.3-0.7-1.1-0.9-1.1c-0.4,0.1-0.6,0.4-0.8,0.7c-0.1,0.2,0.7,1,0.9,0.9
		C15.5,15.9,15.8,15.7,16,15.4L16,15.4z M23.6,18.6c-0.2,0.2-0.7,0.3-0.7,0.7c0,0.2,0.8,1,1,0.9c0.3-0.1,0.6-0.4,0.7-0.7
		C24.6,19.4,23.8,18.6,23.6,18.6L23.6,18.6z M19.3,26.9c-0.3,0.2-0.6,0.4-0.8,0.7c0,0.2,0.8,1,0.9,0.9c0.4-0.1,0.7-0.3,0.8-0.7
		C20.3,27.7,19.4,26.9,19.3,26.9z M14.4,26.3c-0.3,0.2-0.6,0.4-0.7,0.7c-0.1,0.2,0.7,1,0.9,0.9c0.4-0.1,0.7-0.3,0.8-0.7
		C15.4,27.1,14.6,26.3,14.4,26.3L14.4,26.3z M10.7,22.1c0.3-0.2,0.6-0.4,0.8-0.7c0-0.2-0.7-0.9-0.9-0.9S9.8,21,9.8,21.2
		C10,21.5,10.4,21.9,10.7,22.1z M26.3,22.8c0.2-0.2,0.6-0.3,0.7-0.7c0-0.2-0.8-1-1-0.9c-0.3,0.2-0.7,0.4-0.7,0.7
		C25.3,22,26.1,22.8,26.3,22.8L26.3,22.8z M13.3,27.4c-0.3,0.1-0.7,0.3-0.7,0.7c0.1,0.4,0.5,0.7,0.9,1c0.1,0.1,0.8-0.6,0.8-0.7
		C14.1,27.8,13.7,27.5,13.3,27.4L13.3,27.4z M11.8,21.7c-0.2,0.2-0.6,0.3-0.7,0.7c-0.1,0.2,0.8,1,0.9,1c0.3-0.1,0.6-0.4,0.8-0.7
		C12.8,22.4,12.1,21.7,11.8,21.7L11.8,21.7z M19,22.5c-0.3,0.2-0.5,0.4-0.7,0.7c-0.1,0.1,0.7,0.9,0.9,0.9c0.2,0,0.9-0.5,0.9-0.7
		C19.7,23,19.4,22.7,19,22.5L19,22.5z M29.6,24.6c0-0.3-0.8-1.1-1-1c-0.4,0.1-0.6,0.3-0.7,0.7c0,0.2,0.8,1,1,0.9
		C29.2,25.2,29.4,24.9,29.6,24.6L29.6,24.6z M18.4,15.6c-0.2-0.4-0.5-0.8-1-1c-0.3,0-0.8,0.6-0.8,0.8s0.9,0.9,1,0.8
		C17.9,16.1,18.2,15.9,18.4,15.6L18.4,15.6z M15.1,16.6c-0.3,0.2-0.6,0.3-0.7,0.7c0,0.2,0.8,1,0.9,0.9c0.3-0.2,0.7-0.3,0.8-0.7
		C16.1,17.3,15.3,16.6,15.1,16.6L15.1,16.6z M25.8,20.9c0-0.3-0.7-1.1-0.9-1c-0.4,0.1-0.7,0.4-0.8,0.7c-0.1,0.2,0.8,1,0.9,0.9
		C25.3,21.4,25.6,21.2,25.8,20.9L25.8,20.9z M14.1,17c0.2-0.2,0.6-0.4,0.7-0.7c0.1-0.2-0.7-1-0.9-0.9c-0.4,0.1-0.7,0.3-0.8,0.6
		C13,16.1,13.9,17,14.1,17L14.1,17z M17.8,27.6c0-0.3-0.7-1-0.9-0.9c-0.3,0.1-0.6,0.3-0.7,0.7c-0.1,0.2,0.7,1.1,0.9,1
		C17.4,28.2,17.7,27.9,17.8,27.6L17.8,27.6z M9.4,21.4c-0.3,0.2-0.6,0.4-0.7,0.7c0,0.2,0.7,0.9,0.9,0.9c0.3-0.1,0.6-0.3,0.7-0.7
		C10.4,22.1,9.6,21.3,9.4,21.4L9.4,21.4z M25.2,23.7c0.3-0.2,0.7-0.4,0.7-0.7c-0.1-0.4-0.4-0.8-0.9-0.9c-0.4,0-0.7,0.3-0.8,0.7
		C24.2,23,24.9,23.7,25.2,23.7L25.2,23.7z M9.1,21.1c0-0.2-0.7-1-0.9-1c-0.4,0.1-0.7,0.3-0.8,0.7c-0.1,0.2,0.7,1,0.9,0.9
		C8.6,21.7,8.9,21.4,9.1,21.1L9.1,21.1z"/>
	<path id="Path_11594" class="st0" d="M26.7,12.6c-0.3,0.2-0.3,0.8-0.6,0.8c-0.2,0-0.4-0.4-0.7-0.6c-0.6-0.6-1.4-1-2.2-1.3
		c-0.2-0.1-0.5,0-0.4-0.3c0-0.2,0.2-0.4,0.4-0.5c0.2,0,0.3-0.2,0.5-0.3c0.1,0.2,0.1,0.5,0.4,0.5s0.3-0.2,0.4-0.4
		c0.7-1.3,1.1-2.8,1.3-4.3c-0.8,1.2-1.5,2.6-1.9,4c-0.1-1.4,1-2.7,0.6-4.2c-0.6,1.3-0.9,2.6-1.1,4c-0.1-0.4-0.1-0.7,0-1.1
		c0.1-0.3,0.1-0.6,0.1-1c0.2-2,0.4-4,0.6-6c0-0.3,0.1-0.5,0.2-0.7c0.4-0.5,0.6-0.5,1,0c0.2,0.4,0.4,0.3,0.7,0.1
		c0.5-0.4,0.9-0.4,1.1,0.4c0.1,0.5,0.4,0.6,0.8,0.4c0.6-0.4,1-0.1,1.1,0.5c0,0.3,0.3,0.5,0.6,0.5c0.1,0,0.2,0,0.2-0.1
		c0.6-0.2,0.9,0,0.9,0.6s0.5,0.6,0.9,0.5c0.5-0.1,0.8,0.1,0.8,0.6s0.2,0.9,0.8,0.8c0.5-0.1,0.6,0.2,0.6,0.6c0,0.3-0.1,0.7,0.4,0.8
		c0.2,0,0.6-0.1,0.6,0.3c0,0.3-0.1,0.7-0.4,0.9c-0.4,0.2-0.8,0.5-1.2,0.7c-2,1.2-4.2,2.2-6.1,3.6c-0.1,0.1-0.2,0.1-0.3,0.1
		c1.2-0.7,2.3-1.6,3.2-2.7c0.3-0.2,0.6-0.4,0.7-0.7L30,9.7c-1.2,0.7-2.4,1.5-3.4,2.5C26.3,12.4,26.4,12.5,26.7,12.6z M29.9,8.1
		c-1.5,0.9-2.8,2.1-3.9,3.5c-0.1,0.1-0.4,0.3-0.1,0.5s0.4,0.1,0.6-0.1C27.8,10.8,28.9,9.5,29.9,8.1L29.9,8.1z M27.3,6.3
		c-0.5,0.6-1,1.2-1.4,1.8c-0.5,0.7-0.8,1.6-1.2,2.4c-0.1,0.2-0.4,0.5,0,0.7c0.3,0.1,0.4-0.2,0.5-0.4C26.1,9.4,26.8,7.9,27.3,6.3
		L27.3,6.3z M28.4,7.4c-0.5,0.3-0.6,0.7-0.9,0.9c-0.9,0.9-1.6,1.8-2.2,2.9c-0.1,0.1-0.1,0.2,0,0.3c0,0,0,0,0.1,0.1s0.3,0.1,0.4,0
		C26.8,10.3,27.7,8.9,28.4,7.4L28.4,7.4z M31.1,8.9L31.1,8.9L31.1,8.9L31.1,8.9z"/>
	<path id="Path_11595" class="st0" d="M35.8,39.2c-0.6,0.1-1.2-0.1-1.6-0.6c-1.2-1.2-2.5-2.4-3.7-3.6c-0.6-0.6-1.5-0.9-2-1.6
		c-0.1-0.2-0.3-0.1-0.5,0c-3.7,2.2-8.3,2.1-11.9-0.2c-5.6-3-9.8-8.1-11.6-14.2c-0.8-2.1-0.5-4.5,0.7-6.5c1.6-2.5,4.5-3.8,7.5-3.4
		c2.8,0.3,5.5,1.3,7.9,2.8l0.2,0.1c0.2,0.1,0.4,0.3,0.2,0.6c-0.2,0.3-0.4,0.2-0.6,0c-1.5-0.9-3.2-1.6-4.9-2.1
		c-1.8-0.6-3.7-0.8-5.6-0.4c-3.3,0.8-5.4,4-4.8,7.4c0.5,3,1.7,5.7,3.6,8.1c2,2.9,4.7,5.3,7.8,7c2.5,1.4,5.4,1.9,8.2,1.3
		c4.1-0.8,6.8-4.7,6-8.8c-0.1-0.3-0.1-0.6-0.2-0.9c-0.9-3.1-2.7-5.9-5.2-8.1c-0.1-0.1-0.5-0.2-0.2-0.5s0.5-0.2,0.7,0
		c2.8,2.3,4.8,5.5,5.6,9c0.6,2.5,0,5.2-1.8,7.2c-0.4,0.4-0.2,0.6,0.1,1c1.8,2.2,3.9,4,5.8,5.9L35.8,39.2z"/>
	<path id="Path_11596" class="st0" d="M23.9,15.5c-1.2,0.1-2.2-0.8-2.3-2c0-0.3,0-0.6,0.1-0.9c0.1-0.3,0.3-0.5,0.7-0.4
		c1.1,0.3,2.1,1,2.8,1.8c0.3,0.3,0.2,0.5,0,0.8C24.9,15.2,24.4,15.4,23.9,15.5z"/>
	<path id="Path_11597" class="st0" d="M25.8,32.6c-0.2,0.3-0.4,0.4-0.7,0c-0.3-0.4-0.5-0.9-1.1-0.8l0,0c0.1-0.6-0.5-0.7-0.7-1.1
		l0.1-0.1c0.2,0,0.3,0.1,0.4,0.3c0.2,0.3,0.6,0.5,0.9,0.3c0.1,0,0.2-0.1,0.2-0.2l0,0c-0.3,0.5-0.1,1.2,0.5,1.5
		C25.5,32.6,25.7,32.6,25.8,32.6L25.8,32.6z"/>
	<path id="Path_11598" class="st0" d="M11.1,12.9c-0.1,0.2-0.2,0.2-0.4,0.4C10.7,12.9,10.8,12.8,11.1,12.9L11.1,12.9z"/>
	<path id="Path_11599" class="st0" d="M28.6,30.2c0,0.1,0,0.3-0.2,0.2L28.6,30.2L28.6,30.2z"/>
	<path id="Path_11600" class="st0" d="M26.2,32.3c-0.1,0.2-0.2,0.3-0.4,0.3l0,0C25.9,32.4,26,32.3,26.2,32.3z"/>
	<path id="Path_11601" class="st0" d="M6.1,17v0.1C6,17.1,6.1,17.1,6.1,17L6.1,17z"/>
	<path id="Path_11602" class="st0" d="M28,20.6C27.9,20.6,27.9,20.6,28,20.6L28,20.6L28,20.6L28,20.6z"/>
	<path id="Path_11603" class="st0" d="M9.3,25L9.3,25C9.2,25,9.2,24.9,9.3,25L9.3,25z"/>
	<path id="Path_11604" class="st0" d="M9.5,11.8L9.5,11.8C9.4,11.8,9.5,11.8,9.5,11.8L9.5,11.8z"/>
	<path id="Path_11605" class="st0" d="M31.1,8.9L31.1,8.9L31.1,8.9L31.1,8.9z"/>
	<path id="Path_11606" class="st0" d="M21,29.9c-0.1-0.3,0.1-0.3,0.3-0.3L21,29.9z"/>
	<path id="Path_11607" class="st0" d="M8.8,16.2c0.2,0.2,0.5,0.2,0.8,0c-0.1,0.2-0.1,0.5,0,0.8c-0.3,0-0.5-0.2-0.8,0
		C8.9,16.8,8.9,16.5,8.8,16.2z"/>
	<path id="Path_11608" class="st0" d="M8.6,16c0.2,0,0.3,0.1,0.3,0.3C8.6,16.3,8.5,16.2,8.6,16z"/>
	<path id="Path_11609" class="st0" d="M8.7,14.8l-0.3,0.3C8.4,14.9,8.5,14.8,8.7,14.8z"/>
	<path id="Path_11610" class="st0" d="M9.6,16.3C9.7,16.1,9.8,16,10,16C10,16.2,9.9,16.3,9.6,16.3z"/>
	<path id="Path_11611" class="st0" d="M18.9,26.3c-0.1,0-0.3-0.1-0.3-0.3C18.9,26,19,26.1,18.9,26.3z"/>
	<path id="Path_11612" class="st0" d="M18.7,26.1c-0.1,0-0.3-0.1-0.3-0.3C18.6,25.8,18.7,25.8,18.7,26.1z"/>
</g>
</svg>
