<?xml version="1.0" encoding="utf-8"?>
<!-- Generator: Adobe Illustrator 27.4.0, SVG Export Plug-In . SVG Version: 6.00 Build 0)  -->
<svg version="1.1" id="Layer_1" xmlns="http://www.w3.org/2000/svg" xmlns:xlink="http://www.w3.org/1999/xlink" x="0px" y="0px"
	 viewBox="0 0 40 40" style="enable-background:new 0 0 40 40;" xml:space="preserve">
<style type="text/css">
	.st0{fill:#3f4891;}
</style>
<g id="basket_ball" transform="translate(0.028 0.006)">
	<path id="Path_19852" class="st0" d="M27.4,39.9c-0.6-0.4-1.3-0.9-1.7-1.6c-0.3-0.3-0.5-0.3-0.9,0c-0.4,0.4-0.7,1.2-1.4,1.2
		c-0.6,0-0.8-0.7-1.4-1.2c-0.4-0.4-0.6-0.3-0.9,0c-0.4,0.4-0.7,1.2-1.4,1.2c-0.6,0-0.8-0.7-1.4-1.2c-0.3-0.3-0.5-0.3-0.9,0
		c-0.4,0.4-0.8,1.3-1.4,1.2c-0.5-0.1-0.9-0.7-1.4-1.2c-0.3-0.4-0.5-0.3-0.8,0c-0.2,0.6-0.7,1.2-1.3,1.7c-0.2-0.3-0.2-0.7-0.2-1
		c0-3,0-6.2,0-9.2c0-1-0.3-2.2-0.7-3.1c-0.2-0.5-0.4-1-0.6-1.6c-0.2-0.7-0.5-1.3-1.5-1c-0.3,0.1-0.4-0.1-0.4-0.4
		c0-0.3,0.2-0.4,0.5-0.3h20.6c0.2,0,0.3,0.1,0.4,0.3v0.1c0,0.2-0.1,0.4-0.4,0.3c-1.2-0.2-1.4,0.5-1.7,1.4c-0.9,2.1-1.4,4.4-1.3,6.6
		C27.5,34.4,27.4,37.2,27.4,39.9z M14.6,24.8c-0.4,1.2-0.8,2.2-1.3,3.1c-0.1,0.3,0.8,1.7,1.3,1.7c0.6-0.4,1.2-1,1.2-1.9
		C15.4,26.9,15.1,26,14.6,24.8L14.6,24.8z M18.1,24.9c-0.3,0.8-0.6,1.7-0.9,2.5c-0.4,0.5-0.2,1.3,0.3,1.7c0,0,0.1,0,0.1,0.1
		c0.2,0.2,0.4,0.7,0.7,0.4c0.4-0.3,1.3-0.7,1-1.3C19.2,27.1,18.6,26,18.1,24.9L18.1,24.9z M21.7,29.6c0.4,0,1.4-1.3,1.2-1.7
		c-0.3-0.8-0.6-1.6-0.9-2.3c-0.1-0.1-0.1-0.3-0.3-0.3c-0.2,0-0.2,0.2-0.3,0.3c-0.3,0.8-0.6,1.7-0.9,2.5
		C20.3,28.4,21.4,29.6,21.7,29.6L21.7,29.6z M25.3,25c-0.4,0.7-0.8,1.6-1,2.4c-0.4,0.5-0.3,1.2,0.2,1.6c0,0,0.1,0.1,0.2,0.1
		c0.3,0.2,0.4,0.7,0.8,0.4c0.6-0.3,1.2-1.2,0.9-1.7C26.1,27,25.8,26.1,25.3,25L25.3,25z M12.9,27.3c0.2-0.6,0.4-1.2,0.6-1.6
		c0.7-2,0.7-2-1.4-1.9H12c-0.3,0-0.4,0.1-0.3,0.4C11.9,25.3,12.4,26.4,12.9,27.3L12.9,27.3z M27,27.4c0.2-0.6,0.5-1.2,0.6-1.7
		c0.6-2,1.2-1.8-1.4-1.8c-0.4,0-0.6,0.1-0.4,0.5L27,27.4z M16.3,27.2c0.3-0.5,0.5-1,0.7-1.6c0.7-1.9,0.7-1.9-1.4-1.8
		c-0.5,0-0.6,0.2-0.4,0.6C15.6,25.4,15.9,26.4,16.3,27.2L16.3,27.2z M23.6,23.9h-0.8c-0.2,0-0.4,0.1-0.3,0.4
		c0.3,0.8,0.6,1.7,0.9,2.4c0.1,0.3,0.3,0.3,0.4,0c0.2-0.5,0.4-1,0.6-1.6C24.8,23.9,24.8,23.9,23.6,23.9L23.6,23.9z M20,23.9h-0.6
		c-0.6,0-0.7,0.2-0.5,0.7c0.3,0.6,0.5,1.3,0.7,2c0.1,0.2,0.1,0.4,0.3,0.4c0.2,0,0.2-0.2,0.3-0.4c0.2-0.5,0.3-0.9,0.5-1.5
		C21.4,23.8,21.4,23.9,20,23.9L20,23.9z M24.6,37.4c-0.3-0.4-0.6-0.8-1.2-1.2c-0.5,0.2-0.9,0.6-1.2,1.2c0.3,0.4,0.7,0.8,1.2,1
		C24,38.2,24.4,37.8,24.6,37.4L24.6,37.4z M15.7,32c-0.3-0.4-0.6-0.8-1-1.2c-0.2,0-1.3,0.9-1.2,1.2c0.2,0.5,0.6,0.9,1,1.2
		C14.7,33.3,15.7,32.2,15.7,32L15.7,32z M16.3,32.7c-0.4,0.3-0.7,0.7-1,1.2c0.2,0.5,0.6,0.9,1.2,1.2c0.5-0.3,0.8-0.7,1-1.3
		C17.2,33.3,16.8,32.9,16.3,32.7L16.3,32.7z M19.9,38.5c0.4-0.3,0.8-0.6,1.2-1.2c0-0.3-0.9-1.2-1.2-1.2c-0.4,0.3-0.8,0.6-1,1.2
		C19.1,37.9,19.5,38.2,19.9,38.5L19.9,38.5z M21,33.8c-0.2-0.5-0.6-0.8-1-1.2c-0.5,0.2-0.9,0.6-1.2,1c0.2,0.4,0.6,0.8,1,1.2
		C20.4,34.7,20.7,34.3,21,33.8L21,33.8z M18.2,30.9c-0.4,0.2-0.8,0.6-1.2,1c0.2,0.4,0.6,0.8,1,1.2c0.2,0,1.2-0.8,1.2-1.2
		C19.1,31.6,18.6,31.2,18.2,30.9L18.2,30.9z M19.3,35.6c-0.2-0.5-0.6-0.9-1-1.2c-0.5,0.3-0.8,0.6-1.2,1.2c0.2,0.5,0.6,0.8,1,1.2
		C18.6,36.5,19,36.1,19.3,35.6L19.3,35.6z M17.5,30.3c-0.3-0.4-0.7-0.8-1.2-1.2c-0.4,0.3-0.7,0.7-1,1.2c0.3,0.4,0.6,0.8,1,1.2
		C16.9,31.1,17.3,30.7,17.5,30.3L17.5,30.3z M21.7,36.7c0.5-0.2,0.8-0.6,1.2-1c-0.2-0.5-0.6-0.8-1-1.2c-0.5,0.2-0.8,0.6-1.2,1
		C20.6,35.8,21.5,36.7,21.7,36.7L21.7,36.7z M26.4,35.6c-0.2-0.4-0.6-0.8-1.2-1.2c-0.4,0.2-0.8,0.6-1,1.2c0.2,0.5,0.6,0.8,1.2,1.2
		C25.8,36.4,26.2,36,26.4,35.6L26.4,35.6z M16.3,36.2c-0.4,0.3-0.8,0.7-1,1.2c0.3,0.4,0.6,0.8,1,1.2c0.5-0.3,0.8-0.7,1.2-1.3
		C17.2,36.9,16.8,36.5,16.3,36.2L16.3,36.2z M23.5,35c0.4-0.2,0.8-0.6,1.2-1.2c-0.2-0.5-0.6-0.8-1-1.2c-0.5,0.2-0.8,0.6-1.2,1.2
		C22.6,34.3,23,34.7,23.5,35L23.5,35z M20,31.4c0.4-0.3,0.8-0.6,1.2-1.2c-0.3-0.5-0.6-0.8-1.2-1.2c-0.4,0.3-0.8,0.6-1,1.2
		C19.1,30.8,19.5,31.1,20,31.4L20,31.4z M24.7,30.3c-0.3-0.4-0.7-0.8-1.2-1c-0.4,0.2-0.8,0.6-1.2,1c0.3,0.5,0.6,0.8,1.2,1.2
		C24,31.1,24.4,30.7,24.7,30.3L24.7,30.3z M14.6,34.4c-0.2,0-1.2,1-1,1.3c0.3,0.4,0.6,0.8,1.2,1.2c0.1,0.1,1-1,1-1.3
		C15.4,35.1,15.1,34.8,14.6,34.4L14.6,34.4z M26.4,32.1c-0.2-0.4-0.6-0.8-1-1.2c-0.4,0.2-0.8,0.6-1.2,1.2c0.2,0.5,0.6,0.8,1,1.2
		C25.8,33,26.2,32.6,26.4,32.1L26.4,32.1z M22.8,32c-0.2-0.5-0.6-0.8-1-1.2c-0.5,0.2-0.8,0.6-1.2,1c0.2,0.5,0.6,0.8,1,1.2
		C22.2,33,22.6,32.6,22.8,32z M26.7,37.4c-0.1-0.2,0.2-0.6-0.2-0.6c-0.3,0-0.5,0.3-0.5,0.6c0,0.3,0.3,0.6,0.6,0.6l0,0
		C26.8,38,26.7,37.6,26.7,37.4L26.7,37.4z M26.7,33.8c-0.1-0.2,0.1-0.5-0.2-0.5c-0.3,0-0.5,0.3-0.5,0.6c0,0.3,0.3,0.5,0.6,0.5
		C26.9,34.4,26.7,34,26.7,33.8L26.7,33.8z M13.2,37.4c0.1,0.2-0.1,0.5,0.2,0.5c0.3,0,0.5-0.2,0.5-0.5c0-0.3-0.2-0.5-0.5-0.5
		C13.1,36.9,13.2,37.3,13.2,37.4L13.2,37.4z M13.2,33.9c0.1,0.2-0.1,0.5,0.2,0.5c0.3,0,0.5-0.3,0.5-0.6s-0.2-0.5-0.5-0.5l0,0
		C13.1,33.3,13.2,33.7,13.2,33.9L13.2,33.9z M13.5,29.7c-0.3,0-0.3,0.3-0.3,0.4c0,0.1-0.1,0.6,0.2,0.6c0.3,0,0.5-0.2,0.6-0.5
		C14.1,29.9,13.6,29.8,13.5,29.7L13.5,29.7z M26.7,30.4c-0.1-0.2,0.2-0.6-0.2-0.6c-0.3,0-0.5,0.3-0.5,0.5c0,0.3,0.2,0.5,0.5,0.6
		C26.8,30.9,26.7,30.6,26.7,30.4L26.7,30.4z"/>
	<path id="Path_19853" class="st0" d="M23,11.5c-4-0.1-8-0.9-11.8-2.2c-0.5-0.2-0.7-0.4-0.6-0.9c0.3-2.3,1.4-4.3,3.1-5.9
		c0.3-0.3,0.8-0.4,1.2-0.2c2,0.9,3.9,2.2,5.4,3.7c0.9,0.7,1.9,1.5,2.8,2.2c0.5,0.4,1,0.7,1.8,0.8c0.8,0.1,0.9,0.5,0.8,1.2
		c0,0.2-0.1,0.4-0.1,0.7c0,0.5-0.3,0.6-0.7,0.6C24.3,11.5,23.7,11.5,23,11.5z"/>
	<path id="Path_19854" class="st0" d="M15.2,17.4c-0.3,0-0.6-0.1-0.9-0.3c-2.1-1.6-3.5-4-3.7-6.6c-0.1-0.6,0.2-0.5,0.6-0.4
		c2.5,0.8,5.1,1.5,7.8,1.8c1.9,0.2,3.8,0.4,5.8,0.4c0.6,0,0.8,0,0.6,0.7s-0.4,1.2-1.3,1.3c-1.6,0.4-3,0.9-4.4,1.8
		C18.2,16.7,16.8,17.3,15.2,17.4L15.2,17.4z"/>
	<path id="Path_19855" class="st0" d="M25.6,7.3c0.1,1.2,0,1.2-0.8,0.8c-0.8-0.3-1.6-0.8-2.3-1.5c-0.9-0.7-1.9-1.6-2.7-2.3
		c-1.3-1-2.5-1.9-4-2.6c-0.2-0.1-0.4-0.1-0.4-0.4c0-0.1,0.2-0.2,0.3-0.3c2.2-1.2,4.8-1.4,7.2-0.5c0.3,0.1,0.5,0.3,0.7,0.6
		C24.7,3.1,25.3,5.1,25.6,7.3z"/>
	<path id="Path_19856" class="st0" d="M16.4,18.1c2.4-0.7,4.7-1.7,7-2.8c0.4-0.1,0.8-0.4,1.2-0.2c0.2,0.3-0.2,0.7-0.3,1
		c-0.5,2-2.5,3.2-4.5,2.8C18.5,19,17.4,18.7,16.4,18.1L16.4,18.1z"/>
	<path id="Path_19857" class="st0" d="M20,21.3h10.1c0.2,0,0.6-0.2,0.6,0.3c0,0.5-0.4,0.4-0.6,0.4H9.8c-0.3,0-0.6,0.1-0.6-0.3
		s0.4-0.3,0.6-0.3C13.3,21.3,16.6,21.3,20,21.3z"/>
	<path id="Path_19858" class="st0" d="M24.8,1.8c1.7,0.8,2.9,2.2,3.6,3.9c0.2,1-0.3,2.2-1.3,2.7c-0.5,0.2-0.7,0.1-0.8-0.5
		c-0.1-1.4-0.3-2.7-0.7-4C25.4,3.1,25.1,2.5,24.8,1.8z"/>
	<path id="Path_19859" class="st0" d="M29.1,7.5c0.3,1,0.3,2.1,0.2,3.2c0,0.3-0.2,0.5-0.5,0.5c-0.2,0-0.4,0-0.7,0.1
		c-1.8,0.1-1.8,0.1-1.6-1.8c0-0.1,0-0.3,0.2-0.3C27.8,9.1,28.7,8.5,29.1,7.5L29.1,7.5z"/>
	<path id="Path_19860" class="st0" d="M26,13.8c0-0.1,0-0.2,0.1-0.3c0.1-0.4,0-1.2,0.4-1.3c0.7-0.2,1.6-0.2,2.3-0.2
		c0.3,0,0.2,0.2,0.1,0.4c-0.1,0.3-0.2,0.7-0.4,1c-0.6,1.5-0.9,1.6-2.4,0.8C25.9,14.2,25.9,14.2,26,13.8z"/>
	<path id="Path_19861" class="st0" d="M24.4,17.8c0.4-0.8,0.7-1.7,1-2.4c0.1-0.2,0.2-0.4,0.4-0.3c0.4,0.1,0.8,0.1,1.2,0.4
		c0.2,0.3-0.2,0.4-0.3,0.6C26.1,16.8,25.2,17.4,24.4,17.8z"/>
</g>
</svg>
