<?xml version="1.0" encoding="utf-8"?>
<!-- Generator: Adobe Illustrator 27.4.0, SVG Export Plug-In . SVG Version: 6.00 Build 0)  -->
<svg version="1.1" id="Layer_1" xmlns="http://www.w3.org/2000/svg" xmlns:xlink="http://www.w3.org/1999/xlink" x="0px" y="0px"
	 viewBox="0 0 40 40" style="enable-background:new 0 0 40 40;" xml:space="preserve">
<style type="text/css">
	.st0{fill:#3f4891;}
</style>
<g id="Boxing" transform="translate(-0.008 0.029)">
	<path id="Path_11593" class="st0" d="M11.6,7.4C13,7.3,14.3,7.9,15.2,9c3.5,3.8,6.3,8.2,8.4,12.9c0.6,1.5,0.5,2-0.8,2.9L14.5,31
		c-0.5,0.6-1.4,0.6-1.9,0.1c0,0,0,0-0.1-0.1c-4.1-3-7.6-6.8-10.3-11.1c-1.3-1.9-1.2-4.4,0-6.3c1.7-3.2,4.7-5.5,8.3-6.1
		c0.1,0,0.2,0,0.3,0L11.6,7.4z"/>
	<path id="Path_11594" class="st0" d="M24.2,24.8c0.3,0,0.6,0.1,0.8,0.4c1.1,1.5,2.3,3,3.4,4.5c0.3,0.3,0.3,0.8,0,1.2
		c0,0-0.1,0.1-0.2,0.1c-3,2.3-6,4.6-9,6.8c-0.3,0.3-0.8,0.3-1.1,0C18,37.7,18,37.7,18,37.6c-1.1-1.5-2.3-3-3.4-4.5
		c-0.4-0.6-0.4-0.9,0.2-1.3c3-2.3,5.9-4.5,8.9-6.7C23.8,24.9,24,24.8,24.2,24.8z"/>
	<path id="Path_11595" class="st0" d="M29,7.6c1.5,1.9,3.6,3.1,5.9,3.4c1.6,0.4,1.8,0.9,0.8,2.3c-1.5,2.2-3.1,4.4-4.6,6.6
		c-0.3,0.7-1.1,1-1.8,0.6l0,0c-1.3-0.4-2.6-1-3.8-1.6c-0.2-0.1-0.4-0.3-0.4-0.5c0-1.2-0.4-2.4-0.9-3.4c-0.2-0.3-0.2-0.5,0.2-0.7
		c2.1-1.5,3.7-3.7,4.4-6.2C28.9,7.9,28.9,7.7,29,7.6z"/>
	<path id="Path_11596" class="st0" d="M27.8,5.1c-0.1,0.4,0,0.8,0.2,1.1c0.4,0.5,0.5,1.3,0.2,1.9c-0.7,2.2-2.1,4.1-4,5.5
		c-0.3,0.2-0.5,0.2-0.8-0.1c-0.8-1.1-1.7-2.1-2.8-2.9c-0.7-0.6-1.8-0.7-2.6-0.3c-0.2,0.1-0.4,0.6-0.7,0.3s-0.8-0.7-0.6-1.3
		c0-0.2,0.1-0.3,0.1-0.5c0.9-3,3.1-5.3,5.9-6.5c1.7-0.8,3.7-0.1,4.7,1.5C27.7,4.2,28,4.6,27.8,5.1z"/>
	<path id="Path_11597" class="st0" d="M29.9,7.6L30.7,8c0.2,0.1,0.5,0.2,0.6-0.1S31.2,7.5,31,7.4c-0.6-0.3-1.1-0.5-1.7-0.8
		c-0.7-0.2-1.1-0.9-0.9-1.5c0-0.1,0.1-0.3,0.2-0.4c0.1-0.3,0.3-0.6,0.4-0.9c0.2-0.5,0.8-0.7,1.3-0.6c1.6,0.5,3.1,1.4,4.2,2.6
		c1,1.1,1.5,2.6,1.4,4.2c0,0.2,0.1,0.6-0.4,0.5c-1.5-0.3-3-0.9-4.5-1.7C30.5,8.5,30.1,8.1,29.9,7.6L29.9,7.6z"/>
	<path id="Path_11598" class="st0" d="M38.7,17.2v0.3c0.1,1.1,0.1,2.3-0.1,3.4C38,22,37.3,23.1,36.5,24c-0.1,0.1-0.1,0.1-0.2,0.2
		c-0.2,0.2-0.3,0.4-0.6,0.2c-0.2-0.1,0-0.4,0.1-0.5c0.6-1.1,1.2-2.3,1.8-3.4c0.4-0.8,0.3-1.2-0.4-1.7c-0.5-0.4-1-0.7-1.6-1.1
		c-0.5-0.4-1.2-0.4-1.7,0.1c-0.1,0.1-0.1,0.2-0.2,0.3c-0.7,0.9-1.3,1.9-2,2.8c-0.1,0.2-0.2,0.6-0.5,0.4s-0.1-0.5,0.1-0.7l3.8-5.4
		c0.5-0.7,1-1.4,1.5-2.1c0.2-0.4,0.6-0.5,1-0.4c0.1,0,0.2,0.1,0.2,0.2c0.6,0.3,0.9,0.9,0.8,1.5C38.6,15.3,38.7,16.2,38.7,17.2z"/>
	<path id="Path_11599" class="st0" d="M24.6,18.6c0,0.7-0.2,1.4-0.4,2.1c0,0.1-0.1,0.3-0.3,0.3c-0.1,0-0.2-0.2-0.3-0.3
		c-1.5-3.3-3.4-6.3-5.6-9.2c-0.2-0.3-0.2-0.5,0.1-0.7c0.5-0.4,1.2-0.4,1.7,0c2.1,1.5,3.7,3.6,4.5,6c0.1,0.2,0.1,0.3,0.1,0.5
		C24.6,17.8,24.6,18.2,24.6,18.6z"/>
	<path id="Path_11600" class="st0" d="M37.2,20c0,0.1-0.1,0.3-0.2,0.4c-0.7,1.3-1.4,2.6-2,3.9c-0.2,0.4-0.4,0.4-0.7,0.2
		c-0.8-0.6-1.6-1.1-2.4-1.7c-0.3-0.2-0.3-0.4-0.1-0.7c0.9-1.2,1.8-2.5,2.6-3.7c0.2-0.3,0.5-0.5,0.9-0.2c0.6,0.4,1.1,0.8,1.7,1.2
		C37.1,19.5,37.2,19.7,37.2,20L37.2,20z"/>
	<path id="Path_11601" class="st0" d="M29.3,28.4c-0.1,0.2-0.2,0.3-0.4,0.4c-0.2,0.1-0.3,0.1-0.5-0.1c-0.8-1.1-1.7-2.2-2.5-3.3
		c-0.2-0.2,0-0.3,0.1-0.5c0.2-0.2,0.5-0.3,0.7,0c0.5,0.7,1.1,1.5,1.7,2.2l0.7,0.9C29.1,28.2,29.2,28.3,29.3,28.4z"/>
</g>
</svg>
