<svg xmlns="http://www.w3.org/2000/svg" xmlns:xlink="http://www.w3.org/1999/xlink" xml:space="preserve" version="1.1" style="shape-rendering:geometricPrecision;text-rendering:geometricPrecision;image-rendering:optimizeQuality;" viewBox="0 0 8227 9421.25" x="0px" y="0px" fill-rule="evenodd" clip-rule="evenodd"><defs><style type="text/css">
   
    .fil0 {fill:#3f4891;fill-rule:nonzero}
   
  </style></defs><g><path class="fil0" d="M3651 5103c-764,0 -1527,0 -2290,0 -219,0 -215,330 0,330 763,0 1527,0 2290,0 219,0 214,-330 0,-330z"/><path class="fil0" d="M3838 4881c127,-117 63,-156 -42,-234 -76,-56 -166,-123 -224,-232 -289,-541 406,-1166 93,-1867 -41,-92 -186,-234 -132,-325 34,-57 85,-81 116,-114 19,-20 19,-47 -47,-108 -367,-344 -619,-574 -1119,-667 -63,-12 -64,-11 -77,-73 -31,-149 -131,-554 -297,-628 -24,130 13,355 -104,457 -31,27 -63,22 -102,-3 -123,-76 -349,-336 -461,-367 10,88 117,341 141,393 16,34 27,58 -14,100 -123,127 -389,151 -547,137 -23,-2 -36,-15 -28,16 57,199 289,168 225,294 -186,370 -1261,1166 -1218,1410 13,69 71,380 127,429 46,40 126,13 185,44 62,32 88,97 109,108 108,53 248,-143 354,-292 158,-222 109,-178 334,-152 319,36 630,-170 748,-133 55,17 72,67 38,174 -130,416 -712,748 -887,1260 -63,184 -43,360 137,459 48,27 108,50 177,71l2145 -3c119,-30 273,-78 370,-154z"/><polygon class="fil0" points="6330,2273 5969,4391 7404,4391 7043,2273 "/><path class="fil0" d="M8125 6051l-2877 0c-137,0 -133,205 0,205l2877 0c137,0 134,-205 0,-205z"/><path class="fil0" d="M5917 4637l1539 0c96,-5 107,-172 -16,-172l-1512 0c-111,0 -113,162 -11,172z"/><path class="fil0" d="M5299 5977l2775 0 0 -645c0,-241 -196,-437 -437,-437 -106,-1 -198,-78 -216,-183l-1468 0c-19,105 -110,182 -217,183 -241,0 -437,196 -437,437l0 645z"/><path class="fil0" d="M7020 1858c339,-252 448,-680 124,-997 -252,-248 -663,-248 -915,0 -324,317 -215,745 124,997l-513 167c-122,54 -92,174 0,174l1693 0c83,0 130,-135 0,-174l-513 -167z"/><path class="fil0" d="M6718 7288l-3493 0c-166,0 -163,249 0,249l3493 0c166,0 163,-249 0,-249z"/><path class="fil0" d="M5447 2250l-951 0c-15,162 -112,243 -255,257l0 104c487,0 974,0 1461,0l0 -104c-143,-14 -240,-95 -255,-257z"/><path class="fil0" d="M5124 368c0,-518 -305,-462 -305,0 -233,77 -399,246 -429,497 112,47 203,116 298,198 15,-158 82,-416 282,-418 201,-1 270,258 285,417 92,-81 185,-152 298,-201 -31,-249 -197,-417 -429,-493z"/><path class="fil0" d="M5198 1247c-48,48 -66,26 -72,-37 18,-109 6,-471 -154,-472 -161,-1 -173,363 -155,472 -8,62 -26,82 -74,34 -98,-96 -277,-271 -412,-304 -80,-19 -78,96 -77,96 20,285 149,791 217,1125l1001 0c73,-374 145,-749 217,-1124 3,-77 -14,-107 -42,-109 -114,-6 -373,241 -449,319z"/><path class="fil0" d="M5832 4683l0 0 15 86c15,-18 27,-40 32,-64 -18,-5 -33,-13 -47,-22z"/><path class="fil0" d="M5225 5662l-1145 0c-68,396 -794,64 -794,753l0 783 3371 0 0 -783c0,-30 -2,-59 -4,-85l-1405 0c-227,0 -229,-329 -23,-352l0 -316z"/><path class="fil0" d="M5225 5363l-1175 0c-135,0 -136,196 -13,209l1188 0 0 -209z"/><path class="fil0" d="M5405 2700l-867 0 -437 2573 1127 0c30,-253 246,-451 507,-452 10,0 20,-1 30,-3l-360 -2118z"/><path class="fil0" d="M3197 6869l-2547 0c-176,0 -172,210 0,210l2547 0 0 -210z"/><path class="fil0" d="M716 6794l2481 0 0 -379c0,-690 773,-539 751,-689 -67,-23 -139,-37 -216,-37 -138,0 -257,-80 -280,-188l-1893 0c-23,107 -141,188 -280,188 -310,0 -563,201 -563,446l0 659z"/></g></svg>