<?xml version="1.0" encoding="utf-8"?>
<!-- Generator: Adobe Illustrator 27.4.0, SVG Export Plug-In . SVG Version: 6.00 Build 0)  -->
<svg version="1.1" id="Layer_1" xmlns="http://www.w3.org/2000/svg" xmlns:xlink="http://www.w3.org/1999/xlink" x="0px" y="0px"
	 viewBox="0 0 40 40" style="enable-background:new 0 0 40 40;" xml:space="preserve">
<style type="text/css">
	.st0{fill:#3f4891;}
</style>
<g id="Fencing" transform="translate(0 -0.37)">
	<path id="Path_20830" class="st0" d="M11.3,25.4c0,0.9,0.1,1.8,0,2.8c0,0.5-0.2,1.1-0.6,1.5c-1.8,2-3.7,4-5.6,6
		c-0.6,0.7-1.6,0.9-2.3,0.3c-0.1,0-0.1-0.1-0.2-0.1c-0.7-0.6-0.7-1.7-0.1-2.3c0-0.1,0.1-0.1,0.2-0.1C4.3,31.8,6,30,7.6,28.3
		c0.2-0.3,0.3-0.7,0.4-1c0-4.1,0-8.1,0.1-12.2C8,15,8,14.9,8,14.8c-0.2-0.1-0.5-0.1-0.7-0.2c-1.8-0.3-3.4-1.4-4.5-3
		c-1-1.6-1.6-3.5-1.6-5.5C1.1,5.4,1.7,4.6,2.6,4.5c0,0,0,0,0.1,0C3.6,4.4,4.4,5.1,4.5,6v0.1c0.1,0.7,0.2,1.4,0.3,2.1
		c0.4,2.3,2.6,3.7,4.8,3.3c0.2,0,0.4-0.1,0.6-0.1c1.2-0.3,2.5-0.1,3.5,0.7c1.5,0.9,3,1.6,4.5,2.3c0.2,0.1,0.5,0.1,0.7,0.1
		c1.2,0,2.4,0,3.6,0c0.7-0.1,1.4,0.3,1.8,0.9c0.1,0.2,0.3,0.2,0.6,0.4c0-0.6,0.1-1,0.1-1.5c0.6-0.1,1.1,0.3,1.3,0.8
		c0.2,0.5,0.4,0.6,0.9,0.6c3.6,0,7.3,0.1,10.9,0.2c0.3,0,0.5,0,0.8,0v0.2c-0.3,0-0.5,0.1-0.8,0.1c-3.6,0.1-7.3,0.1-10.9,0.2
		c-0.5,0-0.7,0.1-0.9,0.6c-0.2,0.5-0.7,0.9-1.3,0.9c0-0.4,0-0.9-0.1-1.5c-0.3,0.3-0.5,0.4-0.6,0.6c-0.3,0.6-0.9,1-1.6,1
		c-1.4,0-2.8,0.1-4.1,0c-0.8-0.1-1.6-0.4-2.4-0.7c-0.5-0.2-0.9-0.4-1.4-0.7c0,1.8,0,3.6,0,5.3c0,0.2,0.2,0.4,0.4,0.6
		c0.9,1,1.9,2,2.7,3.1c0.3,0.4,0.5,1,0.6,1.5c0.1,2.6,0,5.2,0,7.7c0.1,0.9-0.6,1.7-1.5,1.8h-0.1c-0.9,0-1.7-0.8-1.6-1.7v-0.1
		c0-2.2,0-4.4,0-6.6c0.1-0.5-0.1-1.1-0.5-1.4c-0.3-0.2-0.5-0.5-0.7-0.7c-0.4-0.9-1.4-1.3-2.3-0.9C11.6,25.2,11.4,25.3,11.3,25.4z"/>
	<path id="Path_20831" class="st0" d="M11.4,10.4c-1.7,0-3.1-1.4-3.1-3.1s1.4-3.1,3.1-3.1s3.1,1.4,3.1,3.1c0,0.8-0.3,1.6-0.9,2.2
		C13.1,10.1,12.3,10.4,11.4,10.4z"/>
</g>
</svg>
