<?xml version="1.0" encoding="utf-8"?>
<!-- Generator: Adobe Illustrator 27.4.0, SVG Export Plug-In . SVG Version: 6.00 Build 0)  -->
<svg version="1.1" id="Layer_1" xmlns="http://www.w3.org/2000/svg" xmlns:xlink="http://www.w3.org/1999/xlink" x="0px" y="0px"
	 viewBox="0 0 40 40" style="enable-background:new 0 0 40 40;" xml:space="preserve">
<style type="text/css">
	.st0{fill:#3f4891;}
</style>
<g id="Football" transform="translate(-47.979 956.673)">
	<path id="path18374" class="st0" d="M86.8-946c0,1.5-1.2,2.7-2.7,2.7s-2.7-1.2-2.7-2.7s1.2-2.7,2.7-2.7l0,0
		C85.5-948.7,86.8-947.5,86.8-946z"/>
	<path id="path18372" class="st0" d="M59.5-939.5c-1-0.7-2-1.3-3-1.8c-0.2-0.1-0.5-0.1-0.7,0c-0.3,0-0.6,0.1-0.9,0.3
		c-0.4,0.5-0.7,1.1-0.8,1.7H54l-0.2,0.7l0,0c-0.3,1-0.5,2.1-0.6,3.2c0,0.3-0.1,0.5-0.3,0.8c-0.1,0-0.2-0.1-0.5,0.2
		c-0.7,0-1.3-0.1-2-0.3c-0.2-0.1-0.4-0.2-0.6-0.2c-0.6-0.1-0.9,0.7-0.6,1.2c0.1,0.2,0.3,0.4,0.5,0.6h0.2c0.1,0.1,0.3,0.3,0.4,0.3
		v0.2h0.1l0.1-0.2l0.3,0.1v0.2H51l0.1-0.1c0.6,0.1,1.2,0.3,1.7,0.6v0.2l0.2,0.1l0.1-0.1l0.4,0.1v0.2h0.2l0.1-0.1
		c1.4-0.2,0.9-1,0.9-1.6h-0.1c0-0.8,0.3-1.6,0.8-2.2c0.7-0.7,1.1-1.6,1.1-2.6c0.1-0.1,0.3,0.2,0.5,0.5v0.3c0.5,0.3,1,0.7,1.4,1
		c0.5,0.5,1,1,1.7,1.3l0.1,0.2h0.2c0.3,0.2,0.5,0.6,0.7,1c0,0.3,0.2,0.5,0.5,0.6c0.2,0.9,0.9,1.5,1.8,1.6c0.3,0,0.6,0.1,0.8,0.3
		l-1.3,0.9l-2.4,1.2c-0.1,0-0.3,0-0.4,0.1c-0.1,0-0.2,0-0.3,0c-0.2,0-0.3,0-0.5-0.1c-0.1-0.1-0.3-0.2-0.4,0.1c0,0.1,0.1,0.4,0.8,0.6
		c0.3,0.3,0.7,0.3,1.1,0.3c0.3-0.1,0.5-0.1,0.8-0.1s0.5-0.2,0.6-0.4c1.5-0.1,3-0.6,4.3-1.5c0.5-0.2,1.1-0.1,1.6,0.1
		c0.8,0.2,1.7,0.2,2.5,0.1c0.9,0.2,1.7,0.2,2.6,0.1c0.2-0.1,0.4-0.2,0.6-0.2c-0.2,0.6,0.3,1,0.5,1.4c0,0.4,0.2,0.7,0.4,1.1
		c-0.1,0.4,0,0.9,0.3,1.3c0.1,0.8,0.5,1.5,1,2.2l1.5,2.6c0.1,0.2,0.2,0.5,0.2,0.8s0.2,0.5,0.5,0.5c1,0.1,1.5,0.7,2.2,1
		c0.2,0.1,0.4,0.2,0.6,0.1c0.4,0.1,0.5,0.1,0.6-0.1c0-0.1,0.2-0.2-0.3-0.3c-0.7-0.2-1.3-0.6-1.8-1.1c-0.2-0.2-0.5-0.4-0.7-0.6
		c-0.4-0.7-0.7-1.5-0.8-2.3c-0.1-1.1-0.4-2.2-0.9-3.2c0.2-0.1,0.3-0.1,0.5-0.1c0-0.2-0.1-0.4-0.1-0.6c-0.1-0.3-0.2-0.7-0.2-1
		c-0.2-0.7-0.4-1.3-0.8-1.9c0.1-2.2-0.6-3.1-1.7-3.4c0.7-0.2,1.3-0.7,1.6-1.4c0.3-0.7,0.3-1.5-0.1-2.1c-0.2-0.5-1.2-1.6-2-1.3
		c-0.3,0.2-0.7,0.4-0.9,0.7c-0.2,0.3-0.5,0.6-0.9,0.8c-0.5,0.4-0.8,1-0.9,1.6c-0.5,0-1,0-1.5,0.1l-1-0.2c0.2-0.2,0.4-0.6,0.5-0.9
		c0.1-0.1,0.2-0.1,0.2-0.4c0.3-0.4,0.6-0.9,0.8-1.4c0.1,0,0.3,0.1,0.4,0.1s0.1-0.6,0-0.7l-0.2-0.1c0.4-0.9,0.7-1.8,0.8-2.8
		c0.6-0.8,1-1.7,1.1-2.7c0.3-0.8,0.5-1.6,0.8-2.5c0.2,0,0.2-0.2,0.3-0.6c0.1-1.3,0.4-2.6,0.9-3.9c0.1-0.2,0.3-0.4,0.5-0.5
		c0.5-0.2,1-0.4,1.4-0.7c1.2-0.8,1.5-0.5,2.1-1.1c0.1-0.1,0.1-0.3,0-0.4c-0.1-0.1-0.2-0.2-0.4-0.2l-0.1-0.2h-0.1l-0.1,0.2h-0.3v-0.2
		h-0.2l-0.1,0.2c-0.4,0-0.4-0.1-0.5,0v-0.2c-0.1,0-0.1,0-0.2,0v0.2h-0.1v-0.2h-0.2c0,0.1-0.1,0.2-0.2,0.3c-0.6,0.2-1.2,0.3-1.8,0.1
		l-0.1-0.2H74v0.1h-0.3v-0.1h-0.3v0.1c-0.3,0.1-0.5,0.4-0.6,0.7s-0.1,0.6,0.1,0.9L73-952c-0.2,1-0.6,2-1.1,2.9
		c-0.2,0.4-0.5,0.9-0.8,1.2c-0.5,0.8-0.7,1.8-0.7,2.8L70-945v0.5h0.1l0.1,0.3c-0.4,0.5-0.7,1-1,1.6c-0.8,0.7-1.5,1.5-2.2,2.3
		c-0.4,0-0.9,0-1.3-0.1c-0.4,0.4-0.2,1.1-0.3,1.7c-0.1,0.2-0.3,0.4-0.6,0.6c-1.6,0-3.2-0.7-4.4-1.8C60-939.8,59.7-939.7,59.5-939.5
		L59.5-939.5z"/>
</g>
</svg>
