<?xml version="1.0" encoding="utf-8"?>
<!-- Generator: Adobe Illustrator 27.4.0, SVG Export Plug-In . SVG Version: 6.00 Build 0)  -->
<svg version="1.1" id="Layer_1" xmlns="http://www.w3.org/2000/svg" xmlns:xlink="http://www.w3.org/1999/xlink" x="0px" y="0px"
	 viewBox="0 0 40 40" style="enable-background:new 0 0 40 40;" xml:space="preserve">
<style type="text/css">
	.st0{fill:#3f4891;}
</style>
<g id="Hockey" transform="translate(6.987 0.022)">
	<path id="Path_11593" class="st0" d="M30.1,2.2c0.2,0.2,0.1,0.4,0.1,0.6c0,3.7,0,7.4,0,11.1c0,0.4-0.1,0.7-0.3,1
		c-2.6,3.4-5.1,6.8-7.8,10.1c-2.3,2.9-5.9,4.4-9.6,4.1c-0.6,0-0.7-0.3-0.7-0.8c-0.3-2.4-2.2-4.4-4.6-4.8c-0.6-0.1-1.2-0.1-1.8,0
		c-0.4,0.1-0.6,0-0.7-0.4C4,21,4,18.7,4.7,16.5c0.7-2,2.8-3,4.8-2.3c1.9,0.7,3,2.7,2.4,4.6c0,0.3-0.1,0.5-0.1,0.8
		c0,1.2,0.3,1.7,1.2,2.1s2,0.1,2.6-0.7c1.1-1.3,2.1-2.6,3.1-4c3.7-4.8,7.4-9.6,11.1-14.4C30,2.4,30,2.3,30.1,2.2z"/>
	<path id="Path_11594" class="st0" d="M1,29c-2.9,0-5.2,2.3-5.2,5.2s2.3,5.2,5.2,5.2s5.2-2.3,5.2-5.2S3.8,29,1,29L1,29z"/>
	<path id="Path_11595" class="st0" d="M14.9,11.8c-4.1,0.2-8.2-0.6-12-2.1C1.7,9.2,0.6,8.4-0.3,7.4c-0.7-0.7-1.1-1.7-1-2.7
		c0-0.3,0-0.6-0.4-0.5c-0.4,0-0.6-0.1-0.5-0.6c0.1-0.4,0.4-0.3,0.6-0.2C0.3,3.5,2.1,3.6,4,3.7C6.2,3.9,8.4,4,10.6,4.1
		c0.8,0.1,0.8,0.1,0.8-0.7s0-1.5,0-2.3c0-0.4,0.1-0.5,0.5-0.5c1.7,0.1,3.4,0.2,5.1,0.3c0.4,0,0.5,0.3,0.5,0.6c0,0.8,0,1.7,0,2.5
		c0,0.4,0.1,0.6,0.6,0.6c2.4,0.1,4.8,0.3,7.2,0.4c0.2,0,0.6-0.1,0.6,0.2c0,0.3-0.3,0.5-0.6,0.5h-0.1c-1.1-0.1-2.2-0.1-3.3-0.2
		s-2.1-0.2-3.2-0.2c-3.6-0.2-7.2-0.4-10.8-0.6C5.3,4.6,2.7,4.4,0.1,4.2c-0.7,0-0.7,0.4-0.6,0.8c0.1,0.9,0.5,1.6,1,2.2
		c1.3,1.2,2.9,2.1,4.6,2.5c3.2,1,6.6,1.4,9.9,1.4c1.9,0,3.8-0.1,5.7-0.4c0.2,0,0.7-0.2,0.7,0.1s-0.3,0.6-0.7,0.6
		c-1.1,0.1-2.1,0.3-3.2,0.3C16.7,11.8,15.8,11.8,14.9,11.8z M16.6,3c0-0.3,0-0.6,0-0.9c0-0.4-0.1-0.6-0.5-0.6
		c-1.1,0-2.2-0.1-3.3-0.2c-0.4,0-0.7,0-0.6,0.5c0,0.6,0,1.1,0,1.7c0,0.5,0.2,0.6,0.6,0.6c0.8,0,1.6,0.1,2.4,0.1
		C16.6,4.5,16.6,4.5,16.6,3L16.6,3z"/>
</g>
</svg>
