<?xml version="1.0" encoding="utf-8"?>
<!-- Generator: Adobe Illustrator 27.4.0, SVG Export Plug-In . SVG Version: 6.00 Build 0)  -->
<svg version="1.1" id="Layer_1" xmlns="http://www.w3.org/2000/svg" xmlns:xlink="http://www.w3.org/1999/xlink" x="0px" y="0px"
	 viewBox="0 0 40 40" style="enable-background:new 0 0 40 40;" xml:space="preserve">
<style type="text/css">
	.st0{fill:#3f4891;}
</style>
<g id="Judo" transform="translate(0 0.046)">
	<path id="Path_11596" class="st0" d="M31,29.1c-0.8,1.1-1.5,2.1-2.2,3.1c-0.2,0.2-0.1,0.4,0.1,0.4H29c0.3,0.2,0.9,0.2,1,0.6
		c0,0.3-0.4,0.6-0.7,0.9c-0.2,0.3-0.4,0.5-0.7,0.8c-0.3,0.4-0.8,0.6-1.3,0.6h-0.1c-1.3,0.2-2.7-0.2-3.7-1.2c-0.8-0.6-1.7-1-2.7-1.1
		c-0.4-0.1-0.8-0.2-1.1-0.3c-0.7-0.4-1.7-0.2-2.2,0.4c-0.6,0.6-1.3,1.1-2,1.6c-0.2,0.2-0.4,0.2-0.7,0.1c-3-1.1-5.8-2.7-8.3-4.8
		c-0.2-0.2-0.3-0.3-0.6-0.1c-0.2,0.1-0.4,0.1-0.6,0.1c-0.3,0-0.7-0.1-0.7-0.3c-0.1-0.3,0.4-0.2,0.6-0.3c0.1-0.1,0.4,0,0.3-0.3
		C5.4,29.1,5.3,28.9,5,29H4.9c-1.2,0.3-1.2,0.3-1.8-0.7c-2-2.9-2.5-6.5-1.3-9.8c0.1-0.4,0.4-0.7,0.8-0.8c0.5-0.1,0.9-0.4,1.1-1
		c0.2-0.6,0.7-0.8,1.2-1c0-0.2-0.2-0.2-0.3-0.3C4,15,3.8,13.7,4.4,12.8c0-0.1,0.1-0.1,0.1-0.2c0.1-0.1,0.2-0.3,0.3-0.4
		c0.4-1,1.5-1.5,2.5-1.3c0.2,0.1,0.4,0,0.5-0.1c0.4-0.5,0.8-1,1.3-1.4C9.2,9.3,9.3,9,9.2,8.8C9,7.9,8.8,7.1,8.5,6.3
		c-0.1-0.2,0-0.4,0.2-0.5l0,0c2.6-1.6,5.6-2.6,8.6-2.8c4-0.2,7.7,2.1,9.3,5.8c0.7,1.7,1.1,3.5,1.3,5.3c0.1,0.8,0.2,1.5,0.4,2.3
		c0.1,0.3,0,0.7-0.3,0.8c-2,1.7-3.9,3.3-5.8,5c-0.1,0.1-0.2,0.2-0.3,0.3c-0.1,0.1,0.1,0.2,0.1,0.3c0.2,0.2,0.3,0,0.5-0.1
		c1.4-1.2,2.8-2.4,4.2-3.6c0.6-0.5,1.2-1,1.7-1.5c0.3-0.2,0.4-0.2,0.6,0c0.6,0.6,1.2,1.2,1.8,1.8c0.3,0.3,0.4,0.3,0.7,0
		c1.8-1.8,4.7-1.9,6.5-0.2c1.6,1.5,2,3.9,1.1,5.9c-0.1,0.3-0.3,0.7-0.5,1s-0.2,0.7-0.7,0.4c-0.2-0.1-0.3,0.1-0.3,0.3
		c-0.3,0.6-0.6,1.1-0.9,1.7c-0.2,0.3-0.3,0.4-0.6,0.1c-0.5-0.5-0.9-0.3-1.2,0.2c-0.1,0.1-0.2,0.2-0.2,0.3c-0.6,1-1.8,1.3-2.8,0.7
		c-0.2-0.1-0.4-0.3-0.6-0.5L31,29.1z M16.1,9.9c-2.7,0.4-5.2,1.9-6.9,4.1c-0.9,1.1-2.2,2-3.6,2.4c-0.2,0.1-0.4,0.2-0.6,0.2
		c-0.2,0.1-0.4,0.2-0.5,0.4c-0.7,1.4-1.1,3-1.2,4.6c0,3.1,1.4,6.1,3.8,8.2c2.4,2,5.1,3.6,8,4.7c0.3,0.1,0.5,0,0.7-0.2
		c1.8-1.4,3.5-2.9,5.3-4.3c0.4-0.3,0.4-0.4-0.1-0.7c-2.6-1.4-5.1-2.9-7.7-4.3c-0.4-0.2-0.6-0.4-0.4-0.9l1.7,0.9
		c0.6,0.4,0.6,0.4,0.6-0.3c0-1.4-0.1-2.9,0.1-4.3c0.1-1.4-0.3-2.9-1.1-4.1c-0.3-0.4-0.4-0.8-0.3-1.3c0.1-0.6,0.2-1.2,0.3-1.7
		C14.4,12,15,10.8,16.1,9.9L16.1,9.9z M18.7,27.3c0.4,0.4,1,0.5,1.5,0.2c2.2-1.2,4.8-1.6,7.3-1.3c1.6,0.1,3.1,1,4,2.3
		c0.2,0.3,0.4,0.5,0.7,0.7c0.6,0.5,1.4,0.4,1.9-0.1l0.1-0.1c0.3-0.3,0.5-0.6,0.8-0.9c0.3-0.4,0.6-0.6,1-0.2c0.2,0.2,0.4,0.2,0.6-0.1
		c0.3-0.5,0.6-1,0.8-1.6c0.1-0.2,0.2-0.5,0.6-0.2c0.2,0.1,0.3,0,0.4-0.2c0.2-0.4,0.3-0.7,0.5-1.1c0.7-1.9,0.1-4-1.5-5.2
		c-1.9-1.4-4.6-0.9-6,1c-0.2,0.2-0.3,0.4-0.4,0.7c-0.2,0.4-0.5,0.5-0.9,0.4c-0.3-0.1-0.7-0.1-1.1,0.1c-2,1.1-4,2.2-6,3.3
		C21.5,25.8,20.1,26.5,18.7,27.3L18.7,27.3z M19.2,9.4c-2.5,0-4.5,1.9-4.5,4.4v0.1c0,0.3,0,0.6-0.1,0.8c-0.3,0.6-0.1,1.2,0.4,1.6
		c0.2,0.1,0.3,0.3,0.3,0.4c0.3,1.3,1,2.4,2,3.2c0.2,0.3,0.7,0.3,1,0.1c0.4-0.2,0.8-0.5,1.1-0.8c0.2-0.2,0.4-0.3,0.6,0
		c0.1,0.2,0.2,0.1,0.4,0c0.3-0.3,0.5-0.7,0.9-0.9c1.9-1,2.8-3.1,2.3-5.1C23.3,11,21.5,9.4,19.2,9.4L19.2,9.4z M27,31.1
		c-0.5-0.7-1.5-0.8-2.2-0.4c-0.9,0.8-2.3,0.9-3.3,0.1c-0.1-0.1-0.3-0.2-0.4,0c-0.6,0.5-1.1,0.9-1.8,1.4c1,0.3,1.9,0.6,2.9,0.8
		c0.7,0.2,1.3,0.5,1.8,0.9c0.4,0.4,0.9,0.7,1.4,1c1.3,0.5,2.8,0.1,3.6-1.1c0.2-0.3,0.3-0.5-0.1-0.7c-0.7-0.3-1.3-0.7-2-1
		c-0.4-0.2-0.8-0.6-1.1-0.9C26.1,31.1,26.5,31.2,27,31.1L27,31.1z M9.4,9.9c-0.4,0.4-0.8,0.8-1.1,1.3c-0.2,0.4-0.7,0.6-1.2,0.5
		c-0.7-0.2-1.4,0.1-1.7,0.8c-0.3,0.4-0.7,0.8-0.8,1.3c-0.1,0.8,0.3,1.6,1.1,1.8c0.7,0,1.5-0.3,2-0.7c0.6-0.9,1.2-1.7,2-2.4
		c0.2-0.1,0.2-0.3,0.2-0.5C9.8,11.2,9.6,10.6,9.4,9.9L9.4,9.9z"/>
	<path id="Path_11597" class="st0" d="M0.4,35.7c1.1-1.5,2-3.2,2.6-4.9c0.1-0.3,0.3-0.6,0.4-0.8c0.1-0.1,0.2-0.4,0.3-0.3
		C4,29.8,4.2,30,4.2,30.3c0.1,2.2-0.6,4.3-2,5.9c-0.1,0.1-0.3,0.2-0.4,0.1L0.4,35.7z"/>
	<path id="Path_11598" class="st0" d="M6.1,36.9c-0.1-1.6-0.4-3.2-1-4.7C5.1,32,5,31.9,5,31.7c-0.1-0.4-0.3-0.9-0.1-1.1
		c0.3-0.3,0.8,0.1,1.2,0c0.2,0,0.2,0.1,0.2,0.2c0.2,1.4,0.9,2.7,1.1,4.2c0,0,0,0,0,0.1C7.6,36.3,7.5,36.5,6.1,36.9z"/>
</g>
</svg>
