<?xml version="1.0" encoding="utf-8"?>
<!-- Generator: Adobe Illustrator 27.4.0, SVG Export Plug-In . SVG Version: 6.00 Build 0)  -->
<svg version="1.1" id="Layer_1" xmlns="http://www.w3.org/2000/svg" xmlns:xlink="http://www.w3.org/1999/xlink" x="0px" y="0px"
	 viewBox="0 0 40 40" style="enable-background:new 0 0 40 40;" xml:space="preserve">
<style type="text/css">
	.st0{fill:#3f4891;}
</style>
<path id="Kabbadi" class="st0" d="M20.4,11.7C20.4,11.8,20.4,11.8,20.4,11.7c0.9,0.5,0.9,1.2,0.8,1.9c-0.1,0.4-0.1,0.9,0,1.3
	c0.1,0.9,0.1,1.7,0,2.6c0,0.2,0,0.3,0.2,0.3s0.6,0.2,1,0.2c0.3,0.1,0.8,0.2,1-0.3c0.1-0.1,0.2-0.2,0.4-0.2c0.3,0.1,0.4,0.1,0.5-0.2
	c0.1-0.2,0.2,0,0.3,0.1c0.1,0.1,0.1,0.3,0.2,0.4c0.5,0.9,0.5,1-0.2,1.7c-0.2,0.2-0.5,0.2-0.7,0.1l0,0c-0.3-0.1-0.5-0.4-0.8-0.3
	c-0.6,0.1-0.8,0.8-0.5,1.4c0.5,0.8,1,1.6,1.6,2.3c0.7,0.7,1.4,1.4,2.3,1.9c1,0.7,1.8,1.5,2.7,2.3c0.4,0.4,1,0.6,1.5,0.6
	c0.6-0.1,1.3,0.1,1.8,0.5c0.8,0.5,1.7,1,2.6,1.5c0.5,0.2,1,0.3,1.5,0.4c0.7,0.2,1.4,0.5,2.1,0.8c0.5,0.3,0.8,0.7,0.9,1.3
	c0.1,0.3-0.5,0.8-1,0.8c-0.4-0.1-0.8-0.2-1.1-0.4c-0.5-0.3-1.1-0.5-1.7-0.7c-0.4-0.1-0.8-0.3-1-0.7c-0.1-0.1-0.2-0.2-0.4-0.2
	c-0.4-0.2-0.8-0.4-1.2-0.6c-0.5-0.2-1-0.2-1.5-0.1c-0.5,0-0.9-0.1-1.3-0.4c-0.2-0.2-0.6-0.3-0.9-0.3c-0.7,0-1.5-0.2-2.1-0.6
	c-1.4-0.6-2.8-1.3-4.3-1.9c-0.7-0.3-1.6-0.4-2.4-0.1c-0.9,0.3-1.9,0.4-2.8,0.5c-0.2,0-0.4,0-0.4,0.2s0.2,0.2,0.3,0.2
	c0.4,0.1,0.8,0.2,1.1,0.2c0.5,0.1,1,0.4,1.2,0.9c0.2,0.4,0,0.8-0.2,1.2c-0.1,0.2-0.3,0.4-0.5,0.6s-0.2,0.2-0.1,0.3
	c0.1,0.5-0.2,0.6-0.6,0.6s-0.7,0-1,0c-0.1,0-0.3,0-0.3-0.2s0.1-0.2,0.2-0.2c0.2-0.1,0.4-0.3,0.3-0.5c0-1.4,0.2-1.2-1.1-1.3
	c-1.2-0.1-2.3-0.4-3.4-0.8c-0.1-0.1-0.2-0.1-0.3-0.1c0,1.1,0.4,2.1,1.2,2.8c0.3,0.3,0.3,0.4-0.1,0.5c-0.5,0.2-1,0.2-1.4,0
	c-0.7-0.2-1.3-0.5-1.9-0.8c-0.3-0.1-0.4-0.4-0.3-0.7c0,0,0,0,0-0.1c0.2-0.6,0.4-1.1,0.8-1.6c0.1-0.1,0.1-0.2,0.1-0.4
	c0.1-1.1,0.2-2.2,0.4-3.3c0-0.1,0-0.1,0-0.2s0.3-0.3,0.1-0.5c-0.1-0.1-0.3,0.1-0.5,0.2c-0.5,0.4-1,0.6-1.6,0.6
	c-0.6,0.1-1.2,0.3-1.7,0.6c-1.1,0.6-2.4,1.1-3.6,1.6c-0.7,0.4-1.3,0.9-1.8,1.6c-0.1,0.1-0.1,0.3-0.1,0.5c0.1,0.2,0.1,0.5,0.1,0.8
	c0,0.4,0.4,0.6,0.6,0.8c0.1,0.1,0.3,0.2,0.2,0.4s-0.3,0.2-0.5,0.2c-1.2,0.1-2.1-0.2-2.5-1.5c0.4-0.4,0.2-0.8,0-1.2
	c-0.2-0.3-0.2-0.8,0.2-1l0.1-0.1c0.2-0.2,0.5-0.3,0.8-0.3c0.6-0.1,1.1-0.4,1.4-0.9c0.7-0.6,1.3-1.2,2-1.8c0.6-0.5,1.3-0.8,2-1
	c0.2-0.1,0.3-0.2,0.4-0.4C7.5,23.2,7.7,23,8,23l0,0c0.3,0,0.4-0.2,0.4-0.5c0.1-1.1,0.2-2.2,0.5-3.3c0.1-0.3,0-0.7-0.1-0.9
	c-0.6-1.2-0.4-2.7,0.5-3.7c1.5-1.4,2.9-2.8,4.6-4.1c0.8-0.6,1.9-0.9,3-0.8l0.9,0.1c0.3,0,0.4-0.1,0.4-0.4c0-0.8,0.3-1.6,0.8-2.2
	c0.2-0.2,0.6-0.4,0.9-0.4c1.1-0.2,2.2,0.4,2.7,1.5c0.1,0.4,0.1,0.7-0.1,1.1c-0.2,0.4-0.6,0.8-0.6,1.4c-0.1,0.2-0.3,0.4-0.4,0.6
	c-0.1,0.2-0.4,0.4-0.6,0.3C20.6,11.6,20.5,11.7,20.4,11.7L20.4,11.7z M18.9,18.1c0.4-0.2,0.5-0.2,0.3-0.7C19,16.7,18.9,15.8,19,15
	v-0.1c0-0.2-0.1-0.3-0.3-0.2c-0.4,0.1-0.8,0.2-1.1,0.4c-0.4,0.2-0.8,0.3-1.2,0.3c-0.3-0.1-0.5,0.1-0.7,0.3c-0.2,0.3-0.6,0.5-1,0.4
	c-0.3,0-0.4,0.1-0.3,0.4c0.1,0.2,0.2,0.3,0.3,0.4c0.2,0.1,0.4,0.2,0.6,0.5c0.1,0.2,0.3,0.2,0.5,0c0.4-0.8,1.5-1.1,2.3-0.7
	C18.7,16.8,19,17.4,18.9,18.1L18.9,18.1z M16.1,22.9c-0.3,0-0.4,0-0.5,0.2c-0.1,0.5-0.3,1-0.6,1.5c0,0.1-0.1,0.2,0,0.4
	c0.1,0.1,0.2,0.1,0.4,0c0.3-0.2,0.7-0.3,1.1-0.3c0.4-0.1,0.7-0.2,1-0.4c0.2-0.1,0.3-0.3,0.1-0.5C17.1,23.5,16.6,23.2,16.1,22.9z
	 M15.2,19.4c0-0.2-0.8-1.1-1.1-1.1s-0.2,0.1-0.1,0.2c0.2,0.4,0.5,0.8,0.8,1.1c0.1,0.1,0.2,0.1,0.3,0.1
	C15.1,19.6,15.2,19.5,15.2,19.4L15.2,19.4z M12.8,22.1c0-0.1,0-0.3-0.1-0.3c-0.1-0.1-0.2-0.1-0.3,0c-0.2,0.2-0.4,0.5-0.6,0.8
	c0,0.1-0.1,0.3,0.1,0.3C12.3,22.7,12.7,22.4,12.8,22.1L12.8,22.1z"/>
</svg>
