<svg xmlns="http://www.w3.org/2000/svg" viewBox="0 0 60 75" style="fill:#3f4891;" x="0px" y="0px"><path d="M35.425,30.788a.946.946,0,0,0,.77,1.164A1.668,1.668,0,0,0,36.57,32a1.432,1.432,0,0,0,.326-2.827l-.166-.026a.947.947,0,0,0-1.07.7Z"/><path d="M40.836,2.574a1.164,1.164,0,0,0-.725-.535,1.144,1.144,0,0,0-.891.126,1.157,1.157,0,0,0-.538.724L31.04,33.535a1.161,1.161,0,0,0,.127.893,1.189,1.189,0,0,0,.732.544,1.372,1.372,0,0,0,.282.028,1.176,1.176,0,0,0,1.139-.9l.429-1.723a2.938,2.938,0,0,1-.264-2.079l.236-.939h0a2.941,2.941,0,0,1,1.214-1.717L40.961,3.467A1.158,1.158,0,0,0,40.836,2.574Z"/><path d="M42.43,5.846,39.717,16.731l12.066-2.677a.253.253,0,0,0,.209-.2A.241.241,0,0,0,51.9,13.6Z"/><path d="M13.759,57.886A2.412,2.412,0,0,0,14.5,58a2.493,2.493,0,0,0,2.386-1.759l4.205-13.453a3.467,3.467,0,0,0-.544-.977L17,37.516V37.9a7.975,7.975,0,0,1-.36,2.37L12.114,54.758a2.466,2.466,0,0,0,.167,1.892A2.5,2.5,0,0,0,13.759,57.886Z"/><path d="M26.655,26.305,26,25.27v4.271l3.753.887.716-2.873-3.215-.816A1,1,0,0,1,26.655,26.305Z"/><polygon points="23.853 27.973 24 27.824 24 21 22.862 21 21.998 26.778 23.853 27.973"/><path d="M15,9A5,5,0,0,0,25,9V7A5,5,0,0,0,15,7Z"/><path d="M21.5,16.05,22.677,19H24A3,3,0,0,0,21.5,16.05Z"/><path d="M9.732,23.459,8.026,33.142a1.581,1.581,0,0,0,1.238,1.827,1.572,1.572,0,0,0,1.849-1.234l1.761-9.248a3.341,3.341,0,0,1,.906-1.681l1.513-1.513A1,1,0,0,1,16,21a.987.987,0,0,1,.383.076A1,1,0,0,1,17,22V33.5h0v.01a2.468,2.468,0,0,0,.727,1.752l4.362,5.275a5.505,5.505,0,0,1,1.121,2.288L26.188,56.11a2.5,2.5,0,0,0,3.017,1.818,2.393,2.393,0,0,0,.7-.286A2.5,2.5,0,0,0,31.041,54.9L28.3,39.745A4,4,0,0,0,27.164,37.6l-1.985-1.953A3.984,3.984,0,0,1,24,32.806v-2.82c-.045,0-.09.013-.135.013a1.888,1.888,0,0,1-1.064-.326l-1.953-1.316a1.935,1.935,0,0,1-.829-1.864l.952-6.373L19.323,16H17.89a5.277,5.277,0,0,0-4.011,1.845L10.6,21.671A3.906,3.906,0,0,0,9.732,23.459Z"/></svg>