<svg xmlns:dc="http://purl.org/dc/elements/1.1/" xmlns:cc="http://creativecommons.org/ns#" xmlns:rdf="http://www.w3.org/1999/02/22-rdf-syntax-ns#" xmlns:svg="http://www.w3.org/2000/svg" xmlns="http://www.w3.org/2000/svg" xmlns:sodipodi="http://sodipodi.sourceforge.net/DTD/sodipodi-0.dtd" xmlns:inkscape="http://www.inkscape.org/namespaces/inkscape" viewBox="0 0 12.7 15.875" style="fill:#3f4891;" version="1.1" x="0px" y="0px"><g transform="translate(0,-284.29998)"><path style="" d="m 12.170833,286.29221 a 1.2946908,1.2946908 0 1 0 -2.5893812,0 1.2946908,1.2946908 0 1 0 2.5893812,0 z" fill="#3f4891" stroke="none"/><path style="" d="m 7.166069,287.8629 -2.2928837,1.85459 a 0.88356152,0.88356152 0 0 0 0,1.37219 l 2.4460826,1.99148 v 2.03759 a 0.66269528,0.66269528 0 0 0 1.3253905,0 v -2.38758 A 0.58904102,0.58904102 0 0 0 8.42746,292.27437 l -1.8593868,-1.51379 2.5914816,-2.09619 A 1.0308219,1.0308219 0 0 0 8.5112594,286.83211 H 3.4843952 a 0.51541789,0.51541789 0 0 0 0,1.03079 z" fill="#3f4891" stroke="none"/><path style="" d="m 5.7463791,292.18217 -0.9187935,-0.748 -2.4775823,2.45779 a 0.58905588,0.58905588 0 0 0 0.829694,0.83639 z" fill="#3f4891" stroke="none"/><path style="" d="m 9.1642547,296.30214 a 0.82404363,0.82404363 0 0 0 0.7878944,-0.5827 0.14726029,0.14726029 0 0 0 -0.281598,-0.086 0.52952313,0.52952313 0 0 1 -0.5062964,0.3745 H 5.9475776 a 0.14726603,0.14726603 0 0 0 0,0.2945 z" fill="#3f4891" stroke="none"/><path style="" d="m 2.7095007,295.96314 a 0.82404363,0.82404363 0 0 0 0.9593932,0.1994 0.14726423,0.14726423 0 0 0 -0.1231992,-0.2675 0.52952313,0.52952313 0 0 1 -0.6165956,-0.1282 l -2.14278471,-2.39908 a 0.14731013,0.14731013 0 0 0 -0.21969844,0.1963 z" fill="#3f4891" stroke="none"/></g></svg>