<?xml version="1.0" encoding="utf-8"?>
<!-- Generator: Adobe Illustrator 27.4.0, SVG Export Plug-In . SVG Version: 6.00 Build 0)  -->
<svg version="1.1" id="Layer_1" xmlns="http://www.w3.org/2000/svg" xmlns:xlink="http://www.w3.org/1999/xlink" x="0px" y="0px"
	 viewBox="0 0 40 40" style="enable-background:new 0 0 40 40;" xml:space="preserve">
<style type="text/css">
	.st0{fill:#3f4891;}
</style>
<g id="Aquatics-_Swimming_and_Para" transform="translate(-0.017 -0.001)">
	<path id="Path_11593" class="st0" d="M1,29.1c-0.2-0.3-0.2-0.7-0.2-1.1c-0.5-4.6,0-9.2,1.4-13.6C3.9,8.7,8.1,4.2,13.6,2.1
		c9-3.5,19.2,0.7,23.1,9.6c2,4.3,2.9,9,2.6,13.7c0,1-0.1,1.9-0.1,2.9c0.1,0.3,0,0.7-0.3,1C38,27.6,36.6,26.1,35,25
		c-1.7-1.1-3.8-1.7-5.8-1.7H11.1c-4-0.1-7.8,1.9-9.8,5.4C1.3,28.8,1.3,29.1,1,29.1z M20,4c2.1,0,4.2,0.4,6,1.4
		c0.2,0.1,0.6,0.4,0.8,0.1C27,5.2,26.6,5,26.4,4.8c-3.7-3-9-3-12.7,0c-0.2,0.2-0.6,0.4-0.4,0.7c0.2,0.3,0.5,0,0.8-0.1
		C15.9,4.5,17.9,4,20,4L20,4z M25.5,7.9c0-0.3-0.2-0.5-0.5-0.6c-3-2.1-6.9-2.1-10-0.1c-0.2,0.2-0.7,0.3-0.5,0.6
		c0.2,0.3,0.5,0,0.7-0.1c3-1.3,6.4-1.3,9.3,0C24.9,7.9,25.2,8.1,25.5,7.9L25.5,7.9z"/>
	<path id="Path_11594" class="st0" d="M13.2,39.1c-3.5,0.4-6.9-1.5-8.4-4.8c-0.4-0.9-0.6-2-0.5-3c0-0.5,0.2-0.6,0.7-0.4
		c1,0.4,2,0.5,3,0.4c2.2,0,4.5-0.1,6.7,0.1c0.9,0.1,1.8,0.5,2.3,1.3c0.4,0.6,0.8,1.1,0.1,1.8c-0.4,0.4-0.4,1.1,0,1.6
		c0,0,0,0,0.1,0.1c0.5,0.4,0.4,0.7,0.1,1.2c-0.6,1.1-1.8,1.7-3,1.8C13.8,39.1,13.4,39.1,13.2,39.1z M10.3,33L10.3,33
		c-1.2,0-2.4,0-3.5,0c-0.7,0-0.8,0.3-0.5,0.8c0.7,1.6,2.1,2.8,3.7,3.4c1.2,0.3,2.5,0.5,3.8,0.3c1.6,0,2.6-0.8,2.6-2.2
		s-0.9-2.2-2.6-2.3C12.6,33,11.5,33,10.3,33L10.3,33z"/>
	<path id="Path_11595" class="st0" d="M29.9,31.3c1.8,0.1,3.6,0,5.4-0.5c0.6-0.2,0.5,0.4,0.5,0.7c-0.1,3.1-2,5.9-4.9,7
		c-1.8,0.6-3.7,0.7-5.6,0.5c-0.9-0.1-1.7-0.6-2.2-1.3c-0.4-0.5-0.8-1,0-1.7c0.5-0.4,0.5-1.2,0-1.6c-0.1-0.1-0.1-0.1-0.2-0.2
		c-0.5-0.4-0.4-0.8-0.1-1.2c0.7-1.2,2-1.8,3.4-1.8C27.3,31.3,28.5,31.3,29.9,31.3z M29.7,33L29.7,33c-1.4,0.1-2.8,0-4.2,0.1
		c-1.1,0.1-2,1.1-1.9,2.2c0,1.2,1,2.1,2.2,2.1c0.9,0.1,1.8,0.1,2.7,0c2.3-0.2,4.3-1.6,5.2-3.7c0.3-0.6,0.2-0.9-0.6-0.8
		C32,33,30.9,32.9,29.7,33L29.7,33z"/>
	<path id="Path_11596" class="st0" d="M20,35.8c-0.6,0-1.2,0-1.7,0c-0.3,0-0.6-0.1-0.6-0.5s0.3-0.5,0.6-0.5h3.5
		c0.3,0,0.5,0.2,0.6,0.4l0,0c0,0.4-0.2,0.5-0.6,0.6C21.2,35.8,20.6,35.8,20,35.8z"/>
</g>
</svg>
