<?xml version="1.0" encoding="utf-8"?>
<!-- Generator: Adobe Illustrator 27.4.0, SVG Export Plug-In . SVG Version: 6.00 Build 0)  -->
<svg version="1.1" id="Layer_1" xmlns="http://www.w3.org/2000/svg" xmlns:xlink="http://www.w3.org/1999/xlink" x="0px" y="0px"
	 viewBox="0 0 40 40" style="enable-background:new 0 0 40 40;" xml:space="preserve">
<style type="text/css">
	.st0{fill:#3f4891;}
</style>
<g id="Table_Tennis" transform="translate(0.002 -0.005)">
	<path id="Path_11593" class="st0" d="M33.9,12.8c0,1.6-0.4,3.2-1.1,4.7c-1,2.4-2.2,4.7-3.7,6.8c-1.3,1.7-3.3,2.7-5.4,3
		c-1.4,0.2-2.8-0.1-3.9-0.8c-3-1.9-6.1-3.6-9.2-5.5c-0.9-0.7-1.6-1.7-1.8-2.8c-0.9-2.4-0.6-5.1,0.8-7.3c1.2-2.1,2.6-4.2,4.2-6.1
		c2.6-3.1,6.6-4.5,10.6-3.7C30,2.1,34.1,7.1,33.9,12.8z"/>
	<path id="Path_11594" class="st0" d="M11.2,22.4l6.6,3.8c0.5,0.3,1,0.6,1.5,0.9c-0.7,0.1-1.4,0.3-2.1,0.5c-0.9,0.4-1.7,1.1-2.3,1.9
		c-1.7,2.8-3.3,5.8-4.6,8.8C10.1,39,9.8,39.2,9.2,39c-1.3-0.3-2.6-1-3.5-2.1c-0.4-0.3-0.4-0.9-0.1-1.3l0,0c2-2.7,3.8-5.4,5.4-8.3
		c0.8-1.3,0.9-2.9,0.3-4.4C11.3,22.8,11.2,22.7,11.2,22.4L11.2,22.4z M12.5,24.1c0,0.4,0.1,0.7,0,1.1c-0.2,1.6-0.8,3-1.7,4.3
		c-1.3,2.2-2.9,4.3-4.3,6.4c-0.3,0.4-0.2,0.6,0.1,0.9c0.6,0.5,1.3,0.9,2.1,1.3c0.6,0.2,0.9,0.2,1.2-0.4c1.2-2.5,2.4-5,3.8-7.4
		c0.7-1.5,2-2.7,3.5-3.4L12.5,24.1z"/>
	<path id="Path_11595" class="st0" d="M25,34.8c0-1.5,1.2-2.8,2.7-2.8l0,0c1.5,0,2.8,1.2,2.8,2.8c0,0,0,0,0,0.1
		c0,1.5-1.2,2.8-2.8,2.7C26.3,37.5,25,36.3,25,34.8L25,34.8L25,34.8z"/>
	<path id="Path_11596" class="st0" d="M14.5,31.6c0-0.5,0.4-0.8,0.9-0.8c3.8-0.5,7.6-0.9,11.4-1.4c3.1-0.4,6.2-0.8,9.3-1.1
		c0.2,0,0.5-0.3,0.6,0.2c0,0.4-0.2,0.4-0.5,0.5c-4.7,0.6-9.4,1.2-14,1.8C19.6,31,17.1,31.3,14.5,31.6z"/>
	<path id="Path_11597" class="st0" d="M7.5,31.8c-0.1,0.5-0.5,0.8-1,0.9c-0.9,0.1-1.7,0.2-2.6,0.3c-0.2,0-0.5,0.1-0.5-0.2
		s0.1-0.4,0.4-0.4C5,32.2,6.2,32,7.5,31.8z"/>
	<path id="Path_11598" class="st0" d="M11.2,22.4L11.2,22.4L11.2,22.4L11.2,22.4L11.2,22.4z"/>
</g>
</svg>
