<svg xmlns="http://www.w3.org/2000/svg" xmlns:xlink="http://www.w3.org/1999/xlink" version="1.1" x="0px" y="0px" viewBox="0 0 116.144 152.42125" style="fill:#3f4891;" xml:space="preserve"><path d="M85.2,30.33c0.154-0.147,2.834-2.605,5.982-0.607c4.19,2.657,3.892,11.727,3.888,11.817  c-0.014,0.362,0.169,0.704,0.479,0.893c0.309,0.188,0.698,0.195,1.013,0.017c0.269-0.152,0.801-0.376,1.344-0.155  c0.399,0.162,0.702,0.529,0.852,1.036c0.172,0.578,0.122,1.275-0.138,1.914c-0.259,0.639-0.709,1.174-1.235,1.468  c-0.461,0.259-0.934,0.311-1.333,0.148c-0.26-0.105-0.552-0.098-0.806,0.023c-0.253,0.12-0.444,0.342-0.527,0.61  c-0.54,1.76-2.16,3.347-5.066,4.98c-5.217,0.121-9.378-1.737-10.328-4.831C78.55,45.117,80.95,36.401,85.2,30.33z M54.308,91.766  c0.02-0.521,0.016-0.995-0.029-1.39c-0.159-1.405-0.686-2.768-1.127-3.718l4.984-0.909c0.352,0.438,0.723,0.874,1.112,1.308  l-3.115,6.761L54.308,91.766z M31.174,90.806c-0.927-2.019-0.149-5.138,0.396-6.818c0.496-1.526,0.427-3.181-0.194-4.657  c-1.297-3.086-1.295-4.757-0.861-5.291c0.714-0.883,5.024-0.65,9.01,0.119c-1.516,4.44-2.68,7.986-3.012,9.001  c-0.115,0.354-0.025,0.742,0.234,1.008c0.26,0.267,0.648,0.368,1.001,0.261c0.656-0.195,1.304-0.337,1.948-0.448  c-1.646,2.333-2.653,5.371-3.039,9.203C35.199,93.198,32.164,92.961,31.174,90.806z M50.9,86.629  c0.306,0.551,1.201,2.278,1.392,3.972c0.086,0.764,0.006,1.945-0.23,3.417c-0.193,1.204-1.226,2.118-2.456,2.175l-0.709,0.033  l0.458-2.331c0.106-0.542-0.247-1.068-0.789-1.175c-0.541-0.105-1.068,0.246-1.174,0.788l-0.849,4.317  c-0.059,0.3-0.236,0.552-0.5,0.709c-0.263,0.156-0.569,0.195-0.863,0.103l-5.341-1.661c-0.823-0.256-1.37-1.026-1.329-1.872  c0.254-5.28,1.52-8.887,3.951-11.33C45.352,83.828,48.144,84.77,50.9,86.629z M54.894,80.66c0.134,0.282,0.272,0.564,0.42,0.844  c0.003,0.007,0.003,0.015,0.006,0.022c0.007,0.014,0.019,0.025,0.027,0.039c0.428,0.806,0.915,1.603,1.458,2.395l-3.528,0.643  C53.697,83.589,54.257,82.227,54.894,80.66z M40.308,99.216l4.281,1.331c0.297,0.092,0.603,0.138,0.908,0.138  c0.548,0,1.093-0.146,1.573-0.433c0.735-0.439,1.252-1.17,1.427-2.006l1.202-0.056c0.374-0.017,0.731-0.094,1.078-0.196  c-0.264,4.404-0.307,9.251,0.424,13.879c-6.145,0.341-10.749-1.964-14.047-7.018c-0.736-1.129-0.595-2.603,0.344-3.584  C38.292,100.439,39.241,99.755,40.308,99.216z M57.584,81.476c6.237-3.25,11.67-6.555,16.324-9.941  c0.078-0.043,0.145-0.094,0.208-0.154c1.305-0.955,2.561-1.915,3.743-2.883c0.061-0.035,0.107-0.086,0.159-0.132  c2.266-1.865,4.297-3.758,6.118-5.681c0.028-0.024,0.063-0.035,0.088-0.063c0.024-0.027,0.033-0.061,0.053-0.089  c2.095-2.228,3.906-4.497,5.42-6.815c0.271,0.739,0.598,1.661,0.941,2.699C83.938,67.97,73.87,76.019,59.053,83.67  C58.512,82.943,58.018,82.212,57.584,81.476z M75.96,47.738c0.723,0.362,1.283,0.685,1.594,0.871  c0.192,0.511,0.442,0.995,0.75,1.448c-1.355,2.89-2.141,6.131-2.347,9.701c-0.004,0.054-0.023,0.104-0.018,0.159  c0,0.005,0.004,0.009,0.004,0.015c-0.119,2.288,0.003,4.712,0.356,7.257c-0.698,0.566-1.417,1.129-2.158,1.69  C72.825,61.329,73.434,54.23,75.96,47.738z M78.125,65.656c-0.182-1.684-0.255-3.306-0.211-4.861  c1.542,0.013,2.885,0.429,4.073,1.248C80.795,63.259,79.505,64.462,78.125,65.656z M83.376,60.569  c-1.546-1.141-3.335-1.729-5.337-1.768c0.244-2.587,0.824-4.97,1.738-7.139c1.971,1.643,4.9,2.64,8.345,2.802  C86.783,56.535,85.201,58.568,83.376,60.569z M50.846,50.729c2.237-2.233,15.877-5.071,19.568-4.771  c1.236,0.1,2.537,0.492,3.701,0.952c-2.805,7.149-3.403,14.98-1.781,23.304c-4.482,3.224-9.705,6.379-15.681,9.492  c-0.262-0.56-0.491-1.123-0.694-1.69c2.809-7.024,6.295-16.185,6.295-18.393c0-3.992-4.25-5.918-4.431-5.997  c-0.503-0.224-1.091,0.005-1.316,0.508c-0.224,0.503,0.002,1.094,0.505,1.319c0.033,0.015,3.242,1.487,3.242,4.17  c0,1.723-3.096,10.017-6.258,17.917c-0.005,0.01-0.007,0.02-0.012,0.03c-0.955,2.386-1.916,4.735-2.799,6.856  c-2.93-1.788-5.972-2.678-9.096-2.664c-0.012,0-0.023,0.002-0.034,0.002c-1.018,0.007-2.045,0.107-3.08,0.306  c0.846-2.563,1.799-5.397,2.791-8.282c0.004-0.01,0.007-0.021,0.011-0.031C45.393,63.244,49.522,52.051,50.846,50.729z   M16.476,11.173c-3.515,0.275-6.861,1.176-9.973,2.678L5.57,11.59c0.844-0.043,1.703-0.155,2.56-0.385  c1.443-0.389,4.327-1.395,7.196-2.733L16.476,11.173z M0.085,7.038c-0.58-2.154,1.887-4.77,5.387-5.712  C8.442,0.527,12.622,0,15.947,0c2.868,0,5.1,0.393,5.372,1.34c0.021,0.074,0.085,0.298-0.167,0.745  c-0.743,1.316-3.074,2.81-5.705,4.116c0,0,0,0-0.001,0c0,0-0.001,0-0.001,0.001C12.669,7.58,9.558,8.749,7.611,9.273  C5.817,9.757,4.019,9.751,2.551,9.257C1.226,8.812,0.35,8.023,0.085,7.038z M30.147,97.328c-1.654-4.59-5.458-11.556-9.136-18.293  c-3.769-6.901-7.665-14.038-8.859-17.972c-0.942-3.101-1.551-8.454-2.256-14.651C8.971,38.277,7.82,28.153,5.424,19.324  c-0.375-1.38,0.292-2.854,1.585-3.503c3.381-1.697,7.074-2.615,10.974-2.729c1.276-0.058,2.516,0.462,3.418,1.372  c2.07,2.089,4.867,5.645,6.431,10.72c0.858,2.787,1.743,7.467,2.767,12.887c1.894,10.022,4.452,23.545,8.609,33.989  c-3.252-0.586-8.677-1.215-10.247,0.718c-1.097,1.352-0.905,3.816,0.57,7.327c0.436,1.034,0.484,2.193,0.136,3.265  c-0.777,2.391-1.461,5.766-0.312,8.27c1.435,3.125,5.229,3.547,7.164,3.548c-0.001,1.215,0.567,2.333,1.501,3.055  c-0.716,0.484-1.379,1.029-1.97,1.647c-1.584,1.656-1.82,4.147-0.573,6.06c3.451,5.289,8.355,7.959,14.601,7.959  c0.485,0,0.981-0.022,1.483-0.054c0.611,2.879,1.569,5.628,3.008,8.084H35.827C35.273,118.472,33.08,105.468,30.147,97.328z   M56.942,121.937c-4.66-6.902-4.659-17.033-4.075-25.24c0.573-0.619,0.982-1.389,1.143-2.255l1.403,1.576  c0.172,7.646,1.14,13.833,2.974,18.828c0.006,0.017,0.011,0.032,0.018,0.048c0.986,2.675,2.217,5.015,3.714,7.043H56.942z   M59.408,111.53c-1.047-3.722-1.674-8.085-1.913-13.172l2.816,3.165C60.901,104.702,60.601,108,59.408,111.53z M67.587,95.899  l-3.382,4.431c-0.26,0.341-0.655,0.546-1.083,0.562c-0.42,0.027-0.836-0.158-1.121-0.479l-4.416-4.964l3.148-6.832  c1.852,1.839,4.037,3.653,6.578,5.454c0.285,0.203,0.472,0.505,0.525,0.853C67.889,95.272,67.8,95.619,67.587,95.899z   M106.101,105.481c1.734-0.122,3.529-0.238,5.311,0.864c0.293,0.227,0.488,0.55,0.542,0.917c0.055,0.376-0.04,0.751-0.267,1.057  l-2.202,2.957c-0.227,0.306-0.559,0.504-0.935,0.559c-0.379,0.054-0.751-0.039-1.099-0.299c-0.305-0.227-0.503-0.559-0.558-0.935  s0.04-0.751,0.205-0.98l1.037-1.142c0.371-0.409,0.341-1.042-0.068-1.413c-0.409-0.371-1.042-0.341-1.413,0.067l-1.099,1.217  c-0.546,0.733-0.774,1.636-0.641,2.541s0.61,1.704,1.385,2.28c0.597,0.445,1.306,0.679,2.038,0.679c0.167,0,0.335-0.012,0.503-0.037  c0.905-0.132,1.704-0.608,2.25-1.343l0.823-1.106c0.881,1.817,0.675,4.023-0.66,5.644c-1.811,2.2-5.104,2.549-7.318,0.796  l-3.172-2.65c-0.806-0.673-1.444-1.495-1.899-2.442l-1.808-3.767l4.662-3.985C103.086,105.678,104.614,105.58,106.101,105.481z   M91.876,78.246c-0.935,3.901-1.901,7.937-1.048,12.005c1.082,5.165,6.807,9.755,10.123,12.031c0.147,0.101,0.176,0.246,0.18,0.323  c0.004,0.081-0.01,0.233-0.152,0.355l-7.961,6.806c-0.305,0.26-0.751,0.232-1.017-0.066c-7.085-7.979-11.814-14.257-12.343-16.386  c-0.845-3.399-0.451-9.031-0.326-10.521c2.138-1.915,4.314-3.692,6.548-5.342c0.444-0.328,0.538-0.955,0.21-1.398  c-0.327-0.444-0.954-0.539-1.398-0.211c-5.952,4.397-11.506,9.667-16.958,16.064c-3.011-2.199-5.476-4.405-7.406-6.646  c14.286-7.421,24.24-15.249,31.062-24.459c0.943,3.172,1.799,6.832,1.777,9.614C93.145,72.946,92.528,75.521,91.876,78.246z   M94.038,51.861c1.04-0.928,1.79-1.891,2.263-2.917c0.683,0.042,1.402-0.117,2.06-0.486c0.929-0.52,1.679-1.394,2.112-2.461  c0.434-1.066,0.505-2.216,0.202-3.236c-0.322-1.084-1.057-1.93-2.017-2.319c-0.502-0.203-1.047-0.273-1.593-0.218  c-0.088-2.929-0.748-9.611-4.813-12.189c-1.462-0.927-2.902-1.168-4.19-1.05c0.729-0.676,1.49-1.261,2.283-1.715  c1.754-1.005,3.865-1.5,6.003-1.5c2.523,0,5.083,0.69,7.133,2.047c3.496,2.313,5.112,6.185,4.55,10.9  C107.379,42.201,100.904,49.854,94.038,51.861z M102.115,73.157c-1.353-5.226,0.837-10.793,2.956-16.179  c1.961-4.986,3.809-9.704,2.46-13.63c1.349-2.172,2.249-4.395,2.487-6.397c0.051-0.429,0.081-0.85,0.101-1.267  c1.59,0.035,4.97,0.655,5.869,5.217c0.784,3.981-1.536,9.58-3.779,14.994c-2.312,5.578-4.702,11.347-4.056,16.01  c0.741,5.34,3.571,8.976,5.907,11.136C109.949,82.09,103.784,79.603,102.115,73.157z"/></svg>