<?xml version="1.0" encoding="utf-8"?>
<!-- Generator: Adobe Illustrator 27.4.0, SVG Export Plug-In . SVG Version: 6.00 Build 0)  -->
<svg version="1.1" id="Layer_1" xmlns="http://www.w3.org/2000/svg" xmlns:xlink="http://www.w3.org/1999/xlink" x="0px" y="0px"
	 viewBox="0 0 40 40" style="enable-background:new 0 0 40 40;" xml:space="preserve">
<style type="text/css">
	.st0{fill:#3f4891;}
</style>
<g id="Tennis_" transform="translate(0.027 0.027)">
	<path id="Path_11597" class="st0" d="M24.6,25c-1,0-2-0.2-2.9-0.2c-2.4,0-4.8,0.8-6.8,2.3c-0.5,0.4-1,0.8-1.4,1.3l-2.9,2.9
		c-0.1,0.1-0.1,0.2,0,0.3c0,0,0,0,0.1,0.1s0.4,0.2,0.4,0.4s-0.2,0.3-0.4,0.4l-5.8,5.8c-0.6,0.6-1.6,0.7-2.2,0.1c0,0,0,0-0.1-0.1
		l-0.8-0.8c-0.6-0.6-0.6-1.6,0-2.2l0,0c2-2,4.1-4.1,6.1-6.1C7.9,29,8,29,8.1,29.1s0.3,0.4,0.5,0.4s0.3-0.3,0.5-0.4
		c1-1,2-1.9,2.9-2.9c1.7-1.8,2.7-4,3-6.4c0.1-1.1,0.1-2.3,0-3.4c-0.3-2.5,0.3-5.1,1.5-7.3c1.6-3,4.3-5.3,7.4-6.7
		c1.5-0.7,3.1-1.1,4.8-1.1c3.7-0.2,7.2,1.8,8.9,5c0.7,1.3,1.1,2.9,1.1,4.4c0,2.7-0.8,5.3-2.3,7.5c-1.2,2-2.9,3.6-4.9,4.9
		c-1.9,1.2-4,1.8-6.2,1.9C25.1,25.1,24.9,25,24.6,25z M23.2,23.1c0.1,0,0.2,0,0.2-0.1c0.8-0.8,1.5-1.5,2.3-2.3
		c0.1-0.1,0.1-0.2,0-0.3c-0.8-0.8-1.6-1.6-2.4-2.4c-0.1-0.1-0.2-0.1-0.3,0c-1,1-2,2-3,3c-0.1,0.1-0.4,0.3-0.4,0.4s0.3,0.2,0.4,0.4
		C20.9,22.5,22,23,23.2,23.1z M16.8,16.8V17c0.1,0.6,0.3,1.2,0.6,1.8c0.2,0.6,0.5,1.1,0.9,1.6c0.1,0.1,0.1,0.2,0.3,0
		c1.1-1.1,2.3-2.3,3.4-3.4c0.1-0.1,0.1-0.1,0-0.2c-0.8-0.8-1.6-1.6-2.5-2.5c-0.1-0.1-0.1-0.1-0.2,0L17,16.6
		C16.9,16.7,16.8,16.7,16.8,16.8L16.8,16.8z M36.8,9.6c-0.1-0.4-0.2-0.8-0.3-1.1c-0.3-0.9-0.7-1.7-1.2-2.4C35.2,6,35.2,6,35,6.1
		l-3.4,3.3c-0.1,0.1-0.1,0.1,0,0.2l2.5,2.5c0.1,0.1,0.1,0.1,0.2,0l2.3-2.3C36.8,9.7,36.8,9.6,36.8,9.6L36.8,9.6z M30.4,3.2
		c-0.1,0-0.1,0-0.1,0.1L28,5.6c-0.1,0.1-0.1,0.2,0,0.3c0.8,0.8,1.6,1.6,2.4,2.4c0.1,0.1,0.2,0.1,0.3,0c1-1.1,2.2-2.2,3.3-3.3
		c0.1-0.1,0.1-0.2,0-0.3c-0.8-0.6-1.6-1-2.5-1.3C31.1,3.3,30.8,3.2,30.4,3.2L30.4,3.2z M23.1,10.4L23,10.5c-0.8,0.8-1.7,1.7-2.5,2.5
		c-0.1,0.1-0.1,0.1,0,0.2l2.5,2.5c0.1,0.1,0.1,0.1,0.2,0l2.6-2.6c0.1-0.1,0.1-0.1,0-0.2l-2.5-2.5L23.1,10.4z M26.8,19.6L26.8,19.6
		c1-1,1.8-1.8,2.7-2.7c0.1-0.1,0.1-0.1,0-0.2L27,14.3c-0.1-0.1-0.1-0.1-0.2,0c-0.9,0.9-1.7,1.7-2.6,2.6c-0.1,0.1-0.1,0.1,0,0.2
		c0.8,0.8,1.7,1.7,2.5,2.5H26.8z M29.5,9.4c0-0.1,0-0.1-0.1-0.1c-0.8-0.8-1.7-1.7-2.5-2.5c-0.1-0.1-0.1-0.1-0.2,0
		c-0.8,0.9-1.7,1.7-2.6,2.6c-0.1,0.1-0.1,0.1,0,0.2c0.8,0.8,1.6,1.6,2.5,2.5c0.1,0.1,0.1,0.1,0.2,0c0.8-0.9,1.7-1.7,2.6-2.5
		L29.5,9.4z M30.5,15.9c0.1,0,0.1-0.1,0.1-0.1c0.8-0.9,1.7-1.7,2.5-2.5c0.1-0.1,0.1-0.2,0-0.2l-2.5-2.5c-0.1-0.1-0.2-0.1-0.2,0
		l-2.5,2.5c-0.1,0.1-0.1,0.1,0,0.2c0.8,0.8,1.6,1.6,2.5,2.5L30.5,15.9z M25.8,5.7L25.8,5.7l-1.4-1.4c-0.1-0.1-0.2-0.1-0.2,0
		c-1.2,0.5-2.2,1.2-3.1,2c-0.1,0.1-0.1,0.1,0,0.2c0.6,0.6,1.2,1.2,1.8,1.8c0.1,0.1,0.1,0.1,0.2,0l2.5-2.6
		C25.7,5.8,25.8,5.7,25.8,5.7z M32.7,20L32.7,20c-0.7-0.7-1.4-1.4-2-2c-0.1-0.1-0.1-0.1-0.2,0l-2.6,2.6c-0.1,0.1-0.1,0.1,0,0.2
		l1.3,1.3c0.1,0.1,0.2,0.1,0.2,0l0,0c0.3-0.1,0.5-0.3,0.8-0.4C31.1,21.2,31.9,20.7,32.7,20C32.6,20.1,32.7,20.1,32.7,20L32.7,20z
		 M22.1,9.4L22.1,9.4l-2-2c-0.1-0.1-0.1-0.1-0.2,0l-0.7,0.9c-0.5,0.7-0.9,1.4-1.3,2.1c0,0.1-0.1,0.2,0,0.3c0.5,0.4,0.9,0.9,1.4,1.4
		c0.1,0.1,0.1,0.1,0.2,0C20.3,11.2,21.1,10.3,22.1,9.4L22.1,9.4z M19.7,23.6c-1.6-0.5-2.8-1.8-3.3-3.3l-1.9,5.3L19.7,23.6z
		 M35.9,15.8c0-0.1-0.1-0.1-0.1-0.1l-1.3-1.3c-0.1-0.1-0.2-0.1-0.3,0c-0.8,0.8-1.7,1.7-2.5,2.5c-0.1,0.1-0.1,0.2,0,0.3l1.8,1.8
		c0.1,0.1,0.2,0.1,0.3,0c0.8-0.9,1.5-1.9,2-3L35.9,15.8z M36.8,11.7L35.5,13c-0.3,0.3-0.3,0.3,0,0.5c0.3,0.3,0.3,0.3,0.5,0.5
		l0.4,0.4C36.7,13.5,36.8,12.6,36.8,11.7L36.8,11.7z M25.3,23.2L25.3,23.2c0.9,0,1.7-0.2,2.6-0.4c0.1,0,0.1-0.1,0-0.1l-0.9-1
		c-0.1-0.1-0.1-0.1-0.2,0c-0.3,0.3-0.5,0.5-0.8,0.8L25.3,23.2z M16.7,14.7L16.7,14.7c0.6-0.5,1-1,1.5-1.4c0.1-0.1,0.1-0.1,0-0.2
		l-0.9-0.9c-0.1-0.1-0.1-0.1-0.2,0.1c-0.1,0.4-0.2,0.9-0.3,1.3C16.8,13.9,16.8,14.3,16.7,14.7z M25.6,3.6c0.4,0.4,0.7,0.7,1,1
		c0.1,0.1,0.2,0.1,0.3,0l1.3-1.3c0,0,0.1-0.1,0.1-0.2C27.4,3.2,26.5,3.4,25.6,3.6z"/>
	<path id="Path_11598" class="st0" d="M26.3,26.7c1.1,0,2.3,0.3,3.2,0.9c0.2,0.1,0.2,0.1,0,0.3c-2.5,2.7-2.5,6.8,0,9.5
		c0.1,0.1,0.1,0.2,0,0.3c-0.8,0.5-1.7,0.8-2.7,0.9c-1.3,0.1-2.5-0.2-3.6-0.9c-0.3-0.2-0.3-0.2-0.1-0.4c0.9-1,1.6-2.3,1.7-3.7
		c0.3-2.1-0.4-4.2-1.8-5.7c-0.1-0.2-0.1-0.2,0-0.3C24.1,27.1,25.2,26.7,26.3,26.7L26.3,26.7z"/>
	<path id="Path_11599" class="st0" d="M21.4,29.4c0.5,0.6,0.9,1.2,1.1,2c0.5,1.6,0.1,3.3-1,4.5c-0.1,0.1-0.1,0.1-0.2,0
		c-1.2-2-1.2-4.4,0-6.4L21.4,29.4z"/>
	<path id="Path_11600" class="st0" d="M32.3,32.7c0,1.1-0.3,2.2-0.9,3.1c-0.1,0.1-0.1,0.2-0.3,0c-1.6-1.8-1.6-4.5,0-6.3
		c0.1-0.1,0.2-0.1,0.2,0C32,30.5,32.3,31.6,32.3,32.7z"/>
</g>
</svg>
