<?xml version="1.0" encoding="utf-8"?>
<!-- Generator: Adobe Illustrator 27.4.0, SVG Export Plug-In . SVG Version: 6.00 Build 0)  -->
<svg version="1.1" id="Layer_1" xmlns="http://www.w3.org/2000/svg" xmlns:xlink="http://www.w3.org/1999/xlink" x="0px" y="0px"
	 viewBox="0 0 40 40" style="enable-background:new 0 0 40 40;" xml:space="preserve">
<style type="text/css">
	.st0{fill:#3f4891;}
</style>
<g id="Vollyball" transform="translate(-0.036 0.002)">
	<path id="Path_11593" class="st0" d="M35.1,28.8v10c0,0.2,0,0.3,0,0.5s-0.1,0.3-0.3,0.3s-0.3-0.1-0.3-0.3c0-0.6,0-1.2,0-1.9
		c0-1.7,0-3.5,0-5.2c0-0.5-0.1-0.7-0.6-0.7c-3.8,0.2-7.7,0.5-11.5,0.7l-10.8,0.6c-2,0.1-4,0.2-6,0.4c-0.2,0-0.4,0.1-0.5-0.1
		c-0.1-0.2,0-0.4,0.1-0.6c0.3-0.4,0.3-0.9,0-1.3C5,31,5,30.7,5.2,30.5c0.3-0.4,0.3-1,0-1.5C5,29,5,28.9,5.1,28.7
		c0.4-0.4,0.4-1.1,0-1.6c-0.1-0.2-0.1-0.4,0-0.5c0.4-0.4,0.4-1,0-1.4C5,25,5,24.8,5.1,24.6c0.3-0.4,0.3-1,0-1.5
		c-0.2-0.3-0.2-0.5,0.3-0.6c4.3-0.7,8.5-1.4,12.8-2.1l14.2-2.3c0.7-0.1,1.4-0.2,2.1-0.3c0.6-0.1,0.7,0.1,0.7,0.6c0,2.1,0,4.2,0,6.4
		C35.1,26.1,35.1,27.4,35.1,28.8z M34.5,19.5c-0.1-0.3,0.2-0.9-0.2-0.9c-0.4-0.1-1.1-0.1-1.3,0.3c-0.2,0.5-0.2,1.1,0,1.6
		c0.2,0.3,0.7,0,1,0C34.8,20.4,34.3,19.8,34.5,19.5L34.5,19.5z M34.5,22.1V22c-0.1-0.3,0.2-0.7-0.2-0.8c-0.4-0.1-0.9,0-1.3,0.2
		c-0.2,0.6-0.2,1.2,0,1.7c0.1,0,0.1,0.1,0.2,0.1C34,23.4,34.5,23,34.5,22.1L34.5,22.1z M34.5,24.7c-0.1-0.3,0.2-0.8-0.2-0.9
		S33.2,23.6,33,24c-0.2,0.5-0.2,1.1,0,1.5c0.1,0.3,0.7,0.1,1,0.1C34.8,25.7,34.4,25.1,34.5,24.7L34.5,24.7z M34.5,27.2
		c-0.1-0.2,0.2-0.7-0.2-0.8s-1-0.2-1.2,0.1c-0.3,0.4-0.2,1.1-0.1,1.6c0.1,0.4,0.5,0.1,0.8,0.2C34.6,28.4,34.5,27.8,34.5,27.2z
		 M32.3,27.5c0-0.9-0.5-1.3-1.3-0.8c-0.5,0.3-0.2,1-0.2,1.5c0,0.4,0.3,0.3,0.5,0.3C32.3,28.5,32.3,28.5,32.3,27.5L32.3,27.5z
		 M32.3,19.8c-0.1-0.2,0.2-0.7-0.2-0.8c-0.4-0.1-0.9-0.1-1.2,0.2c-0.2,0.5-0.3,1-0.1,1.5c0.1,0.4,0.6,0.1,0.9,0.1
		C32.5,20.8,32.2,20.3,32.3,19.8L32.3,19.8z M32.3,22.3c-0.2-0.2,0.3-0.8-0.4-0.8c-1,0-1.2,0.1-1.1,1.1c0,0.3-0.3,0.9,0.4,0.9
		C32.3,23.4,32.3,23.4,32.3,22.3L32.3,22.3z M32.3,25c0-0.1,0-0.2,0-0.3c0-0.3,0.1-0.6-0.4-0.6c-0.4,0.1-1.1-0.3-1.1,0.5
		c0,0.4,0,0.7,0,1.1c0,0.2,0.1,0.3,0.4,0.3C32,26.1,32.3,25.9,32.3,25L32.3,25z M34.5,29.8c-0.2-0.2,0.3-0.9-0.4-0.8
		c-1.3,0.2-1.1-0.1-1.1,0.9c0,0.4-0.3,1,0.6,1C34.5,30.8,34.5,30.9,34.5,29.8L34.5,29.8z M32.3,30c-0.2-0.2,0.4-0.8-0.4-0.8
		c-1.1,0-1.1,0-1.1,0.9c0,0.4-0.2,1,0.6,0.9C32.2,31,32.3,31,32.3,30L32.3,30z M30.2,20.2c-0.1-0.3,0.2-0.8-0.2-0.9
		c-0.4-0.1-0.9-0.1-1.1,0.3c-0.2,0.5-0.2,1,0,1.5c0.1,0.3,0.6,0.1,0.9,0.1C30.4,21.1,30.1,20.6,30.2,20.2L30.2,20.2z M28.1,22.9
		c-0.1-0.3,0.2-0.7-0.2-0.8C27.6,22,27,22,26.8,22.3c-0.2,0.5-0.3,1,0,1.5c0.1,0.3,0.6,0.1,0.9,0.1C28.4,23.8,28,23.3,28.1,22.9
		L28.1,22.9z M30.2,25.2c-0.1-0.3,0.2-0.8-0.2-0.9c-0.3-0.1-0.9-0.1-1.1,0.2c-0.2,0.5-0.2,1-0.1,1.5c0.1,0.4,0.6,0.1,0.9,0.2
		C30.4,26.2,30.1,25.6,30.2,25.2L30.2,25.2z M28.1,27.9c-0.1-0.2,0.2-0.7-0.2-0.8c-0.4-0.2-0.9,0-1.1,0.4c-0.1,0.1-0.1,0.3-0.1,0.4
		v0.7c0,0.2,0.1,0.3,0.3,0.4C27.9,29,28.1,28.8,28.1,27.9L28.1,27.9z M30.2,22.7c0-0.9,0-0.9-0.4-0.9c-1,0-1.1,0.1-1,1
		c0,0.3-0.3,0.9,0.4,0.9C30.1,23.7,30.2,23.6,30.2,22.7L30.2,22.7z M30.2,27.7c-0.1-0.2,0.2-0.7-0.2-0.8c-0.3-0.1-0.9-0.2-1.1,0.1
		c-0.2,0.5-0.3,1-0.1,1.5c0.1,0.4,0.5,0.1,0.7,0.1C30.3,28.8,30.2,28.2,30.2,27.7z M30.2,30.2c-0.1-0.3,0.2-0.9-0.6-0.8
		c-0.9,0.1-0.9,0-0.9,0.9c0,0.4-0.2,0.9,0.6,0.9C30.1,31.1,30.2,31.1,30.2,30.2L30.2,30.2z M28.2,25.4c-0.2-0.3,0.2-0.8-0.3-0.8
		c-0.3-0.1-0.9-0.1-1.1,0.3s-0.2,1,0,1.4s0.6,0.1,0.9,0.1C28.4,26.3,28,25.7,28.2,25.4L28.2,25.4z M28.1,20.5
		c-0.1-0.2,0.2-0.7-0.2-0.8c-0.4-0.1-0.9-0.1-1.1,0.2c-0.2,0.5-0.3,1-0.1,1.5c0.1,0.4,0.5,0.1,0.8,0.1
		C28.3,21.5,28.1,20.9,28.1,20.5L28.1,20.5z M26.2,28.1c0-0.9,0-0.9-0.3-0.9c-0.9,0-1.1,0.1-1,1c0,0.3-0.3,0.9,0.5,0.9
		C26.2,29,26.2,29,26.2,28.1L26.2,28.1z M26.7,30.4c0.1,0.3-0.3,0.9,0.5,0.9c0.6,0,1-0.1,0.9-0.8c-0.1-0.4,0.3-1-0.6-1
		C26.8,29.5,26.6,29.7,26.7,30.4L26.7,30.4z M26.2,23.2c-0.1-0.2,0.3-0.8-0.4-0.8c-0.8,0-1,0.1-1,1c0,0.3-0.3,0.9,0.4,0.9
		C26.1,24.2,26.2,24.1,26.2,23.2L26.2,23.2z M26.1,25.5c-0.1-0.1,0.4-0.8-0.4-0.7c-0.8,0-0.9,0.1-0.9,0.9c0,0.4-0.3,0.9,0.5,0.9
		C26.1,26.6,26.3,26.3,26.1,25.5L26.1,25.5z M26.2,20.8C26,20.6,26.5,20,25.8,20c-0.8,0-1,0.1-1,1c0,0.3-0.3,0.8,0.5,0.8
		C26.1,21.8,26.2,21.7,26.2,20.8L26.2,20.8z M26.2,30.5c-0.1-0.3,0.3-0.9-0.5-0.9c-0.7,0-0.9,0.3-0.8,0.9c0.1,0.4-0.2,0.9,0.5,0.9
		C25.9,31.3,26.4,31.3,26.2,30.5L26.2,30.5z M24.3,23.4c-0.2-0.2,0.2-0.7-0.3-0.8c-0.3-0.1-0.8-0.1-0.9,0.2c-0.2,0.4-0.2,0.9,0,1.4
		c0.1,0.3,0.5,0.1,0.8,0.1C24.4,24.3,24.2,23.8,24.3,23.4z M21.2,23.8c0.1,0.3-0.2,0.7,0.2,0.8c0.3,0.1,0.8,0.1,0.9-0.2
		c0.2-0.4,0.2-1,0-1.4c-0.1-0.3-0.5-0.1-0.8,0C21,23,21.3,23.5,21.2,23.8L21.2,23.8z M24.2,21.1c0-0.9-0.2-1-1-0.7
		c-0.5,0.2-0.2,0.6-0.3,1c0,0.7,0.3,0.9,1,0.6C24.5,21.7,24.2,21.3,24.2,21.1L24.2,21.1z M22.4,28.5c0-0.9-0.3-1.1-1-0.8
		c-0.5,0.2-0.2,0.6-0.3,1c0,0.8,0.2,0.9,0.9,0.7C22.6,29.1,22.4,28.7,22.4,28.5L22.4,28.5z M22.4,26.1c0-0.9-0.3-1.1-1-0.8
		c-0.5,0.2-0.2,0.6-0.2,1c0,0.7,0.1,0.8,0.8,0.7C22.6,26.8,22.4,26.4,22.4,26.1L22.4,26.1z M23,28.3c0,1,0.1,1.1,1,0.8
		c0.6-0.2,0.2-0.6,0.3-1c0.1-0.7-0.2-0.7-0.8-0.7C22.8,27.5,23.1,28,23,28.3L23,28.3z M22.4,21.4c0-0.9-0.2-1.1-1-0.8
		c-0.5,0.2-0.2,0.6-0.3,1c0,0.7,0.3,0.9,1,0.6C22.6,22,22.4,21.6,22.4,21.4L22.4,21.4z M24.3,25.9c-0.1-0.3,0.2-0.7-0.3-0.8
		c-0.3-0.1-0.8-0.1-0.9,0.2c-0.2,0.5-0.2,1,0,1.4c0.1,0.4,0.5,0.1,0.8,0.1C24.6,26.7,24.1,26.1,24.3,25.9L24.3,25.9z M20.7,28.6
		c-0.1-0.3,0.2-0.7-0.2-0.8c-0.3-0.1-0.8-0.1-0.9,0.2c-0.2,0.4-0.2,0.9,0,1.4c0.1,0.3,0.5,0.1,0.8,0.1
		C20.9,29.3,20.5,28.8,20.7,28.6L20.7,28.6z M20.6,23.9c-0.1-0.3,0.3-0.8-0.4-0.8c-0.6,0-0.9,0.3-0.8,0.9c0.1,0.3-0.3,0.8,0.4,0.8
		C20.6,24.8,20.8,24.6,20.6,23.9L20.6,23.9z M20.7,21.6c-0.1-0.3,0.2-0.7-0.3-0.8c-0.3-0.1-0.8,0-0.9,0.3c-0.2,0.4-0.2,0.9,0,1.3
		c0.2,0.3,0.5,0.1,0.8,0C20.8,22.4,20.6,21.9,20.7,21.6L20.7,21.6z M24.2,30.6c0-0.3,0.3-0.8-0.5-0.8c-0.7,0-0.8,0.3-0.7,0.9
		c0.1,0.3-0.3,0.8,0.4,0.8C24.1,31.5,24.4,31.3,24.2,30.6L24.2,30.6z M20.6,26.1c-0.2-0.1,0.4-0.7-0.3-0.7c-0.9,0-0.9,0.1-0.9,0.9
		c0,0.3-0.2,0.8,0.5,0.8C20.7,27.2,20.7,26.7,20.6,26.1L20.6,26.1z M20.6,30.7c-0.1-0.2,0.3-0.7-0.4-0.7c-0.6,0-0.8,0.3-0.8,0.8
		c0.1,0.4-0.2,0.8,0.5,0.8C20.7,31.7,20.7,31.4,20.6,30.7L20.6,30.7z M22.4,30.8c-0.1-0.3,0.3-0.9-0.5-0.9c-0.5,0-0.9,0.1-0.7,0.7
		c0.1,0.3-0.4,0.9,0.5,0.9C22.3,31.6,22.6,31.4,22.4,30.8L22.4,30.8z M17.7,21.9c0,0.9,0.1,1,0.8,0.8c0.6-0.2,0.3-0.6,0.3-0.9
		c0-0.8-0.1-0.9-0.9-0.6C17.5,21.4,17.9,21.7,17.7,21.9L17.7,21.9z M18.9,28.8c0-1-0.1-1-0.8-0.8c-0.6,0.2-0.3,0.6-0.3,1
		c0,0.6,0.3,0.8,0.9,0.6C19,29.4,18.8,29,18.9,28.8L18.9,28.8z M18.9,26.5c-0.1-0.3,0.2-0.7-0.2-0.8c-0.3-0.1-0.7-0.1-0.8,0.2
		c-0.2,0.4-0.2,0.9-0.1,1.3c0.1,0.3,0.4,0.1,0.7,0.1C19.1,27.3,18.8,26.8,18.9,26.5L18.9,26.5z M18.9,24.2c0-0.9-0.1-1-0.8-0.8
		c-0.5,0.2-0.3,0.6-0.3,0.9c0,0.7,0.2,0.8,0.9,0.6C19.1,24.8,18.8,24.4,18.9,24.2L18.9,24.2z M18.8,30.9c-0.1-0.2,0.3-0.7-0.5-0.7
		c-0.6,0-0.7,0.3-0.7,0.8c0,0.3-0.2,0.8,0.5,0.8C18.9,31.8,18.9,31.5,18.8,30.9z M17.2,22c-0.1-0.2,0.3-0.7-0.4-0.7
		c-0.6,0-0.8,0.3-0.7,0.9c0.1,0.3-0.3,0.8,0.4,0.8C17.2,23,17.3,22.6,17.2,22L17.2,22z M17.2,26.6c-0.1-0.3,0.2-0.7-0.2-0.8
		c-0.3-0.1-0.7-0.1-0.8,0.2c-0.2,0.4-0.2,0.9,0,1.3c0.1,0.3,0.5,0.1,0.7,0C17.4,27.3,17.1,26.9,17.2,26.6L17.2,26.6z M17.2,28.7
		c-0.1-0.2,0.3-0.6-0.4-0.7s-0.7,0.4-0.7,0.9c0,0.3-0.2,0.8,0.4,0.8C17.2,29.8,17.3,29.4,17.2,28.7L17.2,28.7z M13,29.3
		c0,0.1-0.3,0.7,0.4,0.7c0.6,0,0.7-0.4,0.6-0.8c0-0.3,0.2-0.8-0.4-0.8C13,28.4,12.9,28.7,13,29.3L13,29.3z M17.2,24.4
		c-0.1-0.3,0.2-0.7-0.3-0.8c-0.3-0.1-0.7,0-0.8,0.2c-0.2,0.4-0.2,0.9,0,1.3c0.1,0.3,0.5,0.1,0.7,0.1C17.5,25.1,17.1,24.7,17.2,24.4
		L17.2,24.4z M13,27.2c0.1,0.1-0.3,0.7,0.4,0.6c0.6,0,0.7-0.3,0.6-0.8c-0.1-0.3,0.2-0.8-0.4-0.8C13,26.2,12.8,26.5,13,27.2L13,27.2z
		 M11.4,23c0.1,0.3-0.2,0.7,0.4,0.7s0.6-0.4,0.6-0.9c0-0.3,0.2-0.7-0.4-0.7C11.5,22.1,11.4,22.5,11.4,23L11.4,23z M17.2,31.1
		c0-0.4,0.1-0.8-0.5-0.8c-0.7,0-0.6,0.4-0.6,0.9c0,0.3-0.2,0.7,0.4,0.7C17.2,31.9,17.3,31.5,17.2,31.1L17.2,31.1z M12.4,24.9
		c-0.1-0.1,0.2-0.6-0.3-0.6c-0.6,0-0.7,0.3-0.6,0.8c0.1,0.3-0.2,0.7,0.4,0.8C12.4,25.8,12.5,25.5,12.4,24.9z M14,24.7
		c-0.1-0.2,0.3-0.7-0.3-0.7s-0.8,0.3-0.7,0.8c0,0.3-0.2,0.8,0.5,0.7C14,25.6,14,25.3,14,24.7L14,24.7z M13,22.8
		c0.1,0.2-0.3,0.7,0.4,0.7c0.6,0,0.7-0.3,0.6-0.8c0-0.3,0.3-0.8-0.4-0.8C13,21.9,12.9,22.2,13,22.8L13,22.8z M11.5,29.5
		c0.2,0.1-0.4,0.7,0.3,0.6c0.5,0,0.8-0.2,0.7-0.7c-0.1-0.3,0.2-0.8-0.4-0.8C11.4,28.5,11.4,28.9,11.5,29.5L11.5,29.5z M12.4,27.1
		c-0.1-0.2,0.3-0.7-0.4-0.7c-0.6,0-0.6,0.3-0.6,0.7c0,0.3-0.2,0.8,0.4,0.8C12.4,28,12.5,27.7,12.4,27.1L12.4,27.1z M14,31.3
		c-0.1-0.2,0.2-0.7-0.4-0.7c-0.7,0-0.6,0.3-0.6,0.8c0,0.3-0.1,0.8,0.5,0.8C14,32.1,14,31.8,14,31.3L14,31.3z M11.4,31.6
		c0.1,0.1-0.2,0.6,0.4,0.6c0.6,0,0.7-0.3,0.6-0.8c0-0.3,0.2-0.7-0.4-0.7C11.4,30.7,11.4,31.1,11.4,31.6L11.4,31.6z M15.5,26.8
		c0-0.8-0.3-1.1-0.8-0.7c-0.4,0.2-0.1,0.6-0.2,1c0,0.2-0.1,0.5,0.1,0.6c0.2,0.1,0.5,0.1,0.7-0.1C15.7,27.4,15.5,27.1,15.5,26.8
		L15.5,26.8z M15.6,22.4c-0.1-0.2,0.1-0.6-0.2-0.7c-0.2-0.1-0.5-0.1-0.7,0.1c-0.3,0.2-0.1,0.6-0.1,0.9c0,0.2-0.1,0.5,0.1,0.6
		c0.2,0.1,0.5,0.1,0.7-0.1C15.7,23,15.5,22.6,15.6,22.4L15.6,22.4z M14.5,29.2c0.1,0.2-0.3,0.7,0.4,0.7c0.6,0,0.8-0.3,0.7-0.8
		c-0.1-0.3,0.3-0.8-0.5-0.8C14.4,28.2,14.5,28.7,14.5,29.2L14.5,29.2z M15.6,24.6c-0.1-0.3,0.1-0.6-0.2-0.7
		c-0.2-0.1-0.5-0.1-0.7,0.1c-0.3,0.2-0.1,0.6-0.1,0.9c0,0.2-0.1,0.5,0.1,0.6c0.2,0.1,0.5,0,0.7-0.1C15.7,25.2,15.5,24.8,15.6,24.6
		L15.6,24.6z M14.5,31.3c0.1,0.2-0.3,0.7,0.4,0.7s0.6-0.4,0.6-0.8c0-0.3,0.2-0.8-0.4-0.8C14.4,30.4,14.5,30.8,14.5,31.3L14.5,31.3z
		 M10.9,25.1c-0.1-0.1,0.3-0.6-0.4-0.6s-0.6,0.4-0.5,0.8c0,0.3-0.2,0.7,0.3,0.7C10.9,26,11,25.7,10.9,25.1L10.9,25.1z M11,29.3
		c-0.1-0.2,0.1-0.7-0.5-0.7c-0.7,0-0.5,0.5-0.5,0.9c0,0.3-0.1,0.6,0.4,0.6C11.1,30.2,10.9,29.8,11,29.3L11,29.3z M11,27.3
		c-0.1-0.2,0.2-0.7-0.5-0.7c-0.6,0-0.5,0.4-0.5,0.8c0,0.3-0.2,0.8,0.4,0.8C11,28.1,11,27.7,11,27.3z M10.9,22.9
		c-0.1-0.1,0.3-0.6-0.3-0.6s-0.8,0.3-0.6,0.8c0.1,0.3-0.3,0.7,0.3,0.8C11,23.9,11,23.6,10.9,22.9L10.9,22.9z M10,31.6
		c0,0.2-0.2,0.7,0.4,0.7c0.5,0,0.5-0.3,0.5-0.7c0-0.4,0.2-0.8-0.5-0.8C10,30.8,10,31.1,10,31.6L10,31.6z M9.5,25.3
		c-0.1-0.2,0.3-0.6-0.3-0.7c-0.6,0-0.6,0.4-0.5,0.8c0,0.3-0.2,0.8,0.4,0.7C9.6,26.2,9.5,25.7,9.5,25.3L9.5,25.3z M9.5,29.5
		c-0.1-0.2,0.3-0.7-0.4-0.7c-0.5,0-0.5,0.4-0.5,0.8c0,0.3-0.2,0.7,0.4,0.7C9.6,30.3,9.5,29.9,9.5,29.5L9.5,29.5z M9.5,27.4
		c-0.1-0.2,0.2-0.7-0.3-0.7c-0.6,0-0.6,0.4-0.5,0.8c0,0.3-0.2,0.7,0.4,0.7C9.6,28.2,9.4,27.8,9.5,27.4L9.5,27.4z M6.7,23.6
		C6.6,23.5,6.9,23,6.4,23c-0.3,0-0.5,0.1-0.5,0.4v0.7c0,0.2,0,0.4,0.3,0.4s0.5,0,0.5-0.3C6.7,24,6.7,23.8,6.7,23.6L6.7,23.6z
		 M9.5,31.5c-0.1-0.2,0.2-0.6-0.4-0.6c-0.6,0-0.5,0.4-0.5,0.8c0,0.3-0.1,0.7,0.4,0.7C9.6,32.4,9.4,31.9,9.5,31.5L9.5,31.5z
		 M9.5,23.3c-0.1-0.2,0.2-0.5-0.2-0.7c-0.2-0.1-0.5,0-0.6,0.2c-0.2,0.3-0.1,0.6-0.1,0.9c0,0.2,0,0.4,0.3,0.4s0.5,0,0.6-0.4
		C9.5,23.6,9.5,23.5,9.5,23.3L9.5,23.3z M8.1,29.7C8,29.5,8.3,29,7.7,29s-0.5,0.4-0.5,0.8c0,0.3-0.3,0.7,0.4,0.7
		C8.2,30.5,8.1,30.1,8.1,29.7L8.1,29.7z M6.7,29.8c-0.1-0.2,0.2-0.7-0.4-0.7s-0.5,0.4-0.5,0.7c0,0.3-0.2,0.8,0.4,0.7
		C6.8,30.6,6.7,30.1,6.7,29.8L6.7,29.8z M7.2,27.7c0.1,0.2-0.3,0.6,0.3,0.7c0.6,0,0.6-0.3,0.5-0.7c0-0.3,0.2-0.8-0.4-0.8
		S7.2,27.3,7.2,27.7L7.2,27.7z M8.1,25.5c-0.1-0.2,0.2-0.7-0.4-0.7s-0.5,0.4-0.5,0.8c0,0.3-0.2,0.7,0.4,0.7S8.1,25.9,8.1,25.5
		L8.1,25.5z M6.7,25.7C6.6,25.5,6.9,25,6.3,25s-0.5,0.4-0.5,0.7c0,0.3-0.2,0.7,0.3,0.7C6.8,26.5,6.7,26.1,6.7,25.7L6.7,25.7z
		 M6.7,27.7C6.6,27.5,6.9,27,6.3,27c-0.5,0-0.5,0.3-0.5,0.7c0,0.3-0.2,0.7,0.4,0.7C6.8,28.5,6.7,28.1,6.7,27.7L6.7,27.7z M8.1,31.7
		C8,31.4,8.2,31,7.6,31s-0.4,0.5-0.4,0.8S7,32.5,7.6,32.5S8.1,32,8.1,31.7L8.1,31.7z M7.2,23.6c0.1,0.2-0.3,0.6,0.3,0.6
		s0.6-0.3,0.5-0.7c0-0.3,0.2-0.7-0.3-0.7S7.2,23.1,7.2,23.6L7.2,23.6z M6.7,31.8c-0.1-0.2,0.2-0.6-0.4-0.6s-0.5,0.4-0.5,0.7
		s-0.2,0.7,0.4,0.7C6.8,32.5,6.7,32.1,6.7,31.8L6.7,31.8z"/>
	<path id="Path_11594" class="st0" d="M19.3,10.4c0-0.7,0.1-1.4,0.2-2c0.1-0.5,0.3-0.5,0.7-0.4c0.2,0.1,0.5,0.2,0.7,0.2
		C21.6,8.3,22,8.9,22,9.6c0.2,2.2,1.3,4.3,3.1,5.6c0.2,0.2,0.5,0.3,0.5,0.5c0,0.3-0.4,0.3-0.6,0.3c-2.7,0.8-2.7,0.8-4.4-1.5
		C19.8,13.4,19.3,11.9,19.3,10.4z"/>
	<path id="Path_11595" class="st0" d="M22.6,9c0-0.2,0.1-0.4,0.3-0.6C25,7,26.3,4.8,26.6,2.3c0.1-0.5,0.2-0.5,0.6-0.2
		c1.9,1.4,2.2,2.5,1.1,4.6c-0.9,2-2.7,3.5-4.7,4.2c-0.5,0.2-0.7,0.1-0.8-0.5c0-0.3-0.1-0.7-0.2-1C22.6,9.3,22.6,9.1,22.6,9L22.6,9z"
		/>
	<path id="Path_11596" class="st0" d="M18.7,4.1c1.8,0.1,3.5,0.8,4.9,2c0.5,0.4,0.5,0.7,0,1.1c-0.1,0-0.1,0.1-0.2,0.1
		c-0.5,0.7-1.5,0.9-2.2,0.4c-2-0.9-4.3-1-6.3-0.1c-0.2,0.1-0.4,0.3-0.6,0.1c-0.2-0.2,0-0.4,0-0.7c0-0.1,0-0.2,0-0.3
		C14.8,4.6,15.6,4.1,18.7,4.1z"/>
	<path id="Path_11597" class="st0" d="M18,7.7c1,0,1,0,0.8,1c-0.5,2.6,0.2,5.2,1.9,7.2c0.1,0.2,0.4,0.3,0.3,0.5
		c-0.1,0.3-0.4,0.1-0.6,0c-2.7-0.6-3.6-1.8-4.2-4.9c-0.2-0.9-0.2-1.7,0-2.6c0.2-1.1,0.3-1.1,1.3-1.2C17.7,7.7,17.8,7.7,18,7.7z"/>
	<path id="Path_11598" class="st0" d="M29.7,5.4c0.7,1.4,0.7,3,0.1,4.4c-1,1.8-2.7,3.2-4.7,3.8c-0.4,0.2-0.8,0-1-0.3
		c-0.3-0.5-0.8-0.9-0.8-1.4c0.1-0.6,0.8-0.5,1.3-0.7c2.1-1,3.8-2.8,4.6-5C29.3,5.9,29.5,5.6,29.7,5.4z"/>
	<path id="Path_11599" class="st0" d="M15.9,3.6c1-1.7,2.9-2.7,4.9-2.3c1.6,0.2,3.2,1,4.4,2.1c0.3,0.2,0.4,0.6,0.2,0.9l0,0
		c-0.3,0.5-0.4,1.2-0.8,1.4C24,6.1,23.7,5.3,23.3,5c-2-1.4-4.4-1.9-6.8-1.4c-0.1,0-0.3,0-0.4,0.1C16.1,3.6,16,3.6,15.9,3.6L15.9,3.6
		z"/>
	<path id="Path_11600" class="st0" d="M25.8,3.1c-1.4-1.3-3.3-2.2-5.2-2.4c1.7-0.5,3.5-0.3,5.1,0.5C26,1.3,26.1,1.5,26,1.7
		C26,2.1,25.9,2.6,25.8,3.1z"/>
	<path id="Path_11601" class="st0" d="M16,13.5c-1-1.1-1.7-2.6-1.8-4.1c0-0.7,0.6-1.3,1.3-1.3l0,0c0.3,0,0.2,0.2,0.2,0.4
		C15.3,10.1,15.4,11.8,16,13.5z"/>
	<path id="Path_11602" class="st0" d="M29.7,11.3c-0.5,1.6-1.5,3-2.9,3.9c-0.3,0.2-1.5-0.4-1.5-0.7c0-0.2,0.1-0.2,0.3-0.3
		C27.2,13.6,28.6,12.6,29.7,11.3z"/>
</g>
</svg>
