<?xml version="1.0" encoding="utf-8"?>
<!-- Generator: Adobe Illustrator 27.4.0, SVG Export Plug-In . SVG Version: 6.00 Build 0)  -->
<svg version="1.1" id="Layer_1" xmlns="http://www.w3.org/2000/svg" xmlns:xlink="http://www.w3.org/1999/xlink" x="0px" y="0px"
	 viewBox="0 0 40 40" style="enable-background:new 0 0 40 40;" xml:space="preserve">
<style type="text/css">
	.st0{fill:#3f4891;}
</style>
<g id="Wrestling" transform="translate(0.116 -0.001)">
	<path id="Path_11593" class="st0" d="M36.5,2c-1.2,2-3.2,3.5-5.5,4c-0.5,0.1-1.1,0.2-1.1,0.9c2.8-0.8,5.7-1.4,8.6-1.8
		c0.2,0,0.4-0.3,0.5,0.1c0.1,0.3-0.1,0.4-0.4,0.5c-2.2,0.4-4.5,0.8-6.7,1.2c-0.9,0.2-1.7,0.6-2.5,1c-0.2,0.1-0.2,0.3-0.3,0.5
		c-0.6,1.5-1.3,3-1.9,4.4s-1.1,2.9-2.9,3.4c0.1,0.4,0.4,0.3,0.5,0.3c0.3,0,0.6,0,0.9,0c0.9,0.1,1.6,0.6,2,1.4
		c0.2,0.8-0.1,1.6-0.7,2.1c-1.1,1.4-2.9,2-4.7,1.7c-0.9-0.2-1.7-0.9-1.7-1.9c-0.1-0.5-0.2-1-0.3-1.4c0-0.2,0-0.5-0.3-0.4
		c-0.2,0.1-0.5,0.1-0.3,0.5c0.1,0.1-0.1,0.5-0.5,0.3c-1-0.4-1-0.4-1.3,0.7c-0.1,0.3-0.2,0.6-0.3,1c-0.1,0.2-0.1,0.5-0.5,0.4
		c-0.2-0.1-0.3,0.1-0.4,0.3c-0.1,0.5-0.1,1-0.6,1.3c-0.2,0.1-0.1,0.7,0,1c0.2,1,1.1,1.8,2.2,1.8c1.1,0.1,2.1-0.5,2.5-1.6
		c0.2-0.4,0.2-0.9,0.3-1.3c0-0.3,0.1-0.5,0.5-0.3c1.2,0.6,2.6,0.5,3.8-0.1c1.3-0.6,2.7-1.1,4.1-1.4c1.3-0.4,2.6,0,3.6,0.9
		c0.7,0.7,1.6,1.2,2.6,1.4c0.5,0.1,1,0.4,1.3,0.8s0.5,0.3,0.8,0c0.3-0.4,0.7-0.8,1.2-1.3c0.2,0.6,0.1,1-0.2,1.3
		c-0.2,0.2-0.4,0.4-0.6,0.6c-0.4,0.3-0.2,0.4,0,0.7c0.4,0.5,1.2,0.7,0.9,1.7c-0.3-0.3-0.6-0.6-0.9-0.9s-0.4-0.2-0.6,0.1
		c-0.4,0.7-0.6,1.5-0.6,2.4c0,0.8-0.1,1.5-0.1,2.3c0,0.3,0,0.7,0.4,0.8c0.4,0.1,0.4-0.3,0.5-0.5c0.3-0.8,0.8-1.6,1.5-2.3
		c0.1,0.4,0,0.8-0.2,1.1c-0.7,1.1-1.2,2.3-1.4,3.6c-0.1,0.4,0.1,0.8,0.5,0.8c0.1,0,0.2,0,0.3,0c0.8-0.1,0.8-0.1,0.9,0.8
		c0,0.5-0.1,1-0.3,1.5c-0.4,0.4-0.4,1.1,0.1,1.5c0,0,0.1,0,0.1,0.1c-0.6,0.2-1,0-1-0.5c-0.1-0.4-0.4-0.5-0.6-0.6
		c-0.2-0.1-0.5-0.2-0.4-0.5s0.4-0.2,0.6,0c0.1,0.1,0.3,0.1,0.5,0c-0.1-0.2-0.3-0.2-0.4-0.3s-0.4-0.2-0.2-0.5
		c0.2-0.2,0.3-0.2,0.5-0.1c0.2,0.1,0.4,0.3,0.6,0.1c0.1-0.2,0.4-0.3,0.3-0.6c-0.1-0.3-0.4-0.2-0.6-0.2c-0.2,0-0.5,0-0.7-0.1
		c-0.4-0.3-0.6-0.2-0.9,0.2c-0.3,0.4-0.6,0.8-1,1.1c-0.4,0.4-0.7,0.8-0.9,1.4c-0.1,0.3-0.2,0.2-0.4,0.2c-0.3,0-0.3-0.2-0.2-0.4
		c0.1-0.5,0.3-0.9,0.6-1.2c0.2-0.2,0.3-0.5,0.1-0.8l0,0c-0.1-0.1-0.1-0.2-0.2-0.3c-0.8-1.3-0.7-1.7,0.5-2.5c0.6-0.3,0.9-0.9,0.9-1.6
		c0-0.5,0.1-1,0.1-1.5c-0.1-1.2,0.2-2.5,0.8-3.6c0.2-0.3,0.2-0.8-0.1-1c-0.4-0.5-1-0.9-1.7-1.1c-1-0.2-1.8-0.7-2.5-1.4
		c-0.9-0.9-2.2-1.2-3.4-0.7c-1.3,0.4-2.5,0.8-3.7,1.3c-1.1,0.5-2.3,0.6-3.4,0.3C22,23,22,23.3,21.9,23.6c-0.2,1.5-1.5,2.5-3,2.4
		c-1.6,0-3-1.2-3-2.9c0-0.4,0-0.7,0.2-1.1c0.3-0.6,0.5-1.1,0.7-1.7c0-0.2,0.2-0.2,0.4-0.2c0.3,0.1,0.4,0,0.4-0.3s0.3-0.5,0.1-0.7
		s-0.5,0-0.7,0.1c-1.5,0.6-3.1,0.9-4.7,0.9c-0.7,0.1-1.2,0.2-1.4,1c-0.2,0.7-0.5,1.4-0.7,2.1c-0.7,1.9-1.8,3.6-3.2,5
		c-0.6,0.8-0.8,0.7,0,1.5c0.4,0.4,0.3,0.6-0.1,0.9C6,31.1,5.6,31.4,5,30.8c-0.4-0.4-0.7,0-1,0.2c-0.7,0.6-1.7,0.8-2.6,0.5
		c-0.2-0.1-0.3-0.1-0.5-0.2c-0.3-0.2-0.4-0.4-0.1-0.7l0.1-0.1c2.2-1.9,4-4.1,5.3-6.7c0.2-0.5,0.4-1.1,0.3-1.7
		c0.2-1.3,0.3-2.6,0.4-3.9C7,17.9,7,17.6,7.1,17.4c0-0.1,0.2-0.3,0-0.4c0.1-0.2-0.1-0.2-0.2,0c-0.3,0.4-0.6,0.2-0.8-0.1
		c-0.2-0.3-0.5-0.5-0.9-0.7c-1.6-0.7-2.4-2.6-1.7-4.3c0.7-1.6,2.6-2.4,4.3-1.7c0,0,0.1,0,0.1,0.1c0.2,0.1,0.3,0.1,0.5,0.2
		c0.7,0,1.2,0.5,1.3,1.2c0.1,0.4,0.2,0.6,0.6,0.3c1.1-0.7,2.3-1.2,3.6-1.3c0.4-0.1,0.5-0.2,0.5-0.6c0.3-1.6,1.5-2.8,3.2-1.9L19,9
		c0.6,0.4,1.5,0.3,2-0.3c0,0,0-0.1,0.1-0.1c1.9-2.4,4.3-4.4,7.1-5.7C29,2.3,30,2.1,31,2.2c-0.1,0.2-0.3,0.2-0.5,0.3
		c-1.8,0.8-3.5,1.8-5.1,2.9c-0.4,0.3-0.5,0.5-0.2,1c0.7,1,1.6,1.9,2.6,2.5c0.3,0.2,0.5,0.2,0.6-0.2c0.3-0.8,0.7-1.6,1-2.4
		c0.1-0.3,0.4-0.6,0.8-0.6c2.1-0.4,4.1-1.6,5.4-3.3C35.9,1.9,36.1,1.9,36.5,2z M23.6,21.2c1.3-0.1,2.5-0.7,3.3-1.8
		c0.7-1.1,0.4-2-1-2.2c-0.1,0-0.2,0-0.3,0c-0.5-0.1-0.9,0-0.5,0.6c0.1,0.2,0.1,0.3-0.1,0.4s-0.3,0.1-0.4-0.2
		c-0.1-0.1-0.1-0.3-0.2-0.4c-0.9-2.5-1.9-4.9-2.9-7.4C21.4,10,21.4,9.6,21,9.7c-1.1,0.1-2.2,0.2-3.2,0.4c-0.2,0-0.3,0.2-0.4,0.4
		c-0.1,0.3,0.2,0.3,0.4,0.4c0.5,0.2,1,0.4,1.5,0.6c0.3,0.1,0.6,0.4,0.6,0.7c0.5,2.5,1,4.9,1.4,7.4C21.5,20.7,22.1,21.2,23.6,21.2
		L23.6,21.2z M1.6,30.9c0.3,0.3,0.7,0.3,1.1,0.2c0.4-0.2,0.8-0.4,1.2-0.6C4.3,30,5,30,5.4,30.4c0.1,0.1,0.3,0.2,0.5,0.1
		c0.2-0.2,0-0.4-0.1-0.5c-0.7-0.5-0.5-1,0-1.5c2.1-2.1,3.6-4.7,4.3-7.6c0.2-0.7,0.5-1.5,0.8-2.2c0.1-0.2,0.2-0.3,0.4-0.3
		c0.2,0.1,0.2,0.2,0.2,0.4c0,0.3-0.4,0.6-0.1,0.8c0.3,0.2,0.6-0.1,0.9-0.2c0.3-0.1,0.5-0.2,0.8-0.4c0.5-0.2,0.9-0.8,0.9-1.4
		c-0.1-0.6-0.6-0.9-1.1-1.1c-1.4-0.4-2.9-0.3-4.1,0.3C8.3,17,8,17.4,8,17.9c-0.1,0.8-0.2,1.6-0.3,2.4c0,2-0.7,4-1.8,5.6
		c-1,1.7-2.4,3.3-3.9,4.6C1.7,30.7,1.7,30.8,1.6,30.9L1.6,30.9z M7.6,16.2c1.3,0.3,1.7-0.7,1.9-1.6c0-0.7-0.1-1.4-0.2-2.1
		c0-1.1-0.7-1.3-1.5-1.6c-1.2-0.5-2.5-0.1-3.3,0.9c-0.7,1.1-0.6,2.5,0.3,3.4c0.5,0.5,1.2,0.6,1.6,1.1c0,0,0.2,0,0.3,0
		C7,16.1,7.3,16.2,7.6,16.2L7.6,16.2z M10.1,13c0.1,0.6,0.2,1.1,0.1,1.7c0,0.2-0.1,0.4,0.2,0.4c1.5-0.1,2.9-0.8,3.8-2
		c0.1-0.2,0.1-0.4,0-0.6c-0.8-0.6-2-0.5-2.6,0.3c-0.2,0.5-0.5,0.7-1,0.3C10.4,13,10.2,13,10.1,13L10.1,13z M16.7,8.5
		c-0.8-0.2-1,0.6-1.4,1.1c-0.2,0.2-0.2,0.6,0,0.8l0,0c0.4,0.3,0.8,0.4,1.3,0.5c0,0,0.1-0.1,0.1-0.2c-0.1-0.7,0.4-1.3,1.1-1.4
		c0.1,0,0.1,0,0.2,0c0.2,0,0.3-0.2,0.1-0.3C17.7,8.8,17.3,8.4,16.7,8.5L16.7,8.5z M36.6,31.9c-0.1,0-0.3,0-0.3,0.2
		c-0.3,0.3-0.6,0.6-1,0.9c-0.5,0.5-0.5,1.3,0,1.8c0.1,0.1,0.1,0.1,0.2,0.2c0.2,0.1,0.3-0.1,0.4-0.2c0.6-0.7,1-1.5,1.2-2.4
		C37.1,32,36.9,32,36.6,31.9L36.6,31.9z"/>
	<path id="Path_11594" class="st0" d="M7.4,34l3.6-1.7l7.2-3.4c0.3-0.1,0.5-0.2,0.8-0.2c5.2,0,10.4-0.1,15.6-0.1
		c0.9,0,0.9,0,0.9,0.9c0.2,0.9-0.2,1.8-1,2.3c-1,0.5-1.3,1.6-0.9,2.6c0,0.1,0.1,0.2,0.2,0.3c0.2,0.3,0.6,0.6,0.4,0.9
		c-0.2,0.5-0.6,1-0.9,1.5c-0.1,0.2-0.4,0.1-0.6,0.1c-2-0.2-4-0.5-6-0.7l-7.3-0.9l-8.5-1C10,34.5,9,34.4,8.1,34.3
		C7.9,34.2,7.6,34.2,7.4,34z"/>
	<path id="Path_11595" class="st0" d="M29.7,8.8c0.4,0.5,0.7,1.1,0.7,1.7c0.1,0.4,0.3,0.5,0.5,0.2c0.8-1,2.1-1.5,3.4-1.3
		c1.5,0,2.9-0.4,4.2-1c0.1-0.1,0.4-0.4,0.5,0c0.1,0.2,0,0.5-0.2,0.6c0,0,0,0-0.1,0c-1.2,0.5-2.4,0.8-3.7,1c-0.7,0.1-1.5,0.1-2.2,0.1
		c-0.2,0-0.4,0.1-0.6,0.2l-3,2.8c-0.4,0.4-0.1,0.4,0.2,0.5c1.5,0.3,3,0.6,4.4,1.1c1.8,0.6,3.4,1.6,4.8,2.9C39,18,39,18,38.9,18.7
		c-1.2-1.1-2.5-2.1-3.9-2.9c-2-1-4.2-1.6-6.4-1.8c-0.2,0-0.5,0-0.7,0.2s-0.5,0.3-0.7,0.5c0,0,0,0-0.2,0C28,12.8,28.8,10.9,29.7,8.8z
		"/>
</g>
</svg>
