<?xml version="1.0" encoding="utf-8"?>
<!-- Generator: Adobe Illustrator 27.4.0, SVG Export Plug-In . SVG Version: 6.00 Build 0)  -->
<svg version="1.1" id="Layer_1" xmlns="http://www.w3.org/2000/svg" xmlns:xlink="http://www.w3.org/1999/xlink" x="0px" y="0px"
	 viewBox="0 0 40 40" style="enable-background:new 0 0 40 40;" xml:space="preserve">
<style type="text/css">
	.st0{fill:#3f4891;}
</style>
<g id="Yogasana" transform="translate(0 0.001)">
	<path id="Path_20845" class="st0" d="M20.8,16.1v0.2c0,3.4,0,6.7,0.1,10.1c0.1,1.5-0.7,2.9-1.9,3.8c-0.9,0.7-2,1.1-3.2,1.2
		c-0.4,0-0.8,0-1.2,0H2.9c-1.3,0-2.3-1-2.3-2.2l0,0V29c0-0.4,0.1-0.8,0.4-1.1c1.7-2.9,3.4-5.8,5.1-8.7c0.3-0.5,0.6-1,0.9-1.6
		c0.6-1.1,1.9-1.5,3-1h0.1v-0.2c0-1.2,0-2.4,0-3.7c-0.1-1.9,1-3.6,2.7-4.3c0.8-0.4,1.7-0.6,2.6-0.6c0.8,0,1.5,0.2,2.2,0.5
		c0.9,0.4,1.8,0.8,2.7,1.3l17.5,9.7c0.8,0.4,1.3,1,1.5,1.9c0.3,1-0.1,2.1-1,2.7c-0.8,0.7-1.9,0.8-2.9,0.3s-2-1.1-2.9-1.6L21,16.2
		L20.8,16.1z M6.9,26.8h3.2v-5.4l0,0L6.9,26.8z"/>
	<path id="Path_20846" class="st0" d="M26.9,20.5c3.2,0,5.9,2.6,5.9,5.9s-2.6,5.9-5.9,5.9c-3.2,0-5.9-2.6-5.9-5.9
		C21,23.2,23.7,20.5,26.9,20.5L26.9,20.5z"/>
</g>
</svg>
